<svg xmlns="http://www.w3.org/2000/svg" width="74.7" height="95.1"><path d="M74.7 87.9c0 4.8-2.267 7.2-6.8 7.2H6.8c-4.533 0-6.8-2.4-6.8-7.2V7.2C0 2.4 2.267 0 6.8 0h61.1c4.533 0 6.8 2.4 6.8 7.2v80.7m-1.7 0V7.2c0-3.667-1.7-5.5-5.1-5.5H6.8c-3.4 0-5.1 1.833-5.1 5.5v80.7c0 3.733 1.7 5.6 5.1 5.6h61.1c3.4 0 5.1-1.867 5.1-5.6" style="-inkscape-font-specification:Droid Serif" font-size="100" font-family="Droid Serif"/><path d="M4.476 92.88c-.947-.413-2.122-1.745-2.393-2.71-.107-.383-.195-19.66-.195-42.835V5.197L2.52 4.09c.42-.73 1-1.28 1.71-1.625 1.056-.51 1.605-.52 33.124-.52 34.512 0 33.04-.057 34.274 1.332.302.34.682 1.017.845 1.503.217.647.296 12.18.296 42.93v42.044l-.59 1.146c-.322.63-.916 1.383-1.32 1.68-.73.53-.882.534-33.164.59-26.565.046-32.575-.006-33.225-.29z" fill="#fff"/><path style="-inkscape-font-specification:Droid Serif" d="M50.824 22.408c.8 0 1.934.366 3.4 1.1 1.534.666 2.3 1.366 2.3 2.1 0 .733-.9 1.1-2.7 1.1-.333 0-1.233-.1-2.7-.3-1.4-.267-2.266-.4-2.6-.4-5.333 0-14.466 1.166-27.4 3.5-.6 0-1.5-.3-2.7-.9-1.2-.6-1.8-1.234-1.8-1.9 0-.534.6-.8 1.8-.8l2.2.1h2.2c3.067 0 5.867-.167 8.4-.5 2.534-.334 9.067-1.367 19.6-3.1" font-size="100" fill="#20208c" font-family="Droid Serif"/><path d="M50.345 50.028c.466 0 1.1.267 1.9.8.866.467 1.366.8 1.5 1v.8c-.334.333-.8.5-1.4.5-.334 0-1.167-.033-2.5-.1-1.334-.133-2.167-.2-2.5-.2-2.334 0-3.9.3-4.7.9l-3.4 3.5c.133-.267.5-1.367 1.1-3.3-.2-.2-.834-.3-1.9-.3-.6 0-2.167.1-4.7.3 0 .933-.267 2.3-.8 4.1l-.3-.9c-.267-.667-.567-1.267-.9-1.8-.267-.533-.534-.8-.8-.8-.6 0-1.9.2-3.9.6-1.934.4-3.2.6-3.8.6-1.134 0-2.234-.567-3.3-1.7l11-1.2-2.2-4.3h2.5c.066 0 .6.233 1.6.7 0 .8.233 2 .7 3.6.533-.067 2.933-.433 7.2-1.1.666-2.2 1.066-4.2 1.2-6 2.466 1.4 3.7 2.267 3.7 2.6l-1.6 2.5c.2.2.566.3 1.1.3.333 0 1.2-.167 2.6-.5 1.4-.4 2.266-.6 2.6-.6m-24.7 9.4c3.933-.2 7.2-.533 9.8-1 2.6-.467 4.466-.867 5.6-1.2 1.133-.333 2-.5 2.6-.5 1 0 2.333.833 4 2.5-.867 1.6-1.567 2.967-2.1 4.1-.534 1.067-.9 1.767-1.1 2.1-.134.333-.367.767-.7 1.3l-1.5 2.4c-.734-.667-1.434-1-2.1-1-1 0-2.167.267-3.5.8v2.2c.133.067.5.1 1.1.1.066 0 2.133-.2 6.2-.6 4.066-.467 6.166-.7 6.3-.7.666 0 2.066.7 4.2 2.1-.467.933-.834 2.433-1.1 4.5-.267 2.067-.7 4.033-1.3 5.9-.534 1.933-1.534 3.533-3 4.8-.8-1-2.4-2.8-4.8-5.4 2 .333 3.133.5 3.4.5 1.133 0 1.833-.6 2.1-1.8.266-1.133.4-3.5.4-7.1-.534-.733-1.434-1.1-2.7-1.1-4.4 0-8.1.433-11.1 1.3v2.7c.4.4.766.6 1.1.6.933 0 2-.3 3.2-.9-.334-.267-.5-.8-.5-1.6.8.067 1.766.533 2.9 1.4 1.133.8 1.7 1.6 1.7 2.4 0 1.067-.4 1.6-1.2 1.6-.334 0-.9-.433-1.7-1.3-.734-.8-1.167-1.233-1.3-1.3-6.8 2-10.267 3-10.4 3-.4 0-.834-.2-1.3-.6-.4-.4-.667-.833-.8-1.3 1.466-.2 3.6-.6 6.4-1.2v-2.4c-.067-.6-.5-.9-1.3-.9-3.4 0-6.034.267-7.9.8v4.4c.066 1.133.1 1.833.1 2.1.066.267.1.5.1.7.066.267.1.567.1.9 0 .133-.1.533-.3 1.2-.134.667-.2 1.1-.2 1.3 0 .267.066.467.2.6h-1.1c-.4 0-.634-.233-.7-.7-.4-5.533-.967-9.633-1.7-12.3.6.067 1.533.233 2.8.5l10-1.5.1-.2v-2.2c-.2-.2-.6-.3-1.2-.3-1.667 0-2.734.267-3.2.8-.667-.6-1.467-2.3-2.4-5.1-.934-2.867-1.667-4.667-2.2-5.4m14.2 7.3c.866 0 1.6-.633 2.2-1.9.666-1.267 1-2.533 1-3.8 0-.467-.134-1.067-.4-1.8h-5.9v2.5c.4.2.733.3 1 .3.2 0 .4-.033.6-.1.266-.067.466-.1.6-.1.8 0 1.366.4 1.7 1.2-.8.6-2.1 1.1-3.9 1.5v2.2h3.1m-5.3-6.8c-.267 0-.9.1-1.9.3-1 .2-1.634.3-1.9.3-.2 0-.634-.167-1.3-.5l1.2 7.8c1.666-.2 3-.467 4-.8v-2.3c-.467-.067-.934-.1-1.4-.1-.4 0-.767.033-1.1.1-.2-.2-.467-.5-.8-.9.066-.067 1.166-.433 3.3-1.1-.067-1.733-.1-2.667-.1-2.8" style="-inkscape-font-specification:Droid Serif" font-size="100" fill="#ba0000" font-family="Droid Serif"/></svg>