<svg xmlns="http://www.w3.org/2000/svg" width="74.7" height="95.1"><path d="M74.7 87.9c0 4.8-2.267 7.2-6.8 7.2H6.8c-4.533 0-6.8-2.4-6.8-7.2V7.2C0 2.4 2.267 0 6.8 0h61.1c4.533 0 6.8 2.4 6.8 7.2v80.7m-1.7 0V7.2c0-3.667-1.7-5.5-5.1-5.5H6.8c-3.4 0-5.1 1.833-5.1 5.5v80.7c0 3.733 1.7 5.6 5.1 5.6h61.1c3.4 0 5.1-1.867 5.1-5.6" style="-inkscape-font-specification:Droid Serif" font-size="100" font-family="Droid Serif"/><path d="M4.257 92.76c-.79-.398-1.315-.908-1.758-1.704l-.634-1.137V5.32l.54-1.01c.662-1.234 1.217-1.735 2.34-2.112 1.223-.41 63.98-.41 65.204 0 1.123.377 1.678.878 2.34 2.11l.54 1.01v84.6l-.63 1.138c-.444.796-.97 1.306-1.76 1.704l-1.126.57H5.384l-1.128-.57z" fill="#fff"/><path style="-inkscape-font-specification:Droid Serif" d="M64.5 47.5c0 7.733-2.667 14.2-8 19.4-5.267 5.2-11.667 7.8-19.2 7.8-7.6 0-14.033-2.633-19.3-7.9-5.2-5.333-7.8-11.767-7.8-19.3 0-7.533 2.633-13.933 7.9-19.2 5.267-5.267 11.667-7.9 19.2-7.9 7.733 0 14.2 2.667 19.4 8 5.2 5.267 7.8 11.633 7.8 19.1m-2 0c0-7.067-2.467-13.033-7.4-17.9-4.867-4.867-10.8-7.3-17.8-7.3s-12.933 2.467-17.8 7.4c-4.867 4.867-7.3 10.8-7.3 17.8 0 7.133 2.433 13.133 7.3 18 4.933 4.8 10.867 7.2 17.8 7.2 7.133 0 13.1-2.433 17.9-7.3 4.867-4.933 7.3-10.9 7.3-17.9M37.3 25.3c6.4 0 11.7 2.2 15.9 6.6 4.267 4.333 6.4 9.533 6.4 15.6 0 6.333-2.167 11.633-6.5 15.9-4.333 4.267-9.6 6.4-15.8 6.4-6.267 0-11.533-2.167-15.8-6.5-4.267-4.4-6.4-9.667-6.4-15.8 0-6.333 2.167-11.6 6.5-15.8 4.4-4.267 9.633-6.4 15.7-6.4M22.9 62c4 3.867 8.8 5.8 14.4 5.8s10.4-1.933 14.4-5.8c4-3.933 6-8.767 6-14.5 0-5.6-2-10.367-6-14.3-3.933-4-8.733-6-14.4-6-5.733 0-10.567 2-14.5 6-3.867 3.933-5.8 8.7-5.8 14.3 0 5.733 1.967 10.567 5.9 14.5" font-size="100" fill="#10106c" font-family="Droid Serif"/><path style="-inkscape-font-specification:Droid Serif" d="M33.2 43.4c1.133-1.133 2.5-1.7 4.1-1.7 1.6 0 2.967.567 4.1 1.7 1.2 1.067 1.8 2.433 1.8 4.1 0 1.733-.567 3.167-1.7 4.3-1.133 1.067-2.533 1.6-4.2 1.6-1.667 0-3.067-.567-4.2-1.7-1.067-1.2-1.6-2.6-1.6-4.2 0-1.667.567-3.033 1.7-4.1m4.1 8c1.133 0 2.067-.367 2.8-1.1.8-.8 1.2-1.733 1.2-2.8 0-1.067-.4-1.967-1.2-2.7-.733-.8-1.667-1.2-2.8-1.2-1.133 0-2.067.4-2.8 1.2-.733.733-1.1 1.633-1.1 2.7 0 1.133.367 2.067 1.1 2.8.8.733 1.733 1.1 2.8 1.1" font-size="100" fill="#10106c" font-family="Droid Serif"/><path d="M50.8 42c1.667 0 3.033.533 4.1 1.6 1.067 1.067 1.6 2.433 1.6 4.1 0 1.6-.533 2.9-1.6 3.9-1 1-2.367 1.5-4.1 1.5H47c1.8 3.133 2.7 5.2 2.7 6.2 0 1.533-.567 2.867-1.7 4-1.067 1.133-2.433 1.7-4.1 1.7-.467 0-.933-.033-1.4-.1-.4-.133-.8-.333-1.2-.6-.333-.333-.633-.6-.9-.8-.267-.267-.567-.633-.9-1.1-.333-.533-.6-.933-.8-1.2-.133-.267-.367-.7-.7-1.3-.333-.6-.567-1-.7-1.2-1.6 2.933-2.833 4.7-3.7 5.3-.8.6-1.767.9-2.9.9-1.6 0-2.967-.533-4.1-1.6-1.133-1.067-1.7-2.333-1.7-3.8 0-1.067.933-3.2 2.8-6.4h-3.8c-1.667 0-3.033-.533-4.1-1.6-1.067-1.133-1.6-2.5-1.6-4.1 0-1.667.5-2.967 1.5-3.9 1.067-1 2.467-1.5 4.2-1.5h3.8c-1.8-3.133-2.7-5.233-2.7-6.3 0-1.533.533-2.833 1.6-3.9 1.133-1.133 2.533-1.7 4.2-1.7.6 0 1.133.1 1.6.3.533.2.933.4 1.2.6.333.2.7.6 1.1 1.2.467.6.767 1 .9 1.2.133.2.433.733.9 1.6.467.8.733 1.267.8 1.4 1.733-3 3-4.8 3.8-5.4.8-.533 1.767-.8 2.9-.8 1.6 0 2.967.533 4.1 1.6 1.133 1.067 1.7 2.333 1.7 3.8 0 1-.933 3.133-2.8 6.4h3.8m-6.9 21c1.067 0 1.967-.333 2.7-1 .733-.733 1.1-1.633 1.1-2.7 0-.667-.167-1.3-.5-1.9l-3.6-6.3h7.2c2.467 0 3.7-1.2 3.7-3.6 0-2.4-1.233-3.6-3.7-3.6h-7.2l3.6-6.2c.4-.733.6-1.467.6-2.2 0-.933-.367-1.733-1.1-2.4-.733-.667-1.6-1-2.6-1-1.333 0-2.367.633-3.1 1.9l-3.7 6.3-3.6-6.3c-.733-1.333-1.7-2-2.9-2-1.067 0-2 .367-2.8 1.1-.733.733-1.1 1.6-1.1 2.6 0 .667.2 1.333.6 2l3.6 6.2h-7.2c-2.467 0-3.7 1.2-3.7 3.6 0 2.4 1.233 3.6 3.7 3.6h7.2l-3.6 6.3c-.467.733-.7 1.433-.7 2.1 0 .933.367 1.733 1.1 2.4.8.667 1.7 1 2.7 1 1.333 0 2.367-.633 3.1-1.9l3.6-6.2L41 61c.733 1.333 1.7 2 2.9 2" style="-inkscape-font-specification:Droid Serif" font-size="100" fill="#9c0000" font-family="Droid Serif"/><path d="M39.3 47.5c0 1.333-.667 2-2 2-1.267 0-1.9-.667-1.9-2 0-1.267.633-1.9 1.9-1.9 1.333 0 2 .633 2 1.9" style="-inkscape-font-specification:Droid Serif" font-size="100" fill="#9c0000" font-family="Droid Serif"/></svg>