<svg xmlns="http://www.w3.org/2000/svg" width="74.7" height="95.1"><path d="M74.7 87.9c0 4.8-2.267 7.2-6.8 7.2H6.8c-4.533 0-6.8-2.4-6.8-7.2V7.2C0 2.4 2.267 0 6.8 0h61.1c4.533 0 6.8 2.4 6.8 7.2v80.7m-1.7 0V7.2c0-3.667-1.7-5.5-5.1-5.5H6.8c-3.4 0-5.1 1.833-5.1 5.5v80.7c0 3.733 1.7 5.6 5.1 5.6h61.1c3.4 0 5.1-1.867 5.1-5.6" style="-inkscape-font-specification:Droid Serif" font-size="100" font-family="Droid Serif"/><path d="M5.792 93.318c-.128-.043-.523-.142-.877-.22-1.06-.234-2.39-1.617-2.752-2.86-.268-.92-.32-8.033-.32-42.81 0-39.787.02-41.753.422-42.8.488-1.262 1.432-2.15 2.666-2.508.6-.174 10.616-.228 32.94-.18l32.08.068.935.618c.514.34 1.134 1.02 1.377 1.51.43.866.446 2.12.51 42.945.05 30.826-.004 42.31-.197 43.017-.145.53-.573 1.338-.95 1.796-1.34 1.624.51 1.542-34.334 1.52-17.196-.01-31.37-.052-31.497-.094z" fill="#fff"/><g font-size="100" font-family="Droid Serif"><path d="M57.1 26.85c1.267 0 2.933.633 5 1.9 2.133 1.267 3.633 2.033 4.5 2.3v.6c-.333.267-1.367.567-3.1.9-1.667.333-2.8 1-3.4 2l-2.3 7.3c-.4 1.133-2.733 4.367-7 9.7-2.667 3.333-4 6.333-4 9 0 1.2.6 2.6 1.8 4.2 1.267 1.6 3.167 2.467 5.7 2.6.267 0 .7.3 1.3.9H33.3c.4-.333 1.233-.7 2.5-1.1 1.267-.467 2.1-.867 2.5-1.2-.067-.267-.2-.833-.4-1.7s-.367-1.533-.5-2c-.133-.467-.333-1.033-.6-1.7-.267-.667-.567-1.2-.9-1.6-.333-.467-.733-.833-1.2-1.1 0-.067-.4-.1-1.2-.1-1.933 0-5.433.967-10.5 2.9-5 1.867-8.467 2.8-10.4 2.8-.667 0-1.567-.133-2.7-.4-1.133-.267-1.733-.5-1.8-.7 1-.867 2.433-2.267 4.3-4.2-.067-.2-.267-.367-.6-.5-.333-.2-.667-.333-1-.4h-.5v-.6c.067-.133.2-.3.4-.5 2.067-.4 3.733-.8 5-1.2 1.333-.4 3.467-1.433 6.4-3.1 3-1.733 6.433-4.1 10.3-7.1l15.2-12.5c.8-1.133 1.533-2.033 2.2-2.7.667-.667 1.633-1.267 2.9-1.8 1.267-.6 2.733-.9 4.4-.9m-22 29.5c.333 0 1.067.5 2.2 1.5 1.2 1 1.867 1.533 2 1.6l7.4-6.6c4.467-4 7.067-6.7 7.8-8.1l4-9c1.733-2.333 2.6-3.767 2.6-4.3 0-.8-.567-1.6-1.7-2.4-1.133-.867-2.167-1.3-3.1-1.3-1.067 0-2.467.767-4.2 2.3-1.733 1.467-5.267 4.467-10.6 9-5.267 4.467-11.467 9.233-18.6 14.3.2.533.867.967 2 1.3 1.133.267 1.9.4 2.3.4l7.3-2.3c3.067-1 5.833-2.2 8.3-3.6 2.467-1.4 4.333-2.767 5.6-4.1 1.267-1.333 2.233-2.5 2.9-3.5.667-1.067 1-1.9 1-2.5v-.6c-.6-.2-1.7-.433-3.3-.7.133-.8.3-1.233.5-1.3h.2c.133.067.333.1.6.1 1.133 0 2.1.233 2.9.7.867.467 1.4.867 1.6 1.2.267.333.4.567.4.7s-.233.433-.7.9l-.6.8c-1.2 2.533-3.8 5.1-7.8 7.7-4 2.6-8.067 4.633-12.2 6.1-1.067.333-2.967.733-5.7 1.2-2.733.4-5.267.933-7.6 1.6-2.6.667-3.967 1-4.1 1-1.733.6-3.033 1.367-3.9 2.3v1h3.7c1.133 0 2.867-.6 5.2-1.8.533-.4 1.233-.867 2.1-1.4 4.867-1.467 8.7-2.2 11.5-2.2m5.1 6.4c0 1 .367 1.967 1.1 2.9.733.867 1.667 1.3 2.8 1.3 1.667 0 2.5-.767 2.5-2.3 0-1.067-.633-2.167-1.9-3.3-1.267-1.2-2.467-1.933-3.6-2.2-.6 1.467-.9 2.667-.9 3.6" style="-inkscape-font-specification:Droid Serif" fill="#006c00"/><path d="M57.452 31.138c0 1-.433 1.5-1.3 1.5-1 0-1.5-.5-1.5-1.5 0-.8.5-1.2 1.5-1.2.867 0 1.3.4 1.3 1.2" style="-inkscape-font-specification:Droid Serif" fill="#9c0000"/></g></svg>