<svg xmlns="http://www.w3.org/2000/svg" width="74.7" height="95.1"><path d="M4.687 92.976c-.824-.33-1.712-1.17-2.234-2.116-.383-.695-.423-4.227-.484-42.764-.05-28.91.01-42.316.2-42.998.36-1.337 1.52-2.6 2.72-2.96.73-.22 9.19-.297 32.76-.297 31.62 0 31.78.01 32.853.53.633.308 1.32.907 1.657 1.45l.58.93v85.36l-.525 1c-.34.65-.903 1.2-1.617 1.578l-1.094.58-32.096-.017c-20.696-.01-32.32-.104-32.726-.266z" fill="#fff"/><path style="-inkscape-font-specification:Droid Serif" d="M43.9 51.85c-.333-.867-.6-1.367-.8-1.5-.2-.133-.7-.2-1.5-.2-.4 0-2.3.267-5.7.8l-.3.3c1.133 1.067 2.3 2.067 3.5 3 1.2.933 2.3 1.767 3.3 2.5 1.067.667 2.2 1.333 3.4 2 1.2.6 2.2 1.133 3 1.6.867.4 1.9.833 3.1 1.3 1.267.4 2.167.733 2.7 1 .6.2 1.5.433 2.7.7 1.2.267 1.967.467 2.3.6.333.067 1.067.233 2.2.5 1.2.2 1.833.3 1.9.3.4.067.767.4 1.1 1-4.667 1.2-7.967 1.8-9.9 1.8h-1.1c-.8 0-1.7-.2-2.7-.6-1-.467-2.8-1.767-5.4-3.9-2.6-2.2-5.867-5.3-9.8-9.3-.2.2-.3.333-.3.4v10.3c0 .333.067 1.133.2 2.4.133 1.2.2 1.967.2 2.3 0 2.2-.6 4.433-1.8 6.7-1.933-1.267-2.9-2.733-2.9-4.4 0-.133.033-.367.1-.7.133-.4.3-1.133.5-2.2.267-1.067.533-2.4.8-4l-.1-8.7-3.3 2.7c-1.467 1.133-2.633 2.033-3.5 2.7-.867.667-1.933 1.5-3.2 2.5-1.267.933-2.333 1.7-3.2 2.3-.8.533-1.7 1.1-2.7 1.7-.933.533-1.767.933-2.5 1.2-.667.267-1.233.4-1.7.4H9.9c1.067-.733 2.5-1.733 4.3-3 1.867-1.267 3.167-2.133 3.9-2.6.733-.533 1.733-1.267 3-2.2 1.333-.933 2.267-1.6 2.8-2 .533-.467 1.233-1.067 2.1-1.8.933-.8 1.633-1.467 2.1-2 .467-.533.967-1.133 1.5-1.8.533-.733 1.033-1.467 1.5-2.2-.133-.133-.467-.2-1-.2-1.333 0-2.367.133-3.1.4-.733.2-1.167.4-1.3.6-.067.2-.167.533-.3 1-.8 0-1.533-.733-2.2-2.2-.6-1.467-1.4-3.4-2.4-5.8-1-2.467-2.167-4.467-3.5-6v-1.6H20l1.4.7c.067.067.433.1 1.1.1 1.333 0 4.833-.833 10.5-2.5v-3.9c-.4 0-1.367.133-2.9.4-1.533.2-2.5.3-2.9.3-.933 0-2.267-.433-4-1.3l9.8-1.9v-4l-2-6.6c2.2.533 4.267 1.4 6.2 2.6l-1.2 5.5c0 .4.233.733.7 1l6.6-1.4c1.067.067 2.267.5 3.6 1.3-1.733.933-5.033 2.033-9.9 3.3-.533.133-1 .5-1.4 1.1v3c.067.133.3.2.7.2.267 0 1.933-.3 5-.9 3.133-.667 4.833-1 5.1-1 .533 0 1.667.4 3.4 1.2 1.8.733 2.7 1.533 2.7 2.4 0 .333-.233.9-.7 1.7-.467.8-1 1.667-1.6 2.6-.6.867-.967 1.433-1.1 1.7l-3.5 8.3h-1.7m-8.3-10.5c.8.2 1.467.3 2 .3.333 0 .633-.033.9-.1.333-.133.533-.2.6-.2 2 0 3.133.467 3.4 1.4-1 .533-3.3 1.267-6.9 2.2v2.9c.333.4 1.1.6 2.3.6l6-.6c1.133-4.467 1.7-7.167 1.7-8.1 0-1.2-.167-1.933-.5-2.2H39c-.467 0-1.6.3-3.4.9v2.9m-2.7 1.3v-3.7h-1.4l-9 1.7 3.1 9.5 5.5-.9c.467.133 1.033.367 1.7.7v-4.1c0-.2-.1-.3-.3-.3-1.8.2-2.867.3-3.2.3h-.6c-.733 0-1.267-.067-1.6-.2-.333-.2-.733-.6-1.2-1.2l7-1.8" font-size="100" fill="#20208c" font-family="Droid Serif"/><path d="M74.7 87.9c0 4.8-2.267 7.2-6.8 7.2H6.8c-4.533 0-6.8-2.4-6.8-7.2V7.2C0 2.4 2.267 0 6.8 0h61.1c4.533 0 6.8 2.4 6.8 7.2v80.7m-1.7 0V7.2c0-3.667-1.7-5.5-5.1-5.5H6.8c-3.4 0-5.1 1.833-5.1 5.5v80.7c0 3.733 1.7 5.6 5.1 5.6h61.1c3.4 0 5.1-1.867 5.1-5.6" style="-inkscape-font-specification:Droid Serif" font-size="100" font-family="Droid Serif"/></svg>