<svg xmlns="http://www.w3.org/2000/svg" width="74.7" height="95.1"><path d="M4.796 93.056c-1.04-.3-2.324-1.753-2.677-3.025-.405-1.44-.386-83.95.015-85.152.41-1.228 1.632-2.446 2.807-2.8.718-.214 9.663-.294 32.564-.29 30.08.005 31.622.03 32.613.484 1.275.586 1.892 1.254 2.354 2.55.527 1.476.527 84.005 0 85.48-.462 1.298-1.08 1.966-2.354 2.55-.99.457-2.51.48-32.772.46-18.286-.01-32.082-.116-32.554-.253z" fill="#fff"/><path d="M48.02 16.12c0 .334-.166.567-.5.7-.266.067-1.133.234-2.6.5-1.866.334-3.533.634-5 .9-4 .6-6.866.9-8.6.9-1.666 0-3.4-.7-5.2-2.1l18.2-2.9h.2c1.534 0 2.7.667 3.5 2m4.1 15.8c1 0 2.3.334 3.9 1 1.6.6 2.4 1.367 2.4 2.3 0 .934-.4 1.4-1.2 1.4-9.6-.666-14.9-1-15.9-1-2.4 0-5.166.167-8.3.5-3.133.334-5.8.667-8 1-2.2.334-3.366.5-3.5.5-2 0-3.4-.8-4.2-2.4.867-.333 3.834-.5 8.9-.5l25.9-2.8" style="-inkscape-font-specification:Droid Serif" font-size="100" fill="#20208c" font-family="Droid Serif"/><path d="M50.5 48.98c.467 0 1.1.266 1.9.8.867.466 1.367.8 1.5 1v.8c-.333.333-.8.5-1.4.5-.333 0-1.167-.034-2.5-.1-1.333-.134-2.167-.2-2.5-.2-2.333 0-3.9.3-4.7.9l-3.4 3.5c.133-.267.5-1.367 1.1-3.3-.2-.2-.833-.3-1.9-.3-.6 0-2.167.1-4.7.3 0 .933-.267 2.3-.8 4.1l-.3-.9c-.267-.667-.567-1.267-.9-1.8-.267-.534-.533-.8-.8-.8-.6 0-1.9.2-3.9.6-1.933.4-3.2.6-3.8.6-1.133 0-2.233-.567-3.3-1.7l11-1.2-2.2-4.3h2.5c.067 0 .6.233 1.6.7 0 .8.233 2 .7 3.6.533-.067 2.933-.434 7.2-1.1.667-2.2 1.067-4.2 1.2-6 2.467 1.4 3.7 2.266 3.7 2.6l-1.6 2.5c.2.2.567.3 1.1.3.333 0 1.2-.167 2.6-.5 1.4-.4 2.267-.6 2.6-.6m-24.7 9.4c3.933-.2 7.2-.534 9.8-1 2.6-.467 4.467-.867 5.6-1.2 1.133-.334 2-.5 2.6-.5 1 0 2.333.833 4 2.5-.867 1.6-1.567 2.966-2.1 4.1-.533 1.066-.9 1.766-1.1 2.1-.133.333-.367.766-.7 1.3l-1.5 2.4c-.733-.667-1.433-1-2.1-1-1 0-2.167.266-3.5.8v2.2c.133.066.5.1 1.1.1.067 0 2.133-.2 6.2-.6 4.067-.467 6.167-.7 6.3-.7.667 0 2.067.7 4.2 2.1-.467.933-.833 2.433-1.1 4.5-.267 2.066-.7 4.033-1.3 5.9-.533 1.933-1.533 3.533-3 4.8-.8-1-2.4-2.8-4.8-5.4 2 .333 3.133.5 3.4.5 1.133 0 1.833-.6 2.1-1.8.267-1.134.4-3.5.4-7.1-.533-.734-1.433-1.1-2.7-1.1-4.4 0-8.1.433-11.1 1.3v2.7c.4.4.767.6 1.1.6.933 0 2-.3 3.2-.9-.333-.267-.5-.8-.5-1.6.8.066 1.767.533 2.9 1.4 1.133.8 1.7 1.6 1.7 2.4 0 1.066-.4 1.6-1.2 1.6-.333 0-.9-.434-1.7-1.3-.733-.8-1.167-1.234-1.3-1.3-6.8 2-10.267 3-10.4 3-.4 0-.833-.2-1.3-.6-.4-.4-.667-.834-.8-1.3 1.467-.2 3.6-.6 6.4-1.2v-2.4c-.067-.6-.5-.9-1.3-.9-3.4 0-6.033.266-7.9.8v4.4c.067 1.133.1 1.833.1 2.1.067.266.1.5.1.7.067.266.1.566.1.9 0 .133-.1.533-.3 1.2-.133.666-.2 1.1-.2 1.3 0 .266.067.466.2.6h-1.1c-.4 0-.633-.234-.7-.7-.4-5.534-.967-9.634-1.7-12.3.6.066 1.533.233 2.8.5l10-1.5.1-.2v-2.2c-.2-.2-.6-.3-1.2-.3-1.667 0-2.733.266-3.2.8-.667-.6-1.467-2.3-2.4-5.1-.933-2.867-1.667-4.667-2.2-5.4m14.2 7.3c.867 0 1.6-.634 2.2-1.9.667-1.267 1-2.534 1-3.8 0-.467-.133-1.067-.4-1.8h-5.9v2.5c.4.2.733.3 1 .3.2 0 .4-.034.6-.1.267-.067.467-.1.6-.1.8 0 1.367.4 1.7 1.2-.8.6-2.1 1.1-3.9 1.5v2.2H40m-5.3-6.8c-.267 0-.9.1-1.9.3-1 .2-1.633.3-1.9.3-.2 0-.633-.167-1.3-.5l1.2 7.8c1.667-.2 3-.467 4-.8v-2.3c-.467-.067-.933-.1-1.4-.1-.4 0-.767.033-1.1.1-.2-.2-.467-.5-.8-.9.067-.067 1.167-.434 3.3-1.1-.067-1.734-.1-2.667-.1-2.8" style="-inkscape-font-specification:Droid Serif" font-size="100" fill="#ba0000" font-family="Droid Serif"/><path d="M74.7 87.9c0 4.8-2.267 7.2-6.8 7.2H6.8c-4.533 0-6.8-2.4-6.8-7.2V7.2C0 2.4 2.267 0 6.8 0h61.1c4.533 0 6.8 2.4 6.8 7.2v80.7m-1.7 0V7.2c0-3.667-1.7-5.5-5.1-5.5H6.8c-3.4 0-5.1 1.833-5.1 5.5v80.7c0 3.733 1.7 5.6 5.1 5.6h61.1c3.4 0 5.1-1.867 5.1-5.6" style="-inkscape-font-specification:Droid Serif" font-size="100" font-family="Droid Serif"/></svg>