<svg xmlns="http://www.w3.org/2000/svg" width="74.7" height="95.1"><path d="M74.7 87.9c0 4.8-2.267 7.2-6.8 7.2H6.8c-4.533 0-6.8-2.4-6.8-7.2V7.2C0 2.4 2.267 0 6.8 0h61.1c4.533 0 6.8 2.4 6.8 7.2v80.7m-1.7 0V7.2c0-3.667-1.7-5.5-5.1-5.5H6.8c-3.4 0-5.1 1.833-5.1 5.5v80.7c0 3.733 1.7 5.6 5.1 5.6h61.1c3.4 0 5.1-1.867 5.1-5.6" style="-inkscape-font-specification:Droid Serif" font-size="100" font-family="Droid Serif"/><path d="M4.77 93.046c-1.197-.424-2.315-1.66-2.66-2.944-.16-.593-.225-16.008-.183-43.077L1.993 4.87l.71-1.075C4.078 1.722 1.287 1.877 37.35 1.877c36.06 0 33.27-.155 34.643 1.918l.71 1.075v85.432l-.693 1.048c-1.4 2.117 1.665 1.94-34.283 2-27.014.045-32.102-.002-32.956-.304z" fill="#fff"/><path style="-inkscape-font-specification:Droid Serif" d="M57.7 69.5c0 5.8-2 10.633-6 14.5-3.933 3.933-8.733 5.9-14.4 5.9-5.733 0-10.567-2-14.5-6-3.867-3.933-5.8-8.7-5.8-14.3 0-5.667 1.967-10.467 5.9-14.4 3.933-4 8.733-6 14.4-6 5.8 0 10.633 2 14.5 6 3.933 3.933 5.9 8.7 5.9 14.3m-1.5 0c0-5.267-1.833-9.733-5.5-13.4s-8.133-5.5-13.4-5.5c-5.267 0-9.733 1.867-13.4 5.6-3.6 3.667-5.4 8.1-5.4 13.3 0 5.4 1.833 9.9 5.5 13.5 3.667 3.6 8.1 5.4 13.3 5.4 5.333 0 9.8-1.833 13.4-5.5 3.667-3.667 5.5-8.133 5.5-13.4M37.3 52.9c4.8 0 8.767 1.633 11.9 4.9 3.2 3.267 4.8 7.167 4.8 11.7 0 4.8-1.633 8.8-4.9 12-3.2 3.2-7.133 4.8-11.8 4.8-4.733 0-8.7-1.667-11.9-5-3.2-3.267-4.8-7.2-4.8-11.8 0-4.733 1.633-8.667 4.9-11.8 3.333-3.2 7.267-4.8 11.8-4.8M26.5 80.4c3 2.933 6.6 4.4 10.8 4.4 4.2 0 7.8-1.467 10.8-4.4 3-2.933 4.5-6.567 4.5-10.9 0-4.2-1.5-7.767-4.5-10.7-2.933-3-6.533-4.5-10.8-4.5-4.333 0-7.967 1.5-10.9 4.5-2.867 2.933-4.3 6.5-4.3 10.7 0 4.333 1.467 7.967 4.4 10.9m20.9-15c1.267 0 2.3.4 3.1 1.2.8.8 1.2 1.833 1.2 3.1 0 1.2-.4 2.167-1.2 2.9-.733.733-1.767 1.1-3.1 1.1h-2.8c1.333 2.4 2 3.967 2 4.7 0 1.133-.433 2.133-1.3 3-.8.867-1.833 1.3-3.1 1.3-.333 0-.667-.067-1-.2-.333-.067-.633-.2-.9-.4s-.5-.4-.7-.6c-.2-.2-.433-.5-.7-.9-.2-.333-.367-.6-.5-.8-.133-.2-.333-.533-.6-1-.267-.4-.433-.7-.5-.9-1.2 2.2-2.133 3.533-2.8 4-.6.467-1.333.7-2.2.7-1.2 0-2.233-.4-3.1-1.2-.8-.8-1.2-1.767-1.2-2.9 0-.8.7-2.4 2.1-4.8h-2.9c-1.2 0-2.2-.4-3-1.2-.8-.8-1.2-1.8-1.2-3 0-1.267.367-2.267 1.1-3 .8-.733 1.833-1.1 3.1-1.1h2.9c-1.333-2.333-2-3.9-2-4.7 0-1.133.4-2.1 1.2-2.9.8-.867 1.833-1.3 3.1-1.3.467 0 .867.067 1.2.2.4.133.7.3.9.5.267.133.567.433.9.9.333.4.533.7.6.9.133.133.367.533.7 1.2.333.6.533.933.6 1 1.267-2.267 2.2-3.6 2.8-4 .6-.4 1.333-.6 2.2-.6 1.2 0 2.233.4 3.1 1.2.867.8 1.3 1.733 1.3 2.8 0 .733-.7 2.333-2.1 4.8h2.8m-5.2 15.8c.8 0 1.467-.267 2-.8.6-.533.9-1.2.9-2 0-.533-.133-1-.4-1.4L42 72.2h5.4c1.867 0 2.8-.9 2.8-2.7 0-1.8-.933-2.7-2.8-2.7H42l2.7-4.6c.333-.533.5-1.1.5-1.7 0-.667-.3-1.233-.9-1.7-.533-.533-1.167-.8-1.9-.8-1 0-1.767.467-2.3 1.4l-2.8 4.7-2.7-4.7c-.533-1-1.267-1.5-2.2-1.5-.8 0-1.5.3-2.1.9-.533.533-.8 1.167-.8 1.9 0 .467.133.967.4 1.5l2.7 4.6h-5.4c-1.8 0-2.7.9-2.7 2.7 0 1.8.9 2.7 2.7 2.7h5.4L29.9 77c-.333.533-.5 1.033-.5 1.5 0 .733.267 1.333.8 1.8.6.533 1.3.8 2.1.8 1 0 1.767-.467 2.3-1.4l2.7-4.7 2.8 4.7c.533 1 1.233 1.5 2.1 1.5m-8-14.7c.867-.867 1.9-1.3 3.1-1.3 1.2 0 2.233.433 3.1 1.3.867.8 1.3 1.8 1.3 3 0 1.333-.433 2.433-1.3 3.3-.8.8-1.833 1.2-3.1 1.2-1.267 0-2.333-.433-3.2-1.3-.8-.933-1.2-2-1.2-3.2 0-1.2.433-2.2 1.3-3m3.1 6c.867 0 1.567-.3 2.1-.9.6-.6.9-1.3.9-2.1s-.3-1.467-.9-2c-.533-.6-1.233-.9-2.1-.9s-1.567.3-2.1.9c-.533.533-.8 1.2-.8 2 0 .867.267 1.6.8 2.2.6.533 1.3.8 2.1.8m1.5-3c0 1-.5 1.5-1.5 1.5-.933 0-1.4-.5-1.4-1.5 0-.933.467-1.4 1.4-1.4 1 0 1.5.467 1.5 1.4m18.9-44c0 5.8-2 10.667-6 14.6-3.933 3.867-8.733 5.8-14.4 5.8-5.733 0-10.567-1.967-14.5-5.9-3.867-4-5.8-8.8-5.8-14.4 0-5.667 1.967-10.467 5.9-14.4 3.933-4 8.733-6 14.4-6 5.8 0 10.633 2 14.5 6 3.933 3.933 5.9 8.7 5.9 14.3m-1.5 0c0-5.267-1.833-9.733-5.5-13.4s-8.133-5.5-13.4-5.5c-5.267 0-9.733 1.867-13.4 5.6-3.6 3.667-5.4 8.1-5.4 13.3 0 5.4 1.833 9.9 5.5 13.5 3.667 3.6 8.1 5.4 13.3 5.4 5.333 0 9.8-1.833 13.4-5.5 3.667-3.667 5.5-8.133 5.5-13.4M37.3 8.9c4.8 0 8.767 1.633 11.9 4.9 3.2 3.267 4.8 7.167 4.8 11.7 0 4.8-1.633 8.8-4.9 12-3.2 3.2-7.133 4.8-11.8 4.8-4.733 0-8.7-1.633-11.9-4.9-3.2-3.333-4.8-7.3-4.8-11.9 0-4.733 1.633-8.667 4.9-11.8 3.333-3.2 7.267-4.8 11.8-4.8M26.5 36.4c3 2.933 6.6 4.4 10.8 4.4 4.2 0 7.8-1.467 10.8-4.4 3-2.933 4.5-6.567 4.5-10.9 0-4.2-1.5-7.767-4.5-10.7-2.933-3-6.533-4.5-10.8-4.5-4.333 0-7.967 1.5-10.9 4.5-2.867 2.933-4.3 6.5-4.3 10.7 0 4.333 1.467 7.967 4.4 10.9m20.9-15c1.267 0 2.3.4 3.1 1.2.8.8 1.2 1.833 1.2 3.1 0 1.2-.4 2.167-1.2 2.9-.733.733-1.767 1.1-3.1 1.1h-2.8c1.333 2.4 2 3.967 2 4.7 0 1.133-.433 2.133-1.3 3-.8.867-1.833 1.3-3.1 1.3-.333 0-.667-.033-1-.1-.333-.133-.633-.3-.9-.5s-.5-.4-.7-.6c-.2-.2-.433-.467-.7-.8-.2-.4-.367-.7-.5-.9l-.6-.9c-.267-.467-.433-.8-.5-1-1.2 2.2-2.133 3.533-2.8 4-.6.467-1.333.7-2.2.7-1.2 0-2.233-.4-3.1-1.2-.8-.8-1.2-1.767-1.2-2.9 0-.8.7-2.4 2.1-4.8h-2.9c-1.2 0-2.2-.4-3-1.2-.8-.8-1.2-1.8-1.2-3 0-1.267.367-2.267 1.1-3 .8-.733 1.833-1.1 3.1-1.1h2.9c-1.333-2.333-2-3.9-2-4.7 0-1.133.4-2.1 1.2-2.9.8-.867 1.833-1.3 3.1-1.3.467 0 .867.067 1.2.2.4.133.7.3.9.5.267.133.567.433.9.9.333.4.533.7.6.9.133.133.367.533.7 1.2.333.6.533.933.6 1 1.267-2.267 2.2-3.6 2.8-4 .6-.4 1.333-.6 2.2-.6 1.2 0 2.233.4 3.1 1.2.867.8 1.3 1.733 1.3 2.8 0 .733-.7 2.333-2.1 4.8h2.8m-5.2 15.8c.8 0 1.467-.267 2-.8.6-.533.9-1.2.9-2 0-.533-.133-1-.4-1.4L42 28.2h5.4c1.867 0 2.8-.9 2.8-2.7 0-1.8-.933-2.7-2.8-2.7H42l2.7-4.6c.333-.533.5-1.1.5-1.7 0-.667-.3-1.233-.9-1.7-.533-.533-1.167-.8-1.9-.8-1 0-1.767.467-2.3 1.4l-2.8 4.7-2.7-4.7c-.533-1-1.267-1.5-2.2-1.5-.8 0-1.5.3-2.1.9-.533.533-.8 1.167-.8 1.9 0 .467.133.967.4 1.5l2.7 4.6h-5.4c-1.8 0-2.7.9-2.7 2.7 0 1.8.9 2.7 2.7 2.7h5.4L29.9 33c-.333.533-.5 1.033-.5 1.5 0 .733.267 1.367.8 1.9.6.467 1.3.7 2.1.7 1 0 1.767-.467 2.3-1.4l2.7-4.7 2.8 4.7c.533 1 1.233 1.5 2.1 1.5m-8-14.7c.867-.867 1.9-1.3 3.1-1.3 1.2 0 2.233.433 3.1 1.3.867.8 1.3 1.8 1.3 3 0 1.333-.433 2.433-1.3 3.3-.8.8-1.833 1.2-3.1 1.2-1.267 0-2.333-.433-3.2-1.3-.8-.933-1.2-2-1.2-3.2 0-1.2.433-2.2 1.3-3m3.1 6c.867 0 1.567-.3 2.1-.9.6-.6.9-1.3.9-2.1s-.3-1.467-.9-2c-.533-.6-1.233-.9-2.1-.9s-1.567.3-2.1.9c-.533.533-.8 1.2-.8 2 0 .867.267 1.6.8 2.2.6.533 1.3.8 2.1.8m1.5-3c0 1-.5 1.5-1.5 1.5-.933 0-1.4-.5-1.4-1.5 0-.933.467-1.4 1.4-1.4 1 0 1.5.467 1.5 1.4" font-size="100" fill="#10106c" font-family="Droid Serif"/></svg>