<svg xmlns="http://www.w3.org/2000/svg" width="74.7" height="95.1"><path d="M74.7 87.9c0 4.8-2.267 7.2-6.8 7.2H6.8c-4.533 0-6.8-2.4-6.8-7.2V7.2C0 2.4 2.267 0 6.8 0h61.1c4.533 0 6.8 2.4 6.8 7.2v80.7m-1.7 0V7.2c0-3.667-1.7-5.5-5.1-5.5H6.8c-3.4 0-5.1 1.833-5.1 5.5v80.7c0 3.733 1.7 5.6 5.1 5.6h61.1c3.4 0 5.1-1.867 5.1-5.6" style="-inkscape-font-specification:Droid Serif" font-size="100" font-family="Droid Serif"/><path d="M4.965 93.073c-1.277-.457-2.028-1.098-2.564-2.19l-.503-1.036-.055-41.785c-.04-29.878 0-42.047.14-42.7.3-1.388 1.07-2.465 2.18-3.052l.95-.498h64.46l.87.43c.5.248 1.088.735 1.385 1.146 1.123 1.55 1.05-1.494 1.05 43.983 0 28.59-.06 41.757-.19 42.366-.286 1.336-1.018 2.35-2.144 2.973l-.97.534-31.96.04c-26.573.03-32.08-.004-32.642-.206z" fill="#fff"/><path d="M53.9 39.9c.933.067 2.267.533 4 1.4 1.733.867 2.6 1.767 2.6 2.7 0 .067-.167.467-.5 1.2-.267.667-.6 1.433-1 2.3-.333.867-.533 1.533-.6 2 0 .933-.067 2.433-.2 4.5-.133 2-.4 4.8-.8 8.4-.333 3.533-1 6.567-2 9.1-.933 2.467-2.1 3.7-3.5 3.7-.133 0-.3-.033-.5-.1l-5.8-7.8c1.2.267 2.5.4 3.9.4h1.4c.6-.4 1.1-.833 1.5-1.3.4-.467.7-1.1.9-1.9.267-.867.433-1.5.5-1.9.133-.4.267-1.2.4-2.4.133-1.267.2-2.033.2-2.3v-7.6c.067-.333.1-.633.1-.9v-.9c0-1.867-.4-3.267-1.2-4.2-.733-1-2.067-1.5-4-1.5-2.333 0-5.033.4-8.1 1.2.2.4.767.967 1.7 1.7l-5.1 6.1H45c-.6.667-2.133 1.233-4.6 1.7-2.467.467-3.833.767-4.1.9v3.7c.267 0 1.267-.133 3-.4 1.8-.267 2.833-.4 3.1-.4 1.733 0 3.2.5 4.4 1.5 0 .2-.167.5-.5.9-.333.4-.6.6-.8.6l-8.7.2c-.267.467-.5 1.067-.7 1.8-.133.667-.233 1.3-.3 1.9-.067.533-.133.833-.2.9 0 .2-.033.667-.1 1.4-.067.733-.167 1.3-.3 1.7-.067.333-.267.767-.6 1.3-.267.467-.633.833-1.1 1.1-.067-2.933-.3-5.933-.7-9-.067-.133-.2-.267-.4-.4-3.267.867-5.2 1.3-5.8 1.3-.533 0-1.167-.2-1.9-.6-.733-.467-1.133-.933-1.2-1.4 2.133-.333 5.3-.967 9.5-1.9v-3.8c-1.667.4-2.967.6-3.9.6-1.267 0-2.433-.3-3.5-.9 2.133-.267 5.1-.833 8.9-1.7.267-.067 1-.967 2.2-2.7 1.267-1.8 1.9-2.867 1.9-3.2v-2.2c-.267-.133-.667-.167-1.2-.1l-18 2.3v20.6c0 .267-.467 1.2-1.4 2.8-1.6-.467-2.4-1.833-2.4-4.1 0-.467.133-2.033.4-4.7.267-2.667.4-4.233.4-4.7 0-4.467-.533-7.833-1.6-10.1l-.6-1.2v-1.8H16c.133 0 .533.233 1.2.7.733.467 1.2.7 1.4.7 0-.133 4.033-.733 12.1-1.8 1.533-1.467 2.3-3.767 2.3-6.9-.2-.2-.767-.3-1.7-.3-.2 0-.7.033-1.5.1s-1.3.1-1.5.1c-1.4 0-2.767-.5-4.1-1.5.467-.067 1.233-.167 2.3-.3 1.067-.2 1.9-.367 2.5-.5.667-.133 1.367-.3 2.1-.5.8-.2 1.4-.467 1.8-.8.467-.333.767-.733.9-1.2.667-3.667 1-5.8 1-6.4 0-1.733-.3-3.467-.9-5.2h2.7c.333 0 .967.367 1.9 1.1 1 .733 1.6 1.233 1.8 1.5l-3 8.6c1.467 0 3.033-.2 4.7-.6 1.733-.4 2.633-.6 2.7-.6.333 0 1.5.3 3.5.9-.6 1.067-2.533 2-5.8 2.8-3.267.733-5.067 1.233-5.4 1.5-.533.4-.967.967-1.3 1.7-.333.667-1.133 2.567-2.4 5.7.733.2 1.467.3 2.2.3l18.4-2.9M30.8 51.6c-.533 0-1.2-.467-2-1.4-.733-1-1.1-1.7-1.1-2.1v-1.6h2.1c.667 0 1.2.467 1.6 1.4.467.867.7 1.7.7 2.5 0 .333-.033.567-.1.7-.4.333-.8.5-1.2.5" style="-inkscape-font-specification:Droid Serif" font-size="100" fill="#20208c" font-family="Droid Serif"/></svg>