<svg xmlns="http://www.w3.org/2000/svg" width="74.7" height="95.1"><path d="M74.7 87.9c0 4.8-2.267 7.2-6.8 7.2H6.8c-4.533 0-6.8-2.4-6.8-7.2V7.2C0 2.4 2.267 0 6.8 0h61.1c4.533 0 6.8 2.4 6.8 7.2v80.7m-1.7 0V7.2c0-3.667-1.7-5.5-5.1-5.5H6.8c-3.4 0-5.1 1.833-5.1 5.5v80.7c0 3.733 1.7 5.6 5.1 5.6h61.1c3.4 0 5.1-1.867 5.1-5.6" style="-inkscape-font-specification:Droid Serif" font-size="100" font-family="Droid Serif"/><path d="M5.893 93.337c-1.883-.332-2.902-1.07-3.595-2.6l-.423-.937V5.336l.41-.89c.502-1.09.978-1.616 1.91-2.12l.716-.383h64.824l.73.39c.404.216.984.68 1.29 1.03 1.19 1.35 1.113-1.835 1.062 44.568l-.046 42.05-.494 1.004c-.49.998-1.208 1.653-2.364 2.156-.433.19-6.55.236-32.053.254-17.337.012-31.72-.013-31.966-.056z" fill="#fff"/><path d="M48.7 13.857c-1.333 1-4.1 1.834-8.3 2.5-4.133.6-6.9.9-8.3.9-2 0-3.7-.466-5.1-1.4l18.7-3.9c.667.134 1.667.367 3 .7v1.2m-3.3 13c-2.733.134-5.1.334-7.1.6-1.933.2-3.4.4-4.4.6-.933.2-1.5.3-1.7.3-.8 0-2.2-.5-4.2-1.5l14.4-2.8c2.2.134 3.733.734 4.6 1.8-.667.667-1.2 1-1.6 1m6.9 8.5c1.867 0 3.333.4 4.4 1.2 1.133.734 1.7 1.5 1.7 2.3 0 .734-.6 1.134-1.8 1.2l-3-.5c-2-.4-4.633-.6-7.9-.6-2.867 0-5.8.1-8.8.3-2.933.2-5.133.4-6.6.6-1.4.2-3.367.5-5.9.9-2.533.4-3.833.6-3.9.6-1.6 0-3-.7-4.2-2.1l36-3.9" style="-inkscape-font-specification:Droid Serif" font-size="100" fill="#20208c" font-family="Droid Serif"/><path d="M50.5 49.68c.467 0 1.1.265 1.9.8.867.465 1.367.8 1.5 1v.8c-.333.332-.8.5-1.4.5-.333 0-1.167-.035-2.5-.1-1.333-.135-2.167-.2-2.5-.2-2.333 0-3.9.3-4.7.9l-3.4 3.5c.133-.268.5-1.368 1.1-3.3-.2-.2-.833-.3-1.9-.3-.6 0-2.167.1-4.7.3 0 .932-.267 2.3-.8 4.1l-.3-.9c-.267-.668-.567-1.268-.9-1.8-.267-.535-.533-.8-.8-.8-.6 0-1.9.2-3.9.6-1.933.4-3.2.6-3.8.6-1.133 0-2.233-.568-3.3-1.7l11-1.2-2.2-4.3h2.5c.067 0 .6.232 1.6.7 0 .8.233 2 .7 3.6.533-.068 2.933-.435 7.2-1.1.667-2.2 1.067-4.2 1.2-6 2.467 1.4 3.7 2.265 3.7 2.6l-1.6 2.5c.2.2.567.3 1.1.3.333 0 1.2-.168 2.6-.5 1.4-.4 2.267-.6 2.6-.6m-24.7 9.4c3.933-.2 7.2-.535 9.8-1 2.6-.468 4.467-.868 5.6-1.2 1.133-.335 2-.5 2.6-.5 1 0 2.333.832 4 2.5-.867 1.6-1.567 2.965-2.1 4.1-.533 1.065-.9 1.765-1.1 2.1-.133.332-.367.765-.7 1.3l-1.5 2.4c-.733-.668-1.433-1-2.1-1-1 0-2.167.265-3.5.8v2.2c.133.065.5.1 1.1.1.067 0 2.133-.2 6.2-.6 4.067-.468 6.167-.7 6.3-.7.667 0 2.067.7 4.2 2.1-.467.932-.833 2.432-1.1 4.5-.267 2.065-.7 4.032-1.3 5.9-.533 1.932-1.533 3.532-3 4.8-.8-1-2.4-2.8-4.8-5.4 2 .332 3.133.5 3.4.5 1.133 0 1.833-.6 2.1-1.8.267-1.135.4-3.5.4-7.1-.533-.735-1.433-1.1-2.7-1.1-4.4 0-8.1.432-11.1 1.3v2.7c.4.4.767.6 1.1.6.933 0 2-.3 3.2-.9-.333-.268-.5-.8-.5-1.6.8.065 1.767.532 2.9 1.4 1.133.8 1.7 1.6 1.7 2.4 0 1.065-.4 1.6-1.2 1.6-.333 0-.9-.435-1.7-1.3-.733-.8-1.167-1.235-1.3-1.3-6.8 2-10.267 3-10.4 3-.4 0-.833-.2-1.3-.6-.4-.4-.667-.835-.8-1.3 1.467-.2 3.6-.6 6.4-1.2v-2.4c-.067-.6-.5-.9-1.3-.9-3.4 0-6.033.265-7.9.8v4.4c.067 1.132.1 1.832.1 2.1.067.265.1.5.1.7.067.265.1.565.1.9 0 .132-.1.532-.3 1.2-.133.665-.2 1.1-.2 1.3 0 .265.067.465.2.6h-1.1c-.4 0-.633-.235-.7-.7-.4-5.535-.967-9.635-1.7-12.3.6.065 1.533.232 2.8.5l10-1.5.1-.2v-2.2c-.2-.2-.6-.3-1.2-.3-1.667 0-2.733.265-3.2.8-.667-.6-1.467-2.3-2.4-5.1-.933-2.868-1.667-4.668-2.2-5.4m14.2 7.3c.867 0 1.6-.635 2.2-1.9.667-1.268 1-2.535 1-3.8 0-.468-.133-1.068-.4-1.8h-5.9v2.5c.4.2.733.3 1 .3.2 0 .4-.035.6-.1.267-.068.467-.1.6-.1.8 0 1.367.4 1.7 1.2-.8.6-2.1 1.1-3.9 1.5v2.2H40m-5.3-6.8c-.267 0-.9.1-1.9.3-1 .2-1.633.3-1.9.3-.2 0-.633-.168-1.3-.5l1.2 7.8c1.667-.2 3-.468 4-.8v-2.3c-.467-.068-.933-.1-1.4-.1-.4 0-.767.032-1.1.1-.2-.2-.467-.5-.8-.9.067-.068 1.167-.435 3.3-1.1-.067-1.735-.1-2.668-.1-2.8" style="-inkscape-font-specification:Droid Serif" font-size="100" fill="#ba0000" font-family="Droid Serif"/></svg>