<svg xmlns="http://www.w3.org/2000/svg" width="74.7" height="95.1"><path d="M4.41 92.745c-.625-.272-1.428-1.03-1.785-1.682-.614-1.125-.653-3.388-.743-43.017-.075-32.994 0-42.12.357-43.2.28-.86.902-1.68 1.66-2.19l1.22-.816h64.43l1.213.816c.693.466 1.396 1.346 1.64 2.053.32.93.43 11.56.438 42.84.013 40.472-.006 41.65-.682 43.14-1.24 2.722.75 2.58-34.907 2.56-26.21-.01-31.905-.1-32.845-.51z" fill="#fff"/><path style="-inkscape-font-specification:Droid Serif" d="M54.4 37.85c.8 0 2.3.667 4.5 2s3.3 2.367 3.3 3.1c0 .267-.233.633-.7 1.1-.4.467-.967 1.533-1.7 3.2-.667 1.6-1.267 3.8-1.8 6.6-.867 5.133-1.6 8.567-2.2 10.3-.6 1.733-1.567 3.467-2.9 5.2-1.2 1.467-2.033 2.2-2.5 2.2-.6 0-1-.233-1.2-.7l-2.2-6.6c-.733-1.6-2.3-2.4-4.7-2.4-.733 0-7.7.567-20.9 1.7-.133.067-.267.233-.4.5-.067.2-.267.633-.6 1.3-.267.667-.7 1.4-1.3 2.2-.667-2.467-1.267-5.467-1.8-9-.533-3.533-1.133-6.467-1.8-8.8-.667-2.4-1.667-4.633-3-6.7l6.3.5h.2c1.133 0 4.033-.433 8.7-1.3v-7.2c0-.467-.233-1.2-.7-2.2-.4-1-.733-1.533-1-1.6 0-.067-.433-.133-1.3-.2-.8-.133-1.833-.367-3.1-.7-1.2-.4-2.167-1-2.9-1.8 3.2 0 7.7-.6 13.5-1.8l15.4-3.2c2.733 0 4.1.533 4.1 1.6 0 .467-.633 1-1.9 1.6-1.2.533-2.267.9-3.2 1.1-1.667.2-4.167.633-7.5 1.3.933 1.067 1.967 2.467 3.1 4.2l-1.9 6.3c.067.067.333.1.8.1l13.3-1.9m-17.1 2.6v-11.2l-9.1 1.4c1.933 1.333 2.9 2.3 2.9 2.9v7.8h1.5c.467 0 2.033-.3 4.7-.9m13.8 22.8c.933-1.2 1.767-3.633 2.5-7.3.8-3.667 1.2-6.8 1.2-9.4 0-2.467-.333-3.933-1-4.4-.533-.4-2.133-.6-4.8-.6h-9.1v7.2c1.2.667 2.033 1 2.5 1 .2 0 .633-.067 1.3-.2.733-.2 1.2-.3 1.4-.3 1.867 0 3.033.733 3.5 2.2-1.133.867-2.7 1.3-4.7 1.3-2.6 0-4.5-.5-5.7-1.5-1.133-1-1.7-2.733-1.7-5.2 0-1.267.1-2.467.3-3.6-1.267.267-3.267.533-6 .8-.333 2.067-.6 3.633-.8 4.7-.2 1-.567 2.2-1.1 3.6-.533 1.4-1.233 2.533-2.1 3.4-.8.867-1.833 1.567-3.1 2.1v-.6c.4-.667 1.167-2.367 2.3-5.1 1.133-2.733 1.7-4.3 1.7-4.7v-2.5l-8.7 1.4v.9c0 .133.1.767.3 1.9l.4 2.4c.4 4.267.667 7.8.8 10.6l23.4-2.4c.933 0 1.733.2 2.4.6.733.4 1.233.8 1.5 1.2.333.333.967 1.167 1.9 2.5h1.4" font-size="100" fill="#20208c" font-family="Droid Serif"/><path style="-inkscape-font-specification:Droid Serif" d="M74.7 87.9c0 4.8-2.267 7.2-6.8 7.2H6.8c-4.533 0-6.8-2.4-6.8-7.2V7.2C0 2.4 2.267 0 6.8 0h61.1c4.533 0 6.8 2.4 6.8 7.2v80.7m-1.7 0V7.2c0-3.667-1.7-5.5-5.1-5.5H6.8c-3.4 0-5.1 1.833-5.1 5.5v80.7c0 3.733 1.7 5.6 5.1 5.6h61.1c3.4 0 5.1-1.867 5.1-5.6" font-size="100" font-family="Droid Serif"/></svg>