<svg xmlns="http://www.w3.org/2000/svg" width="74.7" height="95.1"><path d="M5.73 93.19c-1.68-.288-2.717-1.076-3.416-2.592l-.41-.89V5.243l.41-.89c.502-1.088.977-1.616 1.91-2.118l.715-.384 32.114-.044c21.07-.03 32.345.015 32.782.133 1.018.273 1.92 1.06 2.466 2.145l.492.982v84.82l-.493 1.005c-.512 1.047-1.327 1.76-2.47 2.17-.467.167-7.83.223-31.946.244-17.237.015-31.708-.036-32.157-.113z" fill="#fff"/><path d="M50.92 11.92c.535 0 1.568.5 3.1 1.5 1.535 1 2.3 1.8 2.3 2.4 0 .068-.165.368-.5.9-.265.468-.632 1.035-1.1 1.7-.4.6-.665 1.1-.8 1.5-.065.668-.165 1.368-.3 2.1-.132.668-.4 1.9-.8 3.7-.4 1.8-.8 3.8-1.2 6-.932 3.6-2.432 6.3-4.5 8.1-.465-.332-.732-.632-.8-.9-.732-3-1.3-4.7-1.7-5.1-.4-.465-1.6-.7-3.6-.7l-14.9 1.4c-.465 0-1.165-.132-2.1-.4-.265.468-.5 1.1-.7 1.9h-.6c-.332 0-.565-.2-.7-.6-.065-.4-.232-1.765-.5-4.1-.4-3.4-.8-6.565-1.2-9.5-.132-1-.365-1.9-.7-2.7-.265-.865-.6-1.632-1-2.3-.332-.732-.532-1.2-.6-1.4 0-.732.2-1.1.6-1.1.068 0 .6.135 1.6.4 1.068.2 1.735.3 2 .3l28.7-3.1m-4.2 21.7c.6-.6 1.4-2.832 2.4-6.7 1-3.865 1.5-6.9 1.5-9.1 0-1.265-.3-2.1-.9-2.5-.532-.4-1.565-.6-3.1-.6l-7.9.7c.6.335 1.4.9 2.4 1.7-.532 2.8-.8 4.468-.8 5 0 .868.168 1.468.5 1.8.4.268 1.068.4 2 .4.2 0 .635-.065 1.3-.2.735-.132 1.2-.2 1.4-.2 1.268 0 2.168.635 2.7 1.9-.865.868-2.532 1.3-5 1.3-3.665 0-5.5-1.665-5.5-5 0-.265.035-.9.1-1.9.068-1.065.1-1.732.1-2 0-1.865-.8-2.8-2.4-2.8-.065 0-.632.068-1.7.2-1 .068-1.832.1-2.5.1.135.268.435.668.9 1.2.535.535.8 1.1.8 1.7 0 .935-.6 2.7-1.8 5.3-1.2 2.6-2.665 4.3-4.4 5.1l-1.1.7c-.2 0-.3-.065-.3-.2 0-.2.068-.4.2-.6 3-3.4 4.5-6.865 4.5-10.4 0-.132-.032-.465-.1-1-.065-.532-.1-.932-.1-1.2l.2-.2c-.932 0-3.632.235-8.1.7l1.7 15.9h3.7l15.2-2.2c.735.068 2.1 1.1 4.1 3.1" style="-inkscape-font-specification:Droid Serif" font-size="100" fill="#20208c" font-family="Droid Serif"/><path d="M50.5 49.5c.467 0 1.1.267 1.9.8.867.467 1.367.8 1.5 1v.8c-.333.333-.8.5-1.4.5-.333 0-1.167-.033-2.5-.1-1.333-.133-2.167-.2-2.5-.2-2.333 0-3.9.3-4.7.9l-3.4 3.5c.133-.267.5-1.367 1.1-3.3-.2-.2-.833-.3-1.9-.3-.6 0-2.167.1-4.7.3 0 .933-.267 2.3-.8 4.1l-.3-.9c-.267-.667-.567-1.267-.9-1.8-.267-.533-.533-.8-.8-.8-.6 0-1.9.2-3.9.6-1.933.4-3.2.6-3.8.6-1.133 0-2.233-.567-3.3-1.7l11-1.2-2.2-4.3h2.5c.067 0 .6.233 1.6.7 0 .8.233 2 .7 3.6.533-.067 2.933-.433 7.2-1.1.667-2.2 1.067-4.2 1.2-6 2.467 1.4 3.7 2.267 3.7 2.6l-1.6 2.5c.2.2.567.3 1.1.3.333 0 1.2-.167 2.6-.5 1.4-.4 2.267-.6 2.6-.6m-24.7 9.4c3.933-.2 7.2-.533 9.8-1 2.6-.467 4.467-.867 5.6-1.2 1.133-.333 2-.5 2.6-.5 1 0 2.333.833 4 2.5-.867 1.6-1.567 2.967-2.1 4.1-.533 1.067-.9 1.767-1.1 2.1-.133.333-.367.767-.7 1.3l-1.5 2.4c-.733-.667-1.433-1-2.1-1-1 0-2.167.267-3.5.8v2.2c.133.067.5.1 1.1.1.067 0 2.133-.2 6.2-.6 4.067-.467 6.167-.7 6.3-.7.667 0 2.067.7 4.2 2.1-.467.933-.833 2.433-1.1 4.5-.267 2.067-.7 4.033-1.3 5.9-.533 1.933-1.533 3.533-3 4.8-.8-1-2.4-2.8-4.8-5.4 2 .333 3.133.5 3.4.5 1.133 0 1.833-.6 2.1-1.8.267-1.133.4-3.5.4-7.1-.533-.733-1.433-1.1-2.7-1.1-4.4 0-8.1.433-11.1 1.3v2.7c.4.4.767.6 1.1.6.933 0 2-.3 3.2-.9-.333-.267-.5-.8-.5-1.6.8.067 1.767.533 2.9 1.4 1.133.8 1.7 1.6 1.7 2.4 0 1.067-.4 1.6-1.2 1.6-.333 0-.9-.433-1.7-1.3-.733-.8-1.167-1.233-1.3-1.3-6.8 2-10.267 3-10.4 3-.4 0-.833-.2-1.3-.6-.4-.4-.667-.833-.8-1.3 1.467-.2 3.6-.6 6.4-1.2v-2.4c-.067-.6-.5-.9-1.3-.9-3.4 0-6.033.267-7.9.8v4.4c.067 1.133.1 1.833.1 2.1.067.267.1.5.1.7.067.267.1.567.1.9 0 .133-.1.533-.3 1.2-.133.667-.2 1.1-.2 1.3 0 .267.067.467.2.6h-1.1c-.4 0-.633-.233-.7-.7-.4-5.533-.967-9.633-1.7-12.3.6.067 1.533.233 2.8.5l10-1.5.1-.2v-2.2c-.2-.2-.6-.3-1.2-.3-1.667 0-2.733.267-3.2.8-.667-.6-1.467-2.3-2.4-5.1-.933-2.867-1.667-4.667-2.2-5.4M40 66.2c.867 0 1.6-.633 2.2-1.9.667-1.267 1-2.533 1-3.8 0-.467-.133-1.067-.4-1.8h-5.9v2.5c.4.2.733.3 1 .3.2 0 .4-.033.6-.1.267-.067.467-.1.6-.1.8 0 1.367.4 1.7 1.2-.8.6-2.1 1.1-3.9 1.5v2.2H40m-5.3-6.8c-.267 0-.9.1-1.9.3-1 .2-1.633.3-1.9.3-.2 0-.633-.167-1.3-.5l1.2 7.8c1.667-.2 3-.467 4-.8v-2.3c-.467-.067-.933-.1-1.4-.1-.4 0-.767.033-1.1.1-.2-.2-.467-.5-.8-.9.067-.067 1.167-.433 3.3-1.1-.067-1.733-.1-2.667-.1-2.8" style="-inkscape-font-specification:Droid Serif" font-size="100" fill="#ba0000" font-family="Droid Serif"/><path d="M74.7 87.9c0 4.8-2.267 7.2-6.8 7.2H6.8c-4.533 0-6.8-2.4-6.8-7.2V7.2C0 2.4 2.267 0 6.8 0h61.1c4.533 0 6.8 2.4 6.8 7.2v80.7m-1.7 0V7.2c0-3.667-1.7-5.5-5.1-5.5H6.8c-3.4 0-5.1 1.833-5.1 5.5v80.7c0 3.733 1.7 5.6 5.1 5.6h61.1c3.4 0 5.1-1.867 5.1-5.6" style="-inkscape-font-specification:Droid Serif" font-size="100" font-family="Droid Serif"/></svg>