<svg xmlns="http://www.w3.org/2000/svg" width="74.7" height="95.1"><path d="M74.7 87.9c0 4.8-2.267 7.2-6.8 7.2H6.8c-4.533 0-6.8-2.4-6.8-7.2V7.2C0 2.4 2.267 0 6.8 0h61.1c4.533 0 6.8 2.4 6.8 7.2v80.7m-1.7 0V7.2c0-3.667-1.7-5.5-5.1-5.5H6.8c-3.4 0-5.1 1.833-5.1 5.5v80.7c0 3.733 1.7 5.6 5.1 5.6h61.1c3.4 0 5.1-1.867 5.1-5.6" style="-inkscape-font-specification:Droid Serif" font-size="100" font-family="Droid Serif"/><path d="M4.482 92.844c-.624-.272-1.427-.94-1.786-1.488-.62-.947-.657-3.036-.76-42.975-.07-28.094.017-42.4.263-43.25.2-.7.783-1.663 1.293-2.142l.928-.87 32.59-.096 32.59-.096 1.208.814c2.224 1.497 2.147-.217 2.044 45.624-.087 38.437-.14 41.692-.703 42.72-1.31 2.387.32 2.28-34.805 2.266-26.18-.01-31.93-.1-32.865-.506z" fill="#fff"/><path d="M65.55 63.1c0 3.867-1.333 7.1-4 9.7-2.6 2.533-5.733 3.8-9.4 3.8-3.8 0-7-1.3-9.6-3.9-2.6-2.667-3.9-5.867-3.9-9.6 0-3.733 1.3-6.9 3.9-9.5 2.667-2.6 5.867-3.9 9.6-3.9 3.8 0 6.967 1.333 9.5 4 2.6 2.6 3.9 5.733 3.9 9.4m-1 0c0-3.467-1.233-6.4-3.7-8.8-2.4-2.4-5.333-3.6-8.8-3.6-3.4 0-6.333 1.2-8.8 3.6-2.4 2.4-3.6 5.333-3.6 8.8 0 3.533 1.2 6.5 3.6 8.9 2.467 2.4 5.433 3.6 8.9 3.6 3.467 0 6.4-1.2 8.8-3.6 2.4-2.467 3.6-5.433 3.6-8.9m-12.4-10.9c3.133 0 5.733 1.067 7.8 3.2 2.133 2.133 3.2 4.7 3.2 7.7 0 3.133-1.067 5.767-3.2 7.9s-4.733 3.2-7.8 3.2c-3.133 0-5.767-1.067-7.9-3.2-2.067-2.2-3.1-4.833-3.1-7.9 0-3.133 1.067-5.733 3.2-7.8s4.733-3.1 7.8-3.1m-7.2 18.1c2 1.933 4.367 2.9 7.1 2.9 2.8 0 5.167-.967 7.1-2.9 2-1.933 3-4.333 3-7.2 0-2.733-.967-5.067-2.9-7-1.933-2-4.3-3-7.1-3-2.867 0-5.267 1-7.2 3-1.933 1.933-2.9 4.267-2.9 7 0 2.867.967 5.267 2.9 7.2m13.8-9.9c.867 0 1.567.267 2.1.8.533.533.8 1.2.8 2s-.267 1.467-.8 2c-.533.467-1.233.7-2.1.7h-1.8c.867 1.533 1.3 2.567 1.3 3.1 0 .733-.267 1.4-.8 2-.533.533-1.233.8-2.1.8h-.7c-.2-.067-.4-.167-.6-.3-.133-.2-.267-.333-.4-.4-.133-.133-.3-.333-.5-.6-.133-.267-.267-.467-.4-.6l-.3-.6c-.133-.333-.233-.533-.3-.6-.8 1.467-1.433 2.333-1.9 2.6-.4.333-.867.5-1.4.5-.8 0-1.5-.267-2.1-.8-.533-.533-.8-1.167-.8-1.9 0-.533.467-1.6 1.4-3.2h-1.9c-.8 0-1.467-.267-2-.8-.533-.533-.8-1.2-.8-2s.233-1.433.7-1.9c.533-.533 1.233-.8 2.1-.8h1.9c-.867-1.533-1.3-2.567-1.3-3.1 0-.733.267-1.367.8-1.9.533-.6 1.2-.9 2-.9.333 0 .6.067.8.2.267.067.467.167.6.3.2.067.4.267.6.6.2.267.333.467.4.6.067.067.2.3.4.7.267.4.433.633.5.7.8-1.467 1.4-2.333 1.8-2.6.4-.267.9-.4 1.5-.4.8 0 1.467.267 2 .8.533.533.8 1.167.8 1.9 0 .467-.433 1.5-1.3 3.1h1.8m-3.4 10.4c.533 0 .967-.167 1.3-.5.4-.333.6-.767.6-1.3 0-.333-.067-.667-.2-1l-1.8-3.1h3.5c1.267 0 1.9-.567 1.9-1.7 0-1.2-.633-1.8-1.9-1.8h-3.5l1.8-3.1c.133-.4.2-.767.2-1.1 0-.467-.167-.867-.5-1.2-.333-.333-.767-.5-1.3-.5-.667 0-1.167.333-1.5 1l-1.8 3.1-1.8-3.1c-.4-.667-.9-1-1.5-1-.533 0-1 .2-1.4.6-.333.333-.5.733-.5 1.2 0 .333.1.667.3 1l1.8 3.1h-3.6c-1.2 0-1.8.6-1.8 1.8 0 1.133.6 1.7 1.8 1.7h3.6l-1.8 3.1c-.2.4-.3.767-.3 1.1 0 .467.167.867.5 1.2.4.333.833.5 1.3.5.667 0 1.2-.333 1.6-1l1.8-3 1.8 3c.333.667.8 1 1.4 1m-5.3-9.7c.6-.533 1.267-.8 2-.8.8 0 1.5.267 2.1.8.6.533.9 1.2.9 2 0 .867-.3 1.6-.9 2.2-.533.533-1.233.8-2.1.8-.8 0-1.467-.3-2-.9-.533-.6-.8-1.3-.8-2.1s.267-1.467.8-2m2.1 4c.533 0 .967-.2 1.3-.6.4-.4.6-.867.6-1.4 0-.533-.2-.967-.6-1.3-.333-.4-.8-.6-1.4-.6-.533 0-1 .2-1.4.6-.333.333-.5.767-.5 1.3 0 .6.2 1.1.6 1.5.4.333.867.5 1.4.5m.9-2c0 .667-.3 1-.9 1-.667 0-1-.333-1-1 0-.6.333-.9 1-.9.6 0 .9.3.9.9m12.5-31.2c0 3.867-1.333 7.1-4 9.7-2.6 2.533-5.733 3.8-9.4 3.8-3.8 0-7-1.3-9.6-3.9-2.6-2.667-3.9-5.867-3.9-9.6 0-3.733 1.3-6.9 3.9-9.5 2.667-2.6 5.867-3.9 9.6-3.9 3.8 0 6.967 1.333 9.5 4 2.6 2.6 3.9 5.733 3.9 9.4m-1 0c0-3.467-1.233-6.4-3.7-8.8-2.4-2.4-5.333-3.6-8.8-3.6-3.4 0-6.333 1.2-8.8 3.6-2.4 2.4-3.6 5.333-3.6 8.8 0 3.533 1.2 6.5 3.6 8.9 2.467 2.4 5.433 3.6 8.9 3.6 3.467 0 6.4-1.2 8.8-3.6 2.4-2.467 3.6-5.433 3.6-8.9M52.15 21c3.133 0 5.733 1.067 7.8 3.2 2.133 2.133 3.2 4.7 3.2 7.7 0 3.133-1.067 5.767-3.2 7.9s-4.733 3.2-7.8 3.2c-3.133 0-5.767-1.067-7.9-3.2-2.067-2.2-3.1-4.833-3.1-7.9 0-3.133 1.067-5.733 3.2-7.8s4.733-3.1 7.8-3.1m-7.2 18.1c2 1.933 4.367 2.9 7.1 2.9 2.8 0 5.167-.967 7.1-2.9 2-1.933 3-4.333 3-7.2 0-2.733-.967-5.067-2.9-7-1.933-2-4.3-3-7.1-3-2.867 0-5.267 1-7.2 3-1.933 1.933-2.9 4.267-2.9 7 0 2.867.967 5.267 2.9 7.2m13.8-9.9c.867 0 1.567.267 2.1.8.533.533.8 1.2.8 2s-.267 1.467-.8 2c-.533.467-1.233.7-2.1.7h-1.8c.867 1.533 1.3 2.567 1.3 3.1 0 .733-.267 1.4-.8 2-.533.533-1.233.8-2.1.8h-.7c-.2-.067-.4-.167-.6-.3-.133-.2-.267-.333-.4-.4-.133-.133-.3-.333-.5-.6-.133-.267-.267-.467-.4-.6l-.3-.6c-.133-.333-.233-.533-.3-.6-.8 1.467-1.433 2.333-1.9 2.6-.4.333-.867.5-1.4.5-.8 0-1.5-.267-2.1-.8-.533-.533-.8-1.167-.8-1.9 0-.533.467-1.6 1.4-3.2h-1.9c-.8 0-1.467-.267-2-.8-.533-.533-.8-1.2-.8-2s.233-1.433.7-1.9c.533-.533 1.233-.8 2.1-.8h1.9c-.867-1.533-1.3-2.567-1.3-3.1 0-.733.267-1.367.8-1.9.533-.6 1.2-.9 2-.9.333 0 .6.067.8.2.267.067.467.167.6.3.2.067.4.267.6.6.2.267.333.467.4.6.067.067.2.3.4.7.267.4.433.633.5.7.8-1.467 1.4-2.333 1.8-2.6.4-.267.9-.4 1.5-.4.8 0 1.467.267 2 .8.533.533.8 1.167.8 1.9 0 .467-.433 1.5-1.3 3.1h1.8m-3.4 10.4c.533 0 .967-.167 1.3-.5.4-.333.6-.767.6-1.3 0-.333-.067-.667-.2-1l-1.8-3.1h3.5c1.267 0 1.9-.567 1.9-1.7 0-1.2-.633-1.8-1.9-1.8h-3.5l1.8-3.1c.133-.4.2-.767.2-1.1 0-.467-.167-.867-.5-1.2-.333-.333-.767-.5-1.3-.5-.667 0-1.167.333-1.5 1l-1.8 3.1-1.8-3.1c-.4-.667-.9-1-1.5-1-.533 0-1 .2-1.4.6-.333.333-.5.733-.5 1.2 0 .333.1.667.3 1l1.8 3.1h-3.6c-1.2 0-1.8.6-1.8 1.8 0 1.133.6 1.7 1.8 1.7h3.6l-1.8 3.1c-.2.4-.3.767-.3 1.1 0 .467.167.867.5 1.2.4.333.833.5 1.3.5.667 0 1.2-.333 1.6-1l1.8-3 1.8 3c.333.667.8 1 1.4 1m-5.3-9.7c.6-.533 1.267-.8 2-.8.8 0 1.5.267 2.1.8.6.533.9 1.2.9 2 0 .867-.3 1.6-.9 2.2-.533.533-1.233.8-2.1.8-.8 0-1.467-.3-2-.9-.533-.6-.8-1.3-.8-2.1s.267-1.467.8-2m2.1 4c.533 0 .967-.2 1.3-.6.4-.4.6-.867.6-1.4 0-.533-.2-.967-.6-1.3-.333-.4-.8-.6-1.4-.6-.533 0-1 .2-1.4.6-.333.333-.5.767-.5 1.3 0 .6.2 1.1.6 1.5.4.333.867.5 1.4.5m.9-2c0 .667-.3 1-.9 1-.667 0-1-.333-1-1 0-.6.333-.9 1-.9.6 0 .9.3.9.9m-17 31.2c0 3.867-1.333 7.1-4 9.7-2.6 2.533-5.733 3.8-9.4 3.8-3.8 0-7-1.3-9.6-3.9-2.6-2.667-3.9-5.867-3.9-9.6 0-3.733 1.3-6.9 3.9-9.5 2.667-2.6 5.867-3.9 9.6-3.9 3.8 0 6.967 1.333 9.5 4 2.6 2.6 3.9 5.733 3.9 9.4m-1 0c0-3.467-1.233-6.4-3.7-8.8-2.4-2.4-5.333-3.6-8.8-3.6-3.4 0-6.333 1.2-8.8 3.6-2.4 2.4-3.6 5.333-3.6 8.8 0 3.533 1.2 6.5 3.6 8.9 2.467 2.4 5.433 3.6 8.9 3.6 3.467 0 6.4-1.2 8.8-3.6 2.4-2.467 3.6-5.433 3.6-8.9m-12.4-10.9c3.133 0 5.733 1.067 7.8 3.2 2.133 2.133 3.2 4.7 3.2 7.7 0 3.133-1.067 5.767-3.2 7.9s-4.733 3.2-7.8 3.2c-3.133 0-5.767-1.067-7.9-3.2-2.067-2.2-3.1-4.833-3.1-7.9 0-3.133 1.067-5.733 3.2-7.8s4.733-3.1 7.8-3.1m-7.2 18.1c2 1.933 4.367 2.9 7.1 2.9 2.8 0 5.167-.967 7.1-2.9 2-1.933 3-4.333 3-7.2 0-2.733-.967-5.067-2.9-7-1.933-2-4.3-3-7.1-3-2.867 0-5.267 1-7.2 3-1.933 1.933-2.9 4.267-2.9 7 0 2.867.967 5.267 2.9 7.2m13.8-9.9c.867 0 1.567.267 2.1.8.533.533.8 1.2.8 2s-.267 1.467-.8 2c-.533.467-1.233.7-2.1.7h-1.8c.867 1.533 1.3 2.567 1.3 3.1 0 .733-.267 1.4-.8 2-.533.533-1.233.8-2.1.8h-.7c-.2-.067-.4-.167-.6-.3-.133-.2-.267-.333-.4-.4-.133-.133-.3-.333-.5-.6-.133-.267-.267-.467-.4-.6l-.3-.6c-.133-.333-.233-.533-.3-.6-.8 1.467-1.433 2.333-1.9 2.6-.4.333-.867.5-1.4.5-.8 0-1.5-.267-2.1-.8-.533-.533-.8-1.167-.8-1.9 0-.533.467-1.6 1.4-3.2h-1.9c-.8 0-1.467-.267-2-.8-.533-.533-.8-1.2-.8-2s.233-1.433.7-1.9c.533-.533 1.233-.8 2.1-.8h1.9c-.867-1.533-1.3-2.567-1.3-3.1 0-.733.267-1.367.8-1.9.533-.6 1.2-.9 2-.9.333 0 .6.067.8.2.267.067.467.167.6.3.2.067.4.267.6.6.2.267.333.467.4.6.067.067.2.3.4.7.267.4.433.633.5.7.8-1.467 1.4-2.333 1.8-2.6.4-.267.9-.4 1.5-.4.8 0 1.467.267 2 .8.533.533.8 1.167.8 1.9 0 .467-.433 1.5-1.3 3.1h1.8m-3.4 10.4c.533 0 .967-.167 1.3-.5.4-.333.6-.767.6-1.3 0-.333-.067-.667-.2-1l-1.8-3.1h3.5c1.267 0 1.9-.567 1.9-1.7 0-1.2-.633-1.8-1.9-1.8h-3.5l1.8-3.1c.133-.4.2-.767.2-1.1 0-.467-.167-.867-.5-1.2-.333-.333-.767-.5-1.3-.5-.667 0-1.167.333-1.5 1l-1.8 3.1-1.8-3.1c-.4-.667-.9-1-1.5-1-.533 0-1 .2-1.4.6-.333.333-.5.733-.5 1.2 0 .333.1.667.3 1l1.8 3.1h-3.6c-1.2 0-1.8.6-1.8 1.8 0 1.133.6 1.7 1.8 1.7h3.6l-1.8 3.1c-.2.4-.3.767-.3 1.1 0 .467.167.867.5 1.2.4.333.833.5 1.3.5.667 0 1.2-.333 1.6-1l1.8-3 1.8 3c.333.667.8 1 1.4 1m-5.3-9.7c.6-.533 1.267-.8 2-.8.8 0 1.5.267 2.1.8.6.533.9 1.2.9 2 0 .867-.3 1.6-.9 2.2-.533.533-1.233.8-2.1.8-.8 0-1.467-.3-2-.9-.533-.6-.8-1.3-.8-2.1s.267-1.467.8-2m2.1 4c.533 0 .967-.2 1.3-.6.4-.4.6-.867.6-1.4 0-.533-.2-.967-.6-1.3-.333-.4-.8-.6-1.4-.6-.533 0-1 .2-1.4.6-.333.333-.5.767-.5 1.3 0 .6.2 1.1.6 1.5.4.333.867.5 1.4.5m.9-2c0 .667-.3 1-.9 1-.667 0-1-.333-1-1 0-.6.333-.9 1-.9.6 0 .9.3.9.9m12.5-31.2c0 3.867-1.333 7.1-4 9.7-2.6 2.533-5.733 3.8-9.4 3.8-3.8 0-7-1.3-9.6-3.9-2.6-2.667-3.9-5.867-3.9-9.6 0-3.733 1.3-6.9 3.9-9.5 2.667-2.6 5.867-3.9 9.6-3.9 3.8 0 6.967 1.333 9.5 4 2.6 2.6 3.9 5.733 3.9 9.4m-1 0c0-3.467-1.233-6.4-3.7-8.8-2.4-2.4-5.333-3.6-8.8-3.6-3.4 0-6.333 1.2-8.8 3.6-2.4 2.4-3.6 5.333-3.6 8.8 0 3.533 1.2 6.5 3.6 8.9 2.467 2.4 5.433 3.6 8.9 3.6 3.467 0 6.4-1.2 8.8-3.6 2.4-2.467 3.6-5.433 3.6-8.9M22.65 21c3.133 0 5.733 1.067 7.8 3.2 2.133 2.133 3.2 4.7 3.2 7.7 0 3.133-1.067 5.767-3.2 7.9s-4.733 3.2-7.8 3.2c-3.133 0-5.767-1.067-7.9-3.2-2.067-2.2-3.1-4.833-3.1-7.9 0-3.133 1.067-5.733 3.2-7.8s4.733-3.1 7.8-3.1m-7.2 18.1c2 1.933 4.367 2.9 7.1 2.9 2.8 0 5.167-.967 7.1-2.9 2-1.933 3-4.333 3-7.2 0-2.733-.967-5.067-2.9-7-1.933-2-4.3-3-7.1-3-2.867 0-5.267 1-7.2 3-1.933 1.933-2.9 4.267-2.9 7 0 2.867.967 5.267 2.9 7.2m13.8-9.9c.867 0 1.567.267 2.1.8.533.533.8 1.2.8 2s-.267 1.467-.8 2c-.533.467-1.233.7-2.1.7h-1.8c.867 1.533 1.3 2.567 1.3 3.1 0 .733-.267 1.4-.8 2-.533.533-1.233.8-2.1.8h-.7c-.2-.067-.4-.167-.6-.3-.133-.2-.267-.333-.4-.4-.133-.133-.3-.333-.5-.6-.133-.267-.267-.467-.4-.6l-.3-.6c-.133-.333-.233-.533-.3-.6-.8 1.467-1.433 2.333-1.9 2.6-.4.333-.867.5-1.4.5-.8 0-1.5-.267-2.1-.8-.533-.533-.8-1.167-.8-1.9 0-.533.467-1.6 1.4-3.2h-1.9c-.8 0-1.467-.267-2-.8-.533-.533-.8-1.2-.8-2s.233-1.433.7-1.9c.533-.533 1.233-.8 2.1-.8h1.9c-.867-1.533-1.3-2.567-1.3-3.1 0-.733.267-1.367.8-1.9.533-.6 1.2-.9 2-.9.333 0 .6.067.8.2.267.067.467.167.6.3.2.067.4.267.6.6.2.267.333.467.4.6.067.067.2.3.4.7.267.4.433.633.5.7.8-1.467 1.4-2.333 1.8-2.6.4-.267.9-.4 1.5-.4.8 0 1.467.267 2 .8.533.533.8 1.167.8 1.9 0 .467-.433 1.5-1.3 3.1h1.8m-3.4 10.4c.533 0 .967-.167 1.3-.5.4-.333.6-.767.6-1.3 0-.333-.067-.667-.2-1l-1.8-3.1h3.5c1.267 0 1.9-.567 1.9-1.7 0-1.2-.633-1.8-1.9-1.8h-3.5l1.8-3.1c.133-.4.2-.767.2-1.1 0-.467-.167-.867-.5-1.2-.333-.333-.767-.5-1.3-.5-.667 0-1.167.333-1.5 1l-1.8 3.1-1.8-3.1c-.4-.667-.9-1-1.5-1-.533 0-1 .2-1.4.6-.333.333-.5.733-.5 1.2 0 .333.1.667.3 1l1.8 3.1h-3.6c-1.2 0-1.8.6-1.8 1.8 0 1.133.6 1.7 1.8 1.7h3.6l-1.8 3.1c-.2.4-.3.767-.3 1.1 0 .467.167.867.5 1.2.4.333.833.5 1.3.5.667 0 1.2-.333 1.6-1l1.8-3 1.8 3c.333.667.8 1 1.4 1m-5.3-9.7c.6-.533 1.267-.8 2-.8.8 0 1.5.267 2.1.8.6.533.9 1.2.9 2 0 .867-.3 1.6-.9 2.2-.533.533-1.233.8-2.1.8-.8 0-1.467-.3-2-.9-.533-.6-.8-1.3-.8-2.1s.267-1.467.8-2m2.1 4c.533 0 .967-.2 1.3-.6.4-.4.6-.867.6-1.4 0-.533-.2-.967-.6-1.3-.333-.4-.8-.6-1.4-.6-.533 0-1 .2-1.4.6-.333.333-.5.767-.5 1.3 0 .6.2 1.1.6 1.5.4.333.867.5 1.4.5m.9-2c0 .667-.3 1-.9 1-.667 0-1-.333-1-1 0-.6.333-.9 1-.9.6 0 .9.3.9.9" style="-inkscape-font-specification:Droid Serif" font-size="100" fill="#10106c" font-family="Droid Serif"/></svg>