<svg xmlns="http://www.w3.org/2000/svg" width="74.7" height="95.1"><path d="M74.7 87.9c0 4.8-2.267 7.2-6.8 7.2H6.8c-4.533 0-6.8-2.4-6.8-7.2V7.2C0 2.4 2.267 0 6.8 0h61.1c4.533 0 6.8 2.4 6.8 7.2v80.7m-1.7 0V7.2c0-3.667-1.7-5.5-5.1-5.5H6.8c-3.4 0-5.1 1.833-5.1 5.5v80.7c0 3.733 1.7 5.6 5.1 5.6h61.1c3.4 0 5.1-1.867 5.1-5.6" style="-inkscape-font-specification:Droid Serif" font-size="100" font-family="Droid Serif"/><path d="M4.215 92.743c-.81-.428-1.278-.918-1.744-1.824l-.635-1.24V5.57l.632-1.263c.483-.97.895-1.398 1.758-1.833L5.35 1.91h32.027c26.478 0 32.17.06 32.85.344 1.19.497 2.11 1.725 2.44 3.252.207.967.264 12.63.207 42.87l-.077 41.543-.632 1.134c-.442.796-.968 1.306-1.758 1.705l-1.127.57H5.322l-1.107-.588z" fill="#fff"/><path d="M61.9 84.65c-1.667-.133-3.333-.2-5-.2-1.667 0-3.3.067-4.9.2.133-5.6.2-11.167.2-16.7 0-5.533-.067-11.067-.2-16.6 1.667.133 3.3.2 4.9.2 1.667 0 3.333-.067 5-.2-.133 5.533-.2 11.067-.2 16.6 0 5.6.067 11.167.2 16.7m-2-31.2H54c.067 4 .1 7.9.1 11.7h5.7c0-3.8.033-7.7.1-11.7m-.1 15.5v-2h-5.7v2h5.7m.1 13.6c-.067-4.267-.1-8.167-.1-11.7h-5.7c0 3.667-.033 7.567-.1 11.7 1-.067 1.967-.1 2.9-.1 1 0 2 .033 3 .1m2-38.8c-1.667-.133-3.333-.2-5-.2-1.667 0-3.3.067-4.9.2.133-5.6.2-11.167.2-16.7 0-5.533-.067-11.067-.2-16.6 1.667.133 3.3.2 4.9.2 1.667 0 3.333-.067 5-.2-.133 5.533-.2 11.067-.2 16.6 0 5.6.067 11.167.2 16.7m-2-31.2H54c.067 4 .1 7.9.1 11.7h5.7c0-3.8.033-7.7.1-11.7m-.1 15.5v-2h-5.7v2h5.7m.1 13.6c-.067-4.267-.1-8.167-.1-11.7h-5.7c0 3.667-.033 7.567-.1 11.7 1-.067 1.967-.1 2.9-.1 1 0 2 .033 3 .1m-37.2 43c-1.667-.133-3.333-.2-5-.2-1.667 0-3.3.067-4.9.2.133-5.6.2-11.167.2-16.7 0-5.533-.067-11.067-.2-16.6 1.667.133 3.3.2 4.9.2 1.667 0 3.333-.067 5-.2-.133 5.533-.2 11.067-.2 16.6 0 5.6.067 11.167.2 16.7m-2-31.2h-5.9c.067 4 .1 7.9.1 11.7h5.7c0-3.8.033-7.7.1-11.7m-.1 15.5v-2h-5.7v2h5.7m.1 13.6c-.067-4.267-.1-8.167-.1-11.7h-5.7c0 3.667-.033 7.567-.1 11.7 1-.067 1.967-.1 2.9-.1 1 0 2 .033 3 .1m2-38.8c-1.667-.133-3.333-.2-5-.2-1.667 0-3.3.067-4.9.2.133-5.6.2-11.167.2-16.7 0-5.533-.067-11.067-.2-16.6 1.667.133 3.3.2 4.9.2 1.667 0 3.333-.067 5-.2-.133 5.533-.2 11.067-.2 16.6 0 5.6.067 11.167.2 16.7m-2-31.2h-5.9c.067 4 .1 7.9.1 11.7h5.7c0-3.8.033-7.7.1-11.7m-.1 15.5v-2h-5.7v2h5.7m.1 13.6c-.067-4.267-.1-8.167-.1-11.7h-5.7c0 3.667-.033 7.567-.1 11.7 1-.067 1.967-.1 2.9-.1 1 0 2 .033 3 .1" style="-inkscape-font-specification:Droid Serif" font-size="100" fill="#006c00" font-family="Droid Serif"/></svg>