<svg xmlns="http://www.w3.org/2000/svg" width="74.7" height="95.1"><path d="M5.25 92.833C1.784 91.81 1.975 94.44 1.975 47.788c0-29.862.17-42.63.578-43.526.318-.697 1.148-1.527 1.845-1.845 1.664-.758 63.473-.816 65.46-.06 2.908 1.105 2.868.482 2.868 45.168 0 28.62-.173 41.536-.574 42.687-.317.907-1.078 1.936-1.69 2.288-1.394.798-62.577 1.11-65.212.333z" fill="#fff"/><path style="-inkscape-font-specification:Droid Serif" d="M50.1 65.45c3 0 5.233-.733 6.7-2.2 1.467-1.467 2.833-4.167 4.1-8.1.067 2.733.733 6.267 2 10.6-1 1-2.7 1.933-5.1 2.8-2.333.867-4.533 1.3-6.6 1.3-5.6 0-9.067-1.567-10.4-4.7-.667-1.533-1-2.367-1-2.5v-34.5c0-.2-.2-.867-.6-2-.4-1.133-.6-1.8-.6-2v-.9c2.933.933 4.867 2.033 5.8 3.3l-1.9 15.1v5.8l.3.1c5.533-3.6 8.467-6.8 8.8-9.6h1.5c.467 0 1.167.4 2.1 1.2 1 .8 1.667 1.5 2 2.1l-14.9 8.3v12.4c0 .333.167.733.5 1.2.333.467 1.133.967 2.4 1.5s2.9.8 4.9.8m-22.6 2.2c0-.333.133-1.4.4-3.2.333-1.867.5-2.967.5-3.3 0-.533-.1-1.267-.3-2.2l-11.8 8.3c-.667-.067-2.167-1.333-4.5-3.8 6.8-1.667 12.5-3.967 17.1-6.9v-11c-.2-.2-.433-.3-.7-.3-5.733 1.733-8.633 2.6-8.7 2.6-.867 0-1.933-.633-3.2-1.9 4.733-2 8.767-3.1 12.1-3.3.333-.4.5-.9.5-1.5 0-1.533-.333-3.7-1-6.5l-1.6-6.3h1.8c.267 0 .9.433 1.9 1.3 1.067.867 1.667 1.4 1.8 1.6.133.267.3.7.5 1.3l-.8 5.8v29.7c0 .133-.2.667-.6 1.6l-.9 2.2c-1.667-.533-2.5-1.933-2.5-4.2" font-size="100" fill="#20208c" font-family="Droid Serif"/><path style="-inkscape-font-specification:Droid Serif" d="M74.7 87.9c0 4.8-2.267 7.2-6.8 7.2H6.8c-4.533 0-6.8-2.4-6.8-7.2V7.2C0 2.4 2.267 0 6.8 0h61.1c4.533 0 6.8 2.4 6.8 7.2v80.7m-1.7 0V7.2c0-3.667-1.7-5.5-5.1-5.5H6.8c-3.4 0-5.1 1.833-5.1 5.5v80.7c0 3.733 1.7 5.6 5.1 5.6h61.1c3.4 0 5.1-1.867 5.1-5.6" font-size="100" font-family="Droid Serif"/></svg>