<svg xmlns="http://www.w3.org/2000/svg" width="74.7" height="95.1"><path d="M74.7 87.9c0 4.8-2.267 7.2-6.8 7.2H6.8c-4.533 0-6.8-2.4-6.8-7.2V7.2C0 2.4 2.267 0 6.8 0h61.1c4.533 0 6.8 2.4 6.8 7.2v80.7m-1.7 0V7.2c0-3.667-1.7-5.5-5.1-5.5H6.8c-3.4 0-5.1 1.833-5.1 5.5v80.7c0 3.733 1.7 5.6 5.1 5.6h61.1c3.4 0 5.1-1.867 5.1-5.6" style="-inkscape-font-specification:Droid Serif" font-size="100" font-family="Droid Serif"/><path d="M4.938 92.985c-1.31-.47-2.085-1.25-2.62-2.64-.424-1.095-.45-3.52-.45-42.703 0-34.63.06-41.743.35-42.746.38-1.31 1.574-2.568 2.75-2.897.378-.108 15.064-.195 32.635-.195H69.55l1.042.598c.603.346 1.296 1.04 1.642 1.642l.598 1.043V89.94l-.598 1.044c-.346.602-1.04 1.296-1.642 1.64l-1.043.6-31.82.053c-26.507.044-31.984-.005-32.793-.295z" fill="#fff"/><path d="M48.4 35.653c.867 0 1.967-.067 3.3-.2 1.4-.134 2.133-.2 2.2-.2 2.533 0 4.367.966 5.5 2.9-.467.066-1.067.2-1.8.4l-16.3.2c-.8.133-2.167.333-4.1.6-1.867.266-3.4.5-4.6.7-1.133.2-1.733.3-1.8.3-.533 0-1.1-.234-1.7-.7-.6-.467-.933-.934-1-1.4l7.4-.6c.333-.267.933-1.934 1.8-5 .933-3.134 1.4-5.034 1.4-5.7 0-.467-.167-.7-.5-.7-.2 0-.7.1-1.5.3-.733.2-1.2.3-1.4.3-.933 0-1.8-.234-2.6-.7 0-.334.067-.534.2-.6 1.333-.134 3.233-.467 5.7-1 .467-.134.9-1.034 1.3-2.7.4-1.667.6-3.434.6-5.3l-5-1.5v-.6l14.5-3.3c.867.2 1.767.533 2.7 1v.9c-1.467.6-3.4 1.2-5.8 1.8-2.4.533-3.733.833-4 .9.8 1.2 1.2 1.833 1.2 1.9 0 .066-.133.433-.4 1.1-.2.666-.5 1.5-.9 2.5l-.8 2.4c.933 0 2.267-.267 4-.8l2.5-.7c.333 0 1.1.4 2.3 1.2 1.267.733 1.9 1.3 1.9 1.7 0 .133-.2.433-.6.9-.4.466-.967 1.533-1.7 3.2-.733 1.6-1.4 3.766-2 6.5m-33.1-7.5c3.733-4.067 6.6-7.634 8.6-10.7 2.067-3.134 3.233-5.2 3.5-6.2.267-1.067.5-2.4.7-4 0-.334.233-.6.7-.8 2.467 1.133 3.7 2.2 3.7 3.2 0 .6-.767 1.9-2.3 3.9l-3.2 4.2c.067 0 .167.2.3.6.133.4.267.9.4 1.5.133.533.2 1.033.2 1.5l-.2 7.6c0 .133-.3 3.833-.9 11.1-.2 3.266-.7 4.9-1.5 4.9-.467 0-.9-.467-1.3-1.4-.333-1-.5-1.867-.5-2.6l2.1-18.4c0-.534-.1-1.167-.3-1.9l-4.8 4.6c-2 1.866-3.733 2.833-5.2 2.9m32.4-2c0-.4-.067-.7-.2-.9h-3.9c-.2 0-.567.133-1.1.4-.533.266-.833.466-.9.6l-2.8 10.9c.933 0 2.167-.1 3.7-.3 1.6-.267 2.567-.4 2.9-.4.467-1.067.8-2.034 1-2.9.2-.934.367-1.934.5-3 .133-1.067.3-1.967.5-2.7.2-1.067.3-1.634.3-1.7" style="-inkscape-font-specification:Droid Serif" font-size="100" fill="#20208c" font-family="Droid Serif"/><path d="M50.5 49.247c.467 0 1.1.267 1.9.8.867.467 1.367.8 1.5 1v.8c-.333.334-.8.5-1.4.5-.333 0-1.167-.033-2.5-.1-1.333-.133-2.167-.2-2.5-.2-2.333 0-3.9.3-4.7.9l-3.4 3.5c.133-.266.5-1.366 1.1-3.3-.2-.2-.833-.3-1.9-.3-.6 0-2.167.1-4.7.3 0 .934-.267 2.3-.8 4.1l-.3-.9c-.267-.666-.567-1.266-.9-1.8-.267-.533-.533-.8-.8-.8-.6 0-1.9.2-3.9.6-1.933.4-3.2.6-3.8.6-1.133 0-2.233-.566-3.3-1.7l11-1.2-2.2-4.3h2.5c.067 0 .6.234 1.6.7 0 .8.233 2 .7 3.6.533-.066 2.933-.433 7.2-1.1.667-2.2 1.067-4.2 1.2-6 2.467 1.4 3.7 2.267 3.7 2.6l-1.6 2.5c.2.2.567.3 1.1.3.333 0 1.2-.166 2.6-.5 1.4-.4 2.267-.6 2.6-.6m-24.7 9.4c3.933-.2 7.2-.533 9.8-1 2.6-.466 4.467-.866 5.6-1.2 1.133-.333 2-.5 2.6-.5 1 0 2.333.834 4 2.5-.867 1.6-1.567 2.967-2.1 4.1-.533 1.067-.9 1.767-1.1 2.1-.133.334-.367.767-.7 1.3l-1.5 2.4c-.733-.666-1.433-1-2.1-1-1 0-2.167.267-3.5.8v2.2c.133.067.5.1 1.1.1.067 0 2.133-.2 6.2-.6 4.067-.466 6.167-.7 6.3-.7.667 0 2.067.7 4.2 2.1-.467.934-.833 2.434-1.1 4.5-.267 2.067-.7 4.034-1.3 5.9-.533 1.934-1.533 3.534-3 4.8-.8-1-2.4-2.8-4.8-5.4 2 .334 3.133.5 3.4.5 1.133 0 1.833-.6 2.1-1.8.267-1.133.4-3.5.4-7.1-.533-.733-1.433-1.1-2.7-1.1-4.4 0-8.1.434-11.1 1.3v2.7c.4.4.767.6 1.1.6.933 0 2-.3 3.2-.9-.333-.266-.5-.8-.5-1.6.8.067 1.767.534 2.9 1.4 1.133.8 1.7 1.6 1.7 2.4 0 1.067-.4 1.6-1.2 1.6-.333 0-.9-.433-1.7-1.3-.733-.8-1.167-1.233-1.3-1.3-6.8 2-10.267 3-10.4 3-.4 0-.833-.2-1.3-.6-.4-.4-.667-.833-.8-1.3 1.467-.2 3.6-.6 6.4-1.2v-2.4c-.067-.6-.5-.9-1.3-.9-3.4 0-6.033.267-7.9.8v4.4c.067 1.134.1 1.834.1 2.1.067.267.1.5.1.7.067.267.1.567.1.9 0 .134-.1.534-.3 1.2-.133.667-.2 1.1-.2 1.3 0 .267.067.467.2.6h-1.1c-.4 0-.633-.233-.7-.7-.4-5.533-.967-9.633-1.7-12.3.6.067 1.533.234 2.8.5l10-1.5.1-.2v-2.2c-.2-.2-.6-.3-1.2-.3-1.667 0-2.733.267-3.2.8-.667-.6-1.467-2.3-2.4-5.1-.933-2.866-1.667-4.666-2.2-5.4m14.2 7.3c.867 0 1.6-.633 2.2-1.9.667-1.266 1-2.533 1-3.8 0-.466-.133-1.066-.4-1.8h-5.9v2.5c.4.2.733.3 1 .3.2 0 .4-.033.6-.1.267-.066.467-.1.6-.1.8 0 1.367.4 1.7 1.2-.8.6-2.1 1.1-3.9 1.5v2.2H40m-5.3-6.8c-.267 0-.9.1-1.9.3-1 .2-1.633.3-1.9.3-.2 0-.633-.166-1.3-.5l1.2 7.8c1.667-.2 3-.466 4-.8v-2.3c-.467-.066-.933-.1-1.4-.1-.4 0-.767.034-1.1.1-.2-.2-.467-.5-.8-.9.067-.066 1.167-.433 3.3-1.1-.067-1.733-.1-2.666-.1-2.8" style="-inkscape-font-specification:Droid Serif" font-size="100" fill="#ba0000" font-family="Droid Serif"/></svg>