<svg xmlns="http://www.w3.org/2000/svg" width="74.7" height="95.1"><path d="M4.778 93.003c-1.022-.306-2.094-1.406-2.553-2.622-.346-.91-.382-5.71-.32-43.2.07-42.14.07-42.17.594-43.17.34-.652.9-1.2 1.61-1.58l1.093-.58h32.04c26.49 0 32.183.06 32.865.346 1.05.44 2.097 1.68 2.43 2.884.367 1.317.363 83.66-.003 84.977-.364 1.308-1.53 2.562-2.718 2.917-1.19.356-63.86.39-65.05.034z" fill="#fff"/><g style="-inkscape-font-specification:Droid Serif" font-size="100" font-family="Droid Serif"><path d="M74.7 87.9c0 4.8-2.267 7.2-6.8 7.2H6.8c-4.533 0-6.8-2.4-6.8-7.2V7.2C0 2.4 2.267 0 6.8 0h61.1c4.533 0 6.8 2.4 6.8 7.2v80.7m-1.7 0V7.2c0-3.667-1.7-5.5-5.1-5.5H6.8c-3.4 0-5.1 1.833-5.1 5.5v80.7c0 3.733 1.7 5.6 5.1 5.6h61.1c3.4 0 5.1-1.867 5.1-5.6"/><path d="M61.85 84.65c-1.667-.133-3.333-.2-5-.2-1.667 0-3.3.067-4.9.2.133-5.6.2-11.167.2-16.7 0-5.533-.067-11.067-.2-16.6 1.667.133 3.3.2 4.9.2 1.667 0 3.333-.067 5-.2-.133 5.533-.2 11.067-.2 16.6 0 5.6.067 11.167.2 16.7m-2-31.2h-5.9c.067 4 .1 7.9.1 11.7h5.7c0-3.8.033-7.7.1-11.7m-.1 15.5v-2h-5.7v2h5.7m.1 13.6c-.067-4.267-.1-8.167-.1-11.7h-5.7c0 3.667-.033 7.567-.1 11.7 1-.067 1.967-.1 2.9-.1 1 0 2 .033 3 .1m2-38.8c-1.667-.133-3.333-.2-5-.2-1.667 0-3.3.067-4.9.2.133-5.6.2-11.167.2-16.7 0-5.533-.067-11.067-.2-16.6 1.667.133 3.3.2 4.9.2 1.667 0 3.333-.067 5-.2-.133 5.533-.2 11.067-.2 16.6 0 5.6.067 11.167.2 16.7m-2-31.2h-5.9c.067 4 .1 7.9.1 11.7h5.7c0-3.8.033-7.7.1-11.7m-.1 15.5v-2h-5.7v2h5.7m.1 13.6c-.067-4.267-.1-8.167-.1-11.7h-5.7c0 3.667-.033 7.567-.1 11.7 1-.067 1.967-.1 2.9-.1 1 0 2 .033 3 .1m-37.1 43c-1.667-.133-3.333-.2-5-.2-1.667 0-3.3.067-4.9.2.133-5.6.2-11.167.2-16.7 0-5.533-.067-11.067-.2-16.6 1.667.133 3.3.2 4.9.2 1.667 0 3.333-.067 5-.2-.133 5.533-.2 11.067-.2 16.6 0 5.6.067 11.167.2 16.7m-2-31.2h-5.9c.067 4 .1 7.9.1 11.7h5.7c0-3.8.033-7.7.1-11.7m-.1 15.5v-2h-5.7v2h5.7m.1 13.6c-.067-4.267-.1-8.167-.1-11.7h-5.7c0 3.667-.033 7.567-.1 11.7 1-.067 1.967-.1 2.9-.1 1 0 2 .033 3 .1m2-38.8c-1.667-.133-3.333-.2-5-.2-1.667 0-3.3.067-4.9.2.133-5.6.2-11.167.2-16.7 0-5.533-.067-11.067-.2-16.6 1.667.133 3.3.2 4.9.2 1.667 0 3.333-.067 5-.2-.133 5.533-.2 11.067-.2 16.6 0 5.6.067 11.167.2 16.7m-2-31.2h-5.9c.067 4 .1 7.9.1 11.7h5.7c0-3.8.033-7.7.1-11.7m-.1 15.5v-2h-5.7v2h5.7m.1 13.6c-.067-4.267-.1-8.167-.1-11.7h-5.7c0 3.667-.033 7.567-.1 11.7 1-.067 1.967-.1 2.9-.1 1 0 2 .033 3 .1m21.6 43c-1.667-.133-3.333-.2-5-.2-1.667 0-3.3.067-4.9.2.133-5.6.2-11.167.2-16.7 0-5.533-.067-11.067-.2-16.6 1.667.133 3.3.2 4.9.2 1.667 0 3.333-.067 5-.2-.133 5.533-.2 11.067-.2 16.6 0 5.6.067 11.167.2 16.7m-2-31.2h-5.9c.067 4 .1 7.9.1 11.7h5.7c0-3.8.033-7.7.1-11.7m-.1 15.5v-2h-5.7v2h5.7m.1 13.6c-.067-4.267-.1-8.167-.1-11.7h-5.7c0 3.667-.033 7.567-.1 11.7 1-.067 1.967-.1 2.9-.1 1 0 2 .033 3 .1m2-38.8c-1.667-.133-3.333-.2-5-.2-1.667 0-3.3.067-4.9.2.133-5.6.2-11.167.2-16.7 0-5.533-.067-11.067-.2-16.6 1.667.133 3.3.2 4.9.2 1.667 0 3.333-.067 5-.2-.133 5.533-.2 11.067-.2 16.6 0 5.6.067 11.167.2 16.7m-2-31.2h-5.9c.067 4 .1 7.9.1 11.7h5.7c0-3.8.033-7.7.1-11.7m-.1 15.5v-2h-5.7v2h5.7m.1 13.6c-.067-4.267-.1-8.167-.1-11.7h-5.7c0 3.667-.033 7.567-.1 11.7 1-.067 1.967-.1 2.9-.1 1 0 2 .033 3 .1" fill="#006c00"/></g></svg>