<svg xmlns="http://www.w3.org/2000/svg" width="74.7" height="95.1"><path d="M74.7 87.9c0 4.8-2.267 7.2-6.8 7.2H6.8c-4.533 0-6.8-2.4-6.8-7.2V7.2C0 2.4 2.267 0 6.8 0h61.1c4.533 0 6.8 2.4 6.8 7.2v80.7m-1.7 0V7.2c0-3.667-1.7-5.5-5.1-5.5H6.8c-3.4 0-5.1 1.833-5.1 5.5v80.7c0 3.733 1.7 5.6 5.1 5.6h61.1c3.4 0 5.1-1.867 5.1-5.6" style="-inkscape-font-specification:Droid Serif" font-size="100" font-family="Droid Serif"/><path d="M4.583 92.72c-2.655-1.356-2.596-.332-2.604-45.014C1.97 1.086 1.79 3.394 5.482 2.37c2.62-.73 61.058-.742 63.673-.016 3.786 1.052 3.565-1.756 3.565 45.46v42.388l-1.254 1.46-1.255 1.46-32.17.128c-25.147.1-32.45-.015-33.46-.53z" fill="#fff"/><path d="M44.1 33.05c1.467-.8 2.833-2.033 4.1-3.7 1.333-1.667 2.133-3.133 2.4-4.4 1.6.8 3.133 1.667 4.6 2.6-.2.4-.467.767-.8 1.1-.333.333-.667.633-1 .9-.333.267-.833.633-1.5 1.1-.667.4-1.233.733-1.7 1-.4.2-1.1.6-2.1 1.2-1 .533-1.8.967-2.4 1.3 4.733 5.867 11.667 10.033 20.8 12.5l-3.8.9c-2.533.6-4.233.9-5.1.9-1.4 0-2.367-.2-2.9-.6-1.4-1.133-4.867-4.7-10.4-10.7l-5.3-6c-2.133-2.333-3.967-4.1-5.5-5.3.6-.4 1.133-.6 1.6-.6 1.467 0 2.633.7 3.5 2.1 2-1.267 3-3.5 3-6.7 2.933 0 4.733.6 5.4 1.8l-7 6c1.333 1.667 2.7 3.2 4.1 4.6m-6.7 7.9c.467.267.767.4.9.4s.967-.333 2.5-1c1.533-.733 2.367-1.1 2.5-1.1.267 0 1.467.6 3.6 1.8-1.467 3.4-2.2 5.6-2.2 6.6 0 .533.267.933.8 1.2.533.2 1.867.433 4 .7 1.733.2 2.6.5 2.6.9 0 .333-.633.767-1.9 1.3-1.267.467-2.233.7-2.9.7-3.067 0-4.6-1.333-4.6-4 0-.267.033-.9.1-1.9.067-1 .1-1.633.1-1.9 0-1.2-.2-2.133-.6-2.8-1.733.4-2.933.9-3.6 1.5-.067.2-.167.7-.3 1.5-.133.8-.233 1.333-.3 1.6 0 .2-.067.633-.2 1.3s-.267 1.133-.4 1.4l-.4 1.2c-.2.533-.4.933-.6 1.2-.2.2-.467.533-.8 1-.267.4-.567.733-.9 1-.333.2-.733.467-1.2.8-.4.267-.867.5-1.4.7 2.333-3.133 3.5-6.433 3.5-9.9 0-1.533-.267-3.1-.8-4.7h1.8c.067 0 .3.167.7.5m11.8 16.9c0 .2-.267.767-.8 1.7-.533.867-1.167 1.867-1.9 3-.667 1.067-1.1 1.8-1.3 2.2l4.5 3.2c1.933 1.733 2.9 3.233 2.9 4.5l-.5 2c-1.733-.8-4.8-3.1-9.2-6.9-3.467 3.133-7.267 4.7-11.4 4.7h-1.1c1.8-.8 3.833-1.933 6.1-3.4 2.333-1.533 3.5-2.5 3.5-2.9 0-.4-.867-1.267-2.6-2.6l-3.8-2.8c1.667.467 4.3 1.367 7.9 2.7.533-.2 1.033-.833 1.5-1.9.533-1.133.8-2 .8-2.6 0-.8-.467-1.2-1.4-1.2-.2 0-1.033.233-2.5.7-1.467.467-2.267.7-2.4.7-.333 0-.867-.167-1.6-.5-.733-.333-1.2-.667-1.4-1l10.6-3c2.733 1.2 4.1 2.333 4.1 3.4m-25.8-15.5c.2 0 1.167-.3 2.9-.9 1.8-.667 2.8-1 3-1 .933 0 2.167.767 3.7 2.3l-4.3 5.4c.2.133.767.967 1.7 2.5-2.933.2-5.067.433-6.4.7-1.333.267-2.033.467-2.1.6-.067.067-.233.333-.5.8-.133.133-.5 1.3-1.1 3.5.333 0 1.133-.067 2.4-.2s1.933-.2 2-.2c.667 0 1.533.3 2.6.9 1.133.533 1.7 1.033 1.7 1.5 0 .133-.167.667-.5 1.6-.333.933-.5 1.467-.5 1.6-.267 2-1.067 5.067-2.4 9.2-.8 1.933-2 3.2-3.6 3.8-.667-.667-2.5-2.9-5.5-6.7l5 1.2c1.067 0 1.933-.9 2.6-2.7.733-1.8 1.1-3.733 1.1-5.8 0-1.667-.767-2.5-2.3-2.5-1.2 0-3.333 1.133-6.4 3.4-.667-.2-1-.633-1-1.3 0-.067.2-.433.6-1.1.467-.733.967-1.667 1.5-2.8.6-1.133 1.033-2.1 1.3-2.9.2-.533.3-2.1.3-4.7 1.867 1.067 3.3 1.6 4.3 1.6.867 0 1.733-.4 2.6-1.2.867-.8 1.3-1.567 1.3-2.3v-2.6l-5.2-1.4c-4.4 5-9.067 8.467-14 10.4l12.2-12.6c-1.4-1.4-3.1-3.4-5.1-6H18c.533 0 1.167.467 1.9 1.4l1.6 2c1.6-1.467 3.133-4.667 4.6-9.6-.267-.133-.533-.2-.8-.2l-4.3.7c-.467 0-1.5-.367-3.1-1.1 6-2.2 9.067-3.3 9.2-3.3.267 0 1.8.8 4.6 2.4l-9.1 15.2c.267.267.533.4.8.4" style="-inkscape-font-specification:Droid Serif" font-size="100" fill="#004c00" font-family="Droid Serif"/></svg>