<svg xmlns="http://www.w3.org/2000/svg" width="74.7" height="95.1"><path d="M74.7 87.9c0 4.8-2.267 7.2-6.8 7.2H6.8c-4.533 0-6.8-2.4-6.8-7.2V7.2C0 2.4 2.267 0 6.8 0h61.1c4.533 0 6.8 2.4 6.8 7.2v80.7m-1.7 0V7.2c0-3.667-1.7-5.5-5.1-5.5H6.8c-3.4 0-5.1 1.833-5.1 5.5v80.7c0 3.733 1.7 5.6 5.1 5.6h61.1c3.4 0 5.1-1.867 5.1-5.6" style="-inkscape-font-specification:Droid Serif" font-size="100" font-family="Droid Serif"/><path d="M4.836 92.99c-.985-.29-2.112-1.353-2.553-2.41-.295-.705-.35-7.596-.35-43.03 0-45.336-.06-43.125 1.203-44.52 1.11-1.23-.02-1.19 34.19-1.19 26.497 0 32.192.06 32.874.345.96.402 2.108 1.676 2.38 2.642.103.372.19 19.654.19 42.85V89.85l-.633 1.137c-.442.796-.968 1.306-1.758 1.704l-1.13.57-31.83-.02c-17.6-.013-32.168-.123-32.587-.246z" fill="#fff"/><path d="M46.453 41.6c-1.134 0-2.134-.067-3-.2-.867-.133-1.667-.367-2.4-.7-.667-.333-1.234-.667-1.7-1-.467-.333-.9-.833-1.3-1.5-.334-.667-.634-1.2-.9-1.6-.2-.4-.4-1.067-.6-2-.2-.933-.334-1.633-.4-2.1-.067-.533-.2-1.367-.4-2.5-.134-1.133-.234-1.967-.3-2.5l-13.4 4.6c-1.734-.267-3.1-.9-4.1-1.9 7.4-1.667 13.2-3.367 17.4-5.1v-11c0-.533-.634-2.867-1.9-7h2.1c.333 0 1.6.733 3.8 2.2-.334 1.467-.734 3.733-1.2 6.8 0 5.133-.067 7.733-.2 7.8.133.133.3.2.5.2l15.3-5.5c2.2.867 3.3 1.567 3.3 2.1 0 .533-.3.867-.9 1l-8.6 2c-3.8.933-6.967 1.933-9.5 3v4.1c0 .733.1 1.567.3 2.5.266.867 1.033 1.9 2.3 3.1 1.266 1.133 2.966 1.7 5.1 1.7 3.8 0 6.166-.667 7.1-2 .133-.133.9-1.933 2.3-5.4l1.6 7.5c-.267.6-.634 1.033-1.1 1.3-3.467 1.4-6.534 2.1-9.2 2.1" style="-inkscape-font-specification:Droid Serif" font-size="100" fill="#20208c" font-family="Droid Serif"/><path d="M50.247 49.5c.467 0 1.1.267 1.9.8.867.467 1.367.8 1.5 1v.8c-.333.333-.8.5-1.4.5-.333 0-1.166-.033-2.5-.1-1.333-.133-2.166-.2-2.5-.2-2.333 0-3.9.3-4.7.9l-3.4 3.5c.134-.267.5-1.367 1.1-3.3-.2-.2-.833-.3-1.9-.3-.6 0-2.166.1-4.7.3 0 .933-.266 2.3-.8 4.1l-.3-.9c-.266-.667-.566-1.267-.9-1.8-.266-.533-.533-.8-.8-.8-.6 0-1.9.2-3.9.6-1.933.4-3.2.6-3.8.6-1.133 0-2.233-.567-3.3-1.7l11-1.2-2.2-4.3h2.5c.067 0 .6.233 1.6.7 0 .8.234 2 .7 3.6.534-.067 2.934-.433 7.2-1.1.667-2.2 1.067-4.2 1.2-6 2.467 1.4 3.7 2.267 3.7 2.6l-1.6 2.5c.2.2.567.3 1.1.3.334 0 1.2-.167 2.6-.5 1.4-.4 2.267-.6 2.6-.6m-24.7 9.4c3.934-.2 7.2-.533 9.8-1 2.6-.467 4.467-.867 5.6-1.2 1.134-.333 2-.5 2.6-.5 1 0 2.334.833 4 2.5-.866 1.6-1.566 2.967-2.1 4.1-.533 1.067-.9 1.767-1.1 2.1-.133.333-.366.767-.7 1.3l-1.5 2.4c-.733-.667-1.433-1-2.1-1-1 0-2.166.267-3.5.8v2.2c.134.067.5.1 1.1.1.067 0 2.134-.2 6.2-.6 4.067-.467 6.167-.7 6.3-.7.667 0 2.067.7 4.2 2.1-.466.933-.833 2.433-1.1 4.5-.266 2.067-.7 4.033-1.3 5.9-.533 1.933-1.533 3.533-3 4.8-.8-1-2.4-2.8-4.8-5.4 2 .333 3.134.5 3.4.5 1.134 0 1.834-.6 2.1-1.8.267-1.133.4-3.5.4-7.1-.533-.733-1.433-1.1-2.7-1.1-4.4 0-8.1.433-11.1 1.3v2.7c.4.4.767.6 1.1.6.934 0 2-.3 3.2-.9-.333-.267-.5-.8-.5-1.6.8.067 1.767.533 2.9 1.4 1.134.8 1.7 1.6 1.7 2.4 0 1.067-.4 1.6-1.2 1.6-.333 0-.9-.433-1.7-1.3-.733-.8-1.166-1.233-1.3-1.3-6.8 2-10.266 3-10.4 3-.4 0-.833-.2-1.3-.6-.4-.4-.666-.833-.8-1.3 1.467-.2 3.6-.6 6.4-1.2v-2.4c-.066-.6-.5-.9-1.3-.9-3.4 0-6.033.267-7.9.8v4.4c.067 1.133.1 1.833.1 2.1.067.267.1.5.1.7.067.267.1.567.1.9 0 .133-.1.533-.3 1.2-.133.667-.2 1.1-.2 1.3 0 .267.067.467.2.6h-1.1c-.4 0-.633-.233-.7-.7-.4-5.533-.966-9.633-1.7-12.3.6.067 1.534.233 2.8.5l10-1.5.1-.2v-2.2c-.2-.2-.6-.3-1.2-.3-1.666 0-2.733.267-3.2.8-.666-.6-1.466-2.3-2.4-5.1-.933-2.867-1.666-4.667-2.2-5.4m14.2 7.3c.867 0 1.6-.633 2.2-1.9.667-1.267 1-2.533 1-3.8 0-.467-.133-1.067-.4-1.8h-5.9v2.5c.4.2.734.3 1 .3.2 0 .4-.033.6-.1.267-.067.467-.1.6-.1.8 0 1.367.4 1.7 1.2-.8.6-2.1 1.1-3.9 1.5v2.2h3.1m-5.3-6.8c-.266 0-.9.1-1.9.3-1 .2-1.633.3-1.9.3-.2 0-.633-.167-1.3-.5l1.2 7.8c1.667-.2 3-.467 4-.8v-2.3c-.466-.067-.933-.1-1.4-.1-.4 0-.766.033-1.1.1-.2-.2-.466-.5-.8-.9.067-.067 1.167-.433 3.3-1.1-.066-1.733-.1-2.667-.1-2.8" style="-inkscape-font-specification:Droid Serif" font-size="100" fill="#ba0000" font-family="Droid Serif"/></svg>