<svg xmlns="http://www.w3.org/2000/svg" width="74.7" height="95.1"><path d="M4.144 92.676c-.714-.378-1.276-.926-1.62-1.58C2 90.098 2 90.06 1.926 48.05c-.05-28.68.01-42.338.19-42.96.37-1.28 1.187-2.23 2.39-2.776.986-.448 2.414-.468 32.85-.468s31.865.02 32.85.468c1.224.556 2.03 1.508 2.38 2.812.17.63.235 15.127.192 42.96l-.067 42.01-.61 1.074c-.406.71-.97 1.245-1.66 1.58-1.026.496-1.56.504-33.122.504H5.238l-1.095-.578z" fill="#fff"/><path d="M70.712 29.382c0 3-1.033 5.533-3.1 7.6-2.067 2-4.567 3-7.5 3-3 0-5.533-1.034-7.6-3.1-2-2.067-3-4.567-3-7.5 0-2.934 1.033-5.434 3.1-7.5 2.067-2.067 4.567-3.1 7.5-3.1 3 0 5.5 1.033 7.5 3.1 2.067 2.066 3.1 4.566 3.1 7.5m-.8 0c0-2.734-.967-5.034-2.9-6.9-1.867-1.934-4.167-2.9-6.9-2.9-2.733 0-5.067.966-7 2.9-1.867 1.866-2.8 4.166-2.8 6.9 0 2.8.933 5.133 2.8 7 1.933 1.866 4.267 2.8 7 2.8 2.8 0 5.133-.934 7-2.8 1.867-1.934 2.8-4.267 2.8-7m-9.8-8.7c2.467 0 4.533.866 6.2 2.6 1.667 1.733 2.5 3.766 2.5 6.1 0 2.466-.867 4.533-2.6 6.2-1.667 1.666-3.7 2.5-6.1 2.5-2.467 0-4.533-.834-6.2-2.5-1.667-1.734-2.5-3.8-2.5-6.2 0-2.467.833-4.534 2.5-6.2 1.733-1.667 3.8-2.5 6.2-2.5m-5.6 14.4c1.533 1.466 3.4 2.2 5.6 2.2 2.2 0 4.067-.734 5.6-2.2 1.533-1.534 2.3-3.434 2.3-5.7 0-2.2-.767-4.067-2.3-5.6-1.533-1.534-3.4-2.3-5.6-2.3-2.267 0-4.167.766-5.7 2.3-1.467 1.533-2.2 3.4-2.2 5.6 0 2.266.767 4.166 2.3 5.7m10.8-7.8c.667 0 1.2.2 1.6.6.467.4.7.933.7 1.6 0 .6-.2 1.1-.6 1.5-.4.4-.967.6-1.7.6h-1.4c.667 1.2 1 2 1 2.4 0 .6-.233 1.133-.7 1.6-.4.4-.9.6-1.5.6h-.6c-.133-.067-.3-.134-.5-.2-.133-.134-.267-.234-.4-.3-.067-.134-.167-.3-.3-.5-.133-.2-.233-.334-.3-.4-.067-.134-.167-.3-.3-.5-.067-.267-.133-.434-.2-.5-.667 1.133-1.167 1.8-1.5 2-.267.266-.633.4-1.1.4-.6 0-1.133-.2-1.6-.6-.467-.467-.7-.967-.7-1.5 0-.4.367-1.234 1.1-2.5h-1.4c-.667 0-1.233-.2-1.7-.6-.4-.467-.6-1-.6-1.6 0-.667.2-1.167.6-1.5.4-.4.967-.6 1.7-.6h1.4c-.667-1.267-1-2.1-1-2.5 0-.6.2-1.1.6-1.5.467-.467 1-.7 1.6-.7.267 0 .5.066.7.2.2.066.333.133.4.2.133.066.267.233.4.5l.4.4c.067.066.167.266.3.6.2.333.333.533.4.6.667-1.2 1.167-1.9 1.5-2.1.267-.2.633-.3 1.1-.3.6 0 1.133.2 1.6.6.467.4.7.9.7 1.5 0 .333-.367 1.166-1.1 2.5h1.4m-2.6 8.1c.4 0 .733-.134 1-.4.267-.267.4-.6.4-1 0-.267-.067-.5-.2-.7l-1.4-2.5h2.8c1 0 1.5-.467 1.5-1.4 0-.934-.5-1.4-1.5-1.4h-2.8l1.4-2.4c.2-.267.3-.567.3-.9 0-.334-.167-.634-.5-.9-.267-.267-.6-.4-1-.4-.467 0-.867.233-1.2.7l-1.4 2.5-1.4-2.5c-.333-.467-.733-.7-1.2-.7-.4 0-.767.133-1.1.4-.267.266-.4.6-.4 1 0 .266.1.533.3.8l1.4 2.4h-2.8c-1 0-1.5.466-1.5 1.4 0 .933.5 1.4 1.5 1.4h2.8l-1.4 2.5c-.2.266-.3.533-.3.8 0 .333.133.633.4.9.333.266.7.4 1.1.4.467 0 .867-.234 1.2-.7l1.4-2.5 1.4 2.5c.333.466.733.7 1.2.7m-4.3-7.6c.467-.467 1-.7 1.6-.7.667 0 1.233.233 1.7.7.467.4.7.933.7 1.6 0 .666-.233 1.233-.7 1.7-.4.4-.933.6-1.6.6s-1.233-.234-1.7-.7c-.4-.467-.6-1-.6-1.6 0-.667.2-1.2.6-1.6m1.7 3.1c.4 0 .733-.134 1-.4.333-.334.5-.7.5-1.1 0-.4-.167-.734-.5-1-.267-.334-.633-.5-1.1-.5-.4 0-.733.166-1 .5-.267.266-.4.6-.4 1 0 .466.133.833.4 1.1.333.266.7.4 1.1.4m.8-1.5c0 .533-.267.8-.8.8s-.8-.267-.8-.8c0-.467.267-.7.8-.7s.8.233.8.7m-13-7.3c0 3-1.033 5.533-3.1 7.6-2.067 2-4.567 3-7.5 3-3 0-5.533-1.034-7.6-3.1-2-2.067-3-4.567-3-7.5 0-2.934 1.033-5.434 3.1-7.5 2.067-2.067 4.567-3.1 7.5-3.1 3 0 5.5 1.033 7.5 3.1 2.067 2.066 3.1 4.566 3.1 7.5m-.8 0c0-2.734-.967-5.034-2.9-6.9-1.867-1.934-4.167-2.9-6.9-2.9-2.733 0-5.067.966-7 2.9-1.867 1.866-2.8 4.166-2.8 6.9 0 2.8.933 5.133 2.8 7 1.933 1.866 4.267 2.8 7 2.8 2.8 0 5.133-.934 7-2.8 1.867-1.934 2.8-4.267 2.8-7m-9.8-8.7c2.467 0 4.533.866 6.2 2.6 1.667 1.733 2.5 3.766 2.5 6.1 0 2.466-.867 4.533-2.6 6.2-1.667 1.666-3.7 2.5-6.1 2.5-2.467 0-4.533-.834-6.2-2.5-1.667-1.734-2.5-3.8-2.5-6.2 0-2.467.833-4.534 2.5-6.2 1.733-1.667 3.8-2.5 6.2-2.5m-5.6 14.4c1.533 1.466 3.4 2.2 5.6 2.2 2.2 0 4.067-.734 5.6-2.2 1.533-1.534 2.3-3.434 2.3-5.7 0-2.2-.767-4.067-2.3-5.6-1.533-1.534-3.4-2.3-5.6-2.3-2.267 0-4.167.766-5.7 2.3-1.467 1.533-2.2 3.4-2.2 5.6 0 2.266.767 4.166 2.3 5.7m10.8-7.8c.667 0 1.2.2 1.6.6.467.4.7.933.7 1.6 0 .6-.2 1.1-.6 1.5-.4.4-.967.6-1.7.6h-1.4c.667 1.2 1 2 1 2.4 0 .6-.233 1.133-.7 1.6-.4.4-.9.6-1.5.6h-.6c-.133-.067-.3-.134-.5-.2-.133-.134-.267-.234-.4-.3-.067-.134-.167-.3-.3-.5-.133-.2-.233-.334-.3-.4-.067-.134-.167-.3-.3-.5-.067-.267-.133-.434-.2-.5-.667 1.133-1.167 1.8-1.5 2-.267.266-.633.4-1.1.4-.6 0-1.133-.2-1.6-.6-.467-.467-.7-.967-.7-1.5 0-.4.367-1.234 1.1-2.5h-1.4c-.667 0-1.233-.2-1.7-.6-.4-.467-.6-1-.6-1.6 0-.667.2-1.167.6-1.5.4-.4.967-.6 1.7-.6h1.4c-.667-1.267-1-2.1-1-2.5 0-.6.2-1.1.6-1.5.467-.467 1-.7 1.6-.7.267 0 .5.066.7.2.2.066.333.133.4.2.133.066.267.233.4.5l.4.4c.067.066.167.266.3.6.2.333.333.533.4.6.667-1.2 1.167-1.9 1.5-2.1.267-.2.633-.3 1.1-.3.6 0 1.133.2 1.6.6.467.4.7.9.7 1.5 0 .333-.367 1.166-1.1 2.5h1.4m-2.6 8.1c.4 0 .733-.134 1-.4.267-.267.4-.6.4-1 0-.267-.067-.5-.2-.7l-1.4-2.5h2.8c1 0 1.5-.467 1.5-1.4 0-.934-.5-1.4-1.5-1.4h-2.8l1.4-2.4c.2-.267.3-.567.3-.9 0-.334-.167-.634-.5-.9-.267-.267-.6-.4-1-.4-.467 0-.867.233-1.2.7l-1.4 2.5-1.4-2.5c-.333-.467-.733-.7-1.2-.7-.4 0-.767.133-1.1.4-.267.266-.4.6-.4 1 0 .266.1.533.3.8l1.4 2.4h-2.8c-1 0-1.5.466-1.5 1.4 0 .933.5 1.4 1.5 1.4h2.8l-1.4 2.5c-.2.266-.3.533-.3.8 0 .333.133.633.4.9.333.266.7.4 1.1.4.467 0 .867-.234 1.2-.7l1.4-2.5 1.4 2.5c.333.466.733.7 1.2.7m-4.3-7.6c.467-.467 1-.7 1.6-.7.667 0 1.233.233 1.7.7.467.4.7.933.7 1.6 0 .666-.233 1.233-.7 1.7-.4.4-.933.6-1.6.6s-1.233-.234-1.7-.7c-.4-.467-.6-1-.6-1.6 0-.667.2-1.2.6-1.6m1.7 3.1c.4 0 .733-.134 1-.4.333-.334.5-.7.5-1.1 0-.4-.167-.734-.5-1-.267-.334-.633-.5-1.1-.5-.4 0-.733.166-1 .5-.267.266-.4.6-.4 1 0 .466.133.833.4 1.1.333.266.7.4 1.1.4m.8-1.5c0 .533-.267.8-.8.8s-.8-.267-.8-.8c0-.467.267-.7.8-.7s.8.233.8.7m-13-7.3c0 3-1.033 5.533-3.1 7.6-2.067 2-4.567 3-7.5 3-3 0-5.533-1.034-7.6-3.1-2-2.067-3-4.567-3-7.5 0-2.934 1.033-5.434 3.1-7.5 2.067-2.067 4.567-3.1 7.5-3.1 3 0 5.5 1.033 7.5 3.1 2.067 2.066 3.1 4.566 3.1 7.5m-.8 0c0-2.734-.967-5.034-2.9-6.9-1.867-1.934-4.167-2.9-6.9-2.9-2.733 0-5.067.966-7 2.9-1.867 1.866-2.8 4.166-2.8 6.9 0 2.8.933 5.133 2.8 7 1.933 1.866 4.267 2.8 7 2.8 2.8 0 5.133-.934 7-2.8 1.867-1.934 2.8-4.267 2.8-7m-9.8-8.7c2.467 0 4.533.866 6.2 2.6 1.667 1.733 2.5 3.766 2.5 6.1 0 2.466-.867 4.533-2.6 6.2-1.667 1.666-3.7 2.5-6.1 2.5-2.467 0-4.533-.834-6.2-2.5-1.667-1.734-2.5-3.8-2.5-6.2 0-2.467.833-4.534 2.5-6.2 1.733-1.667 3.8-2.5 6.2-2.5m-5.6 14.4c1.533 1.466 3.4 2.2 5.6 2.2 2.2 0 4.067-.734 5.6-2.2 1.533-1.534 2.3-3.434 2.3-5.7 0-2.2-.767-4.067-2.3-5.6-1.533-1.534-3.4-2.3-5.6-2.3-2.267 0-4.167.766-5.7 2.3-1.467 1.533-2.2 3.4-2.2 5.6 0 2.266.767 4.166 2.3 5.7m10.8-7.8c.667 0 1.2.2 1.6.6.467.4.7.933.7 1.6 0 .6-.2 1.1-.6 1.5-.4.4-.967.6-1.7.6h-1.4c.667 1.2 1 2 1 2.4 0 .6-.233 1.133-.7 1.6-.4.4-.9.6-1.5.6h-.6c-.133-.067-.3-.134-.5-.2-.133-.134-.267-.234-.4-.3-.067-.134-.167-.3-.3-.5-.133-.2-.233-.334-.3-.4-.067-.134-.167-.3-.3-.5-.067-.267-.133-.434-.2-.5-.667 1.133-1.167 1.8-1.5 2-.267.266-.633.4-1.1.4-.6 0-1.133-.2-1.6-.6-.467-.467-.7-.967-.7-1.5 0-.4.367-1.234 1.1-2.5h-1.4c-.667 0-1.233-.2-1.7-.6-.4-.467-.6-1-.6-1.6 0-.667.2-1.167.6-1.5.4-.4.967-.6 1.7-.6h1.4c-.667-1.267-1-2.1-1-2.5 0-.6.2-1.1.6-1.5.467-.467 1-.7 1.6-.7.267 0 .5.066.7.2.2.066.333.133.4.2.133.066.267.233.4.5l.4.4c.067.066.167.266.3.6.2.333.333.533.4.6.667-1.2 1.167-1.9 1.5-2.1.267-.2.633-.3 1.1-.3.6 0 1.133.2 1.6.6.467.4.7.9.7 1.5 0 .333-.367 1.166-1.1 2.5h1.4m-2.6 8.1c.4 0 .733-.134 1-.4.267-.267.4-.6.4-1 0-.267-.067-.5-.2-.7l-1.4-2.5h2.8c1 0 1.5-.467 1.5-1.4 0-.934-.5-1.4-1.5-1.4h-2.8l1.4-2.4c.2-.267.3-.567.3-.9 0-.334-.167-.634-.5-.9-.267-.267-.6-.4-1-.4-.467 0-.867.233-1.2.7l-1.4 2.5-1.4-2.5c-.333-.467-.733-.7-1.2-.7-.4 0-.767.133-1.1.4-.267.266-.4.6-.4 1 0 .266.1.533.3.8l1.4 2.4h-2.8c-1 0-1.5.466-1.5 1.4 0 .933.5 1.4 1.5 1.4h2.8l-1.4 2.5c-.2.266-.3.533-.3.8 0 .333.133.633.4.9.333.266.7.4 1.1.4.467 0 .867-.234 1.2-.7l1.4-2.5 1.4 2.5c.333.466.733.7 1.2.7m-4.3-7.6c.467-.467 1-.7 1.6-.7.667 0 1.233.233 1.7.7.467.4.7.933.7 1.6 0 .666-.233 1.233-.7 1.7-.4.4-.933.6-1.6.6s-1.233-.234-1.7-.7c-.4-.467-.6-1-.6-1.6 0-.667.2-1.2.6-1.6m1.7 3.1c.4 0 .733-.134 1-.4.333-.334.5-.7.5-1.1 0-.4-.167-.734-.5-1-.267-.334-.633-.5-1.1-.5-.4 0-.733.166-1 .5-.267.266-.4.6-.4 1 0 .466.133.833.4 1.1.333.266.7.4 1.1.4m.8-1.5c0 .533-.267.8-.8.8s-.8-.267-.8-.8c0-.467.267-.7.8-.7s.8.233.8.7" style="-inkscape-font-specification:Droid Serif" font-size="100" fill="#10106c" font-family="Droid Serif"/><path d="M33.342 78.723c0 3-1.033 5.5-3.1 7.5-2.067 2.066-4.567 3.1-7.5 3.1-3 0-5.533-1.034-7.6-3.1-2-2.067-3-4.567-3-7.5 0-2.934 1.033-5.434 3.1-7.5 2.067-2.067 4.567-3.1 7.5-3.1 3 0 5.5 1.033 7.5 3.1 2.067 2.066 3.1 4.566 3.1 7.5m-.8 0c0-2.734-.967-5.034-2.9-6.9-1.867-1.934-4.167-2.9-6.9-2.9-2.733 0-5.067.966-7 2.9-1.867 1.866-2.8 4.166-2.8 6.9 0 2.8.933 5.133 2.8 7 1.933 1.866 4.267 2.8 7 2.8 2.8 0 5.133-.967 7-2.9 1.867-1.867 2.8-4.167 2.8-6.9m-9.8-8.7c2.467 0 4.533.866 6.2 2.6 1.667 1.733 2.5 3.766 2.5 6.1 0 2.466-.867 4.533-2.6 6.2-1.667 1.666-3.7 2.5-6.1 2.5-2.467 0-4.533-.867-6.2-2.6-1.667-1.667-2.5-3.7-2.5-6.1 0-2.467.833-4.534 2.5-6.2 1.733-1.667 3.8-2.5 6.2-2.5m-5.6 14.3c1.533 1.533 3.4 2.3 5.6 2.3 2.2 0 4.067-.767 5.6-2.3 1.533-1.467 2.3-3.334 2.3-5.6 0-2.2-.767-4.067-2.3-5.6-1.533-1.534-3.4-2.3-5.6-2.3-2.267 0-4.167.766-5.7 2.3-1.467 1.533-2.2 3.4-2.2 5.6 0 2.266.767 4.133 2.3 5.6m10.8-7.7c.667 0 1.2.2 1.6.6.467.4.7.933.7 1.6 0 .6-.2 1.1-.6 1.5-.4.4-.967.6-1.7.6h-1.4c.667 1.2 1 2 1 2.4 0 .6-.233 1.1-.7 1.5-.4.466-.9.7-1.5.7-.2 0-.4-.034-.6-.1-.133 0-.3-.067-.5-.2-.133-.067-.267-.167-.4-.3-.067-.067-.167-.2-.3-.4-.133-.2-.233-.367-.3-.5-.067-.067-.167-.234-.3-.5-.067-.2-.133-.334-.2-.4-.667 1.133-1.167 1.8-1.5 2-.267.266-.633.4-1.1.4-.6 0-1.133-.234-1.6-.7-.467-.4-.7-.867-.7-1.4 0-.4.367-1.234 1.1-2.5h-1.4c-.667 0-1.233-.234-1.7-.7-.4-.4-.6-.9-.6-1.5 0-.667.2-1.2.6-1.6.4-.334.967-.5 1.7-.5h1.4c-.667-1.267-1-2.1-1-2.5 0-.6.2-1.1.6-1.5.467-.467 1-.7 1.6-.7.267 0 .5.066.7.2.2.066.333.133.4.2.133.066.267.233.4.5l.4.4c.067.066.167.266.3.6.2.333.333.533.4.6.667-1.2 1.167-1.9 1.5-2.1.267-.2.633-.3 1.1-.3.6 0 1.133.2 1.6.6.467.4.7.9.7 1.5 0 .333-.367 1.166-1.1 2.5h1.4m-2.6 8.1c.4 0 .733-.134 1-.4.267-.267.4-.6.4-1 0-.267-.067-.5-.2-.7l-1.4-2.5h2.8c1 0 1.5-.467 1.5-1.4 0-.934-.5-1.4-1.5-1.4h-2.8l1.4-2.4c.2-.267.3-.567.3-.9 0-.334-.167-.634-.5-.9-.267-.267-.6-.4-1-.4-.467 0-.867.233-1.2.7l-1.4 2.5-1.4-2.5c-.333-.467-.733-.7-1.2-.7-.4 0-.767.133-1.1.4-.267.266-.4.6-.4 1 0 .266.1.533.3.8l1.4 2.4h-2.8c-1 0-1.5.466-1.5 1.4 0 .933.5 1.4 1.5 1.4h2.8l-1.4 2.5c-.2.266-.3.533-.3.8 0 .333.133.633.4.9.333.266.7.4 1.1.4.467 0 .867-.234 1.2-.7l1.4-2.5 1.4 2.5c.333.466.733.7 1.2.7m-4.3-7.7c.467-.4 1-.6 1.6-.6.667 0 1.233.2 1.7.6.467.466.7 1.033.7 1.7 0 .666-.233 1.2-.7 1.6-.4.466-.933.7-1.6.7s-1.233-.234-1.7-.7c-.4-.467-.6-1-.6-1.6 0-.667.2-1.234.6-1.7m1.7 3.2c.4 0 .733-.167 1-.5.333-.267.5-.6.5-1s-.167-.767-.5-1.1c-.267-.267-.633-.4-1.1-.4-.4 0-.733.133-1 .4-.267.333-.4.7-.4 1.1 0 .466.133.833.4 1.1.333.266.7.4 1.1.4m.8-1.5c0 .533-.267.8-.8.8s-.8-.267-.8-.8c0-.467.267-.7.8-.7s.8.233.8.7m39.1-24.3c0 3-1.033 5.533-3.1 7.6-2.067 2-4.567 3-7.5 3-3 0-5.533-1.034-7.6-3.1-2-2.067-3-4.567-3-7.5 0-2.934 1.033-5.434 3.1-7.5 2.067-2.067 4.567-3.1 7.5-3.1 3 0 5.5 1.033 7.5 3.1 2.067 2.066 3.1 4.566 3.1 7.5m-.8 0c0-2.734-.967-5.034-2.9-6.9-1.867-1.934-4.167-2.9-6.9-2.9-2.733 0-5.067.966-7 2.9-1.867 1.866-2.8 4.166-2.8 6.9 0 2.8.933 5.133 2.8 7 1.933 1.866 4.267 2.8 7 2.8 2.8 0 5.133-.934 7-2.8 1.867-1.934 2.8-4.267 2.8-7m-9.8-8.7c2.467 0 4.533.866 6.2 2.6 1.667 1.733 2.5 3.766 2.5 6.1 0 2.466-.867 4.533-2.6 6.2-1.667 1.666-3.7 2.5-6.1 2.5-2.467 0-4.533-.834-6.2-2.5-1.667-1.734-2.5-3.8-2.5-6.2 0-2.467.833-4.534 2.5-6.2 1.733-1.667 3.8-2.5 6.2-2.5m-5.6 14.4c1.533 1.466 3.4 2.2 5.6 2.2 2.2 0 4.067-.734 5.6-2.2 1.533-1.534 2.3-3.434 2.3-5.7 0-2.2-.767-4.067-2.3-5.6-1.533-1.534-3.4-2.3-5.6-2.3-2.267 0-4.167.766-5.7 2.3-1.467 1.533-2.2 3.4-2.2 5.6 0 2.266.767 4.166 2.3 5.7m10.8-7.8c.667 0 1.2.2 1.6.6.467.4.7.933.7 1.6 0 .6-.2 1.1-.6 1.5-.4.4-.967.6-1.7.6h-1.4c.667 1.2 1 2 1 2.4 0 .6-.233 1.133-.7 1.6-.4.4-.9.6-1.5.6h-.6c-.133-.067-.3-.134-.5-.2-.133-.134-.267-.234-.4-.3-.067-.134-.167-.3-.3-.5-.133-.2-.233-.334-.3-.4-.067-.134-.167-.3-.3-.5-.067-.267-.133-.434-.2-.5-.667 1.133-1.167 1.8-1.5 2-.267.266-.633.4-1.1.4-.6 0-1.133-.2-1.6-.6-.467-.467-.7-.967-.7-1.5 0-.4.367-1.234 1.1-2.5h-1.4c-.667 0-1.233-.2-1.7-.6-.4-.467-.6-1-.6-1.6 0-.667.2-1.167.6-1.5.4-.4.967-.6 1.7-.6h1.4c-.667-1.267-1-2.1-1-2.5 0-.6.2-1.1.6-1.5.467-.467 1-.7 1.6-.7.267 0 .5.066.7.2.2.066.333.133.4.2.133.066.267.233.4.5l.4.4c.067.066.167.266.3.6.2.333.333.533.4.6.667-1.2 1.167-1.9 1.5-2.1.267-.2.633-.3 1.1-.3.6 0 1.133.2 1.6.6.467.4.7.9.7 1.5 0 .333-.367 1.166-1.1 2.5h1.4m-2.6 8.1c.4 0 .733-.134 1-.4.267-.267.4-.6.4-1 0-.267-.067-.5-.2-.7l-1.4-2.5h2.8c1 0 1.5-.467 1.5-1.4 0-.934-.5-1.4-1.5-1.4h-2.8l1.4-2.4c.2-.267.3-.567.3-.9 0-.334-.167-.634-.5-.9-.267-.267-.6-.4-1-.4-.467 0-.867.233-1.2.7l-1.4 2.5-1.4-2.5c-.333-.467-.733-.7-1.2-.7-.4 0-.767.133-1.1.4-.267.266-.4.6-.4 1 0 .266.1.533.3.8l1.4 2.4h-2.8c-1 0-1.5.466-1.5 1.4 0 .933.5 1.4 1.5 1.4h2.8l-1.4 2.5c-.2.266-.3.533-.3.8 0 .333.133.633.4.9.333.266.7.4 1.1.4.467 0 .867-.234 1.2-.7l1.4-2.5 1.4 2.5c.333.466.733.7 1.2.7m-4.3-7.6c.467-.467 1-.7 1.6-.7.667 0 1.233.233 1.7.7.467.4.7.933.7 1.6 0 .666-.233 1.233-.7 1.7-.4.4-.933.6-1.6.6s-1.233-.234-1.7-.7c-.4-.467-.6-1-.6-1.6 0-.667.2-1.2.6-1.6m1.7 3.1c.4 0 .733-.134 1-.4.333-.334.5-.7.5-1.1 0-.4-.167-.734-.5-1-.267-.334-.633-.5-1.1-.5-.4 0-.733.166-1 .5-.267.266-.4.6-.4 1 0 .466.133.833.4 1.1.333.266.7.4 1.1.4m.8-1.5c0 .533-.267.8-.8.8s-.8-.267-.8-.8c0-.467.267-.7.8-.7s.8.233.8.7m9.8 24.3c0 3-1.033 5.5-3.1 7.5-2.067 2.066-4.567 3.1-7.5 3.1-3 0-5.533-1.034-7.6-3.1-2-2.067-3-4.567-3-7.5 0-2.934 1.033-5.434 3.1-7.5 2.067-2.067 4.567-3.1 7.5-3.1 3 0 5.5 1.033 7.5 3.1 2.067 2.066 3.1 4.566 3.1 7.5m-.8 0c0-2.734-.967-5.034-2.9-6.9-1.867-1.934-4.167-2.9-6.9-2.9-2.733 0-5.067.966-7 2.9-1.867 1.866-2.8 4.166-2.8 6.9 0 2.8.933 5.133 2.8 7 1.933 1.866 4.267 2.8 7 2.8 2.8 0 5.133-.967 7-2.9 1.867-1.867 2.8-4.167 2.8-6.9m-9.8-8.7c2.467 0 4.533.866 6.2 2.6 1.667 1.733 2.5 3.766 2.5 6.1 0 2.466-.867 4.533-2.6 6.2-1.667 1.666-3.7 2.5-6.1 2.5-2.467 0-4.533-.867-6.2-2.6-1.667-1.667-2.5-3.7-2.5-6.1 0-2.467.833-4.534 2.5-6.2 1.733-1.667 3.8-2.5 6.2-2.5m-5.6 14.3c1.533 1.533 3.4 2.3 5.6 2.3 2.2 0 4.067-.767 5.6-2.3 1.533-1.467 2.3-3.334 2.3-5.6 0-2.2-.767-4.067-2.3-5.6-1.533-1.534-3.4-2.3-5.6-2.3-2.267 0-4.167.766-5.7 2.3-1.467 1.533-2.2 3.4-2.2 5.6 0 2.266.767 4.133 2.3 5.6m10.8-7.7c.667 0 1.2.2 1.6.6.467.4.7.933.7 1.6 0 .6-.2 1.1-.6 1.5-.4.4-.967.6-1.7.6h-1.4c.667 1.2 1 2 1 2.4 0 .6-.233 1.1-.7 1.5-.4.466-.9.7-1.5.7-.2 0-.4-.034-.6-.1-.133 0-.3-.067-.5-.2-.133-.067-.267-.167-.4-.3-.067-.067-.167-.2-.3-.4-.133-.2-.233-.367-.3-.5-.067-.067-.167-.234-.3-.5-.067-.2-.133-.334-.2-.4-.667 1.133-1.167 1.8-1.5 2-.267.266-.633.4-1.1.4-.6 0-1.133-.234-1.6-.7-.467-.4-.7-.867-.7-1.4 0-.4.367-1.234 1.1-2.5h-1.4c-.667 0-1.233-.234-1.7-.7-.4-.4-.6-.9-.6-1.5 0-.667.2-1.2.6-1.6.4-.334.967-.5 1.7-.5h1.4c-.667-1.267-1-2.1-1-2.5 0-.6.2-1.1.6-1.5.467-.467 1-.7 1.6-.7.267 0 .5.066.7.2.2.066.333.133.4.2.133.066.267.233.4.5l.4.4c.067.066.167.266.3.6.2.333.333.533.4.6.667-1.2 1.167-1.9 1.5-2.1.267-.2.633-.3 1.1-.3.6 0 1.133.2 1.6.6.467.4.7.9.7 1.5 0 .333-.367 1.166-1.1 2.5h1.4m-2.6 8.1c.4 0 .733-.134 1-.4.267-.267.4-.6.4-1 0-.267-.067-.5-.2-.7l-1.4-2.5h2.8c1 0 1.5-.467 1.5-1.4 0-.934-.5-1.4-1.5-1.4h-2.8l1.4-2.4c.2-.267.3-.567.3-.9 0-.334-.167-.634-.5-.9-.267-.267-.6-.4-1-.4-.467 0-.867.233-1.2.7l-1.4 2.5-1.4-2.5c-.333-.467-.733-.7-1.2-.7-.4 0-.767.133-1.1.4-.267.266-.4.6-.4 1 0 .266.1.533.3.8l1.4 2.4h-2.8c-1 0-1.5.466-1.5 1.4 0 .933.5 1.4 1.5 1.4h2.8l-1.4 2.5c-.2.266-.3.533-.3.8 0 .333.133.633.4.9.333.266.7.4 1.1.4.467 0 .867-.234 1.2-.7l1.4-2.5 1.4 2.5c.333.466.733.7 1.2.7m-4.3-7.7c.467-.4 1-.6 1.6-.6.667 0 1.233.2 1.7.6.467.466.7 1.033.7 1.7 0 .666-.233 1.2-.7 1.6-.4.466-.933.7-1.6.7s-1.233-.234-1.7-.7c-.4-.467-.6-1-.6-1.6 0-.667.2-1.234.6-1.7m1.7 3.2c.4 0 .733-.167 1-.5.333-.267.5-.6.5-1s-.167-.767-.5-1.1c-.267-.267-.633-.4-1.1-.4-.4 0-.733.133-1 .4-.267.333-.4.7-.4 1.1 0 .466.133.833.4 1.1.333.266.7.4 1.1.4m.8-1.5c0 .533-.267.8-.8.8s-.8-.267-.8-.8c0-.467.267-.7.8-.7s.8.233.8.7m-19.4-24.3c0 3-1.033 5.533-3.1 7.6-2.067 2-4.567 3-7.5 3-3 0-5.533-1.034-7.6-3.1-2-2.067-3-4.567-3-7.5 0-2.934 1.033-5.434 3.1-7.5 2.067-2.067 4.567-3.1 7.5-3.1 3 0 5.5 1.033 7.5 3.1 2.067 2.066 3.1 4.566 3.1 7.5m-.8 0c0-2.734-.967-5.034-2.9-6.9-1.867-1.934-4.167-2.9-6.9-2.9-2.733 0-5.067.966-7 2.9-1.867 1.866-2.8 4.166-2.8 6.9 0 2.8.933 5.133 2.8 7 1.933 1.866 4.267 2.8 7 2.8 2.8 0 5.133-.934 7-2.8 1.867-1.934 2.8-4.267 2.8-7m-9.8-8.7c2.467 0 4.533.866 6.2 2.6 1.667 1.733 2.5 3.766 2.5 6.1 0 2.466-.867 4.533-2.6 6.2-1.667 1.666-3.7 2.5-6.1 2.5-2.467 0-4.533-.834-6.2-2.5-1.667-1.734-2.5-3.8-2.5-6.2 0-2.467.833-4.534 2.5-6.2 1.733-1.667 3.8-2.5 6.2-2.5m-5.6 14.4c1.533 1.466 3.4 2.2 5.6 2.2 2.2 0 4.067-.734 5.6-2.2 1.533-1.534 2.3-3.434 2.3-5.7 0-2.2-.767-4.067-2.3-5.6-1.533-1.534-3.4-2.3-5.6-2.3-2.267 0-4.167.766-5.7 2.3-1.467 1.533-2.2 3.4-2.2 5.6 0 2.266.767 4.166 2.3 5.7m10.8-7.8c.667 0 1.2.2 1.6.6.467.4.7.933.7 1.6 0 .6-.2 1.1-.6 1.5-.4.4-.967.6-1.7.6h-1.4c.667 1.2 1 2 1 2.4 0 .6-.233 1.133-.7 1.6-.4.4-.9.6-1.5.6h-.6c-.133-.067-.3-.134-.5-.2-.133-.134-.267-.234-.4-.3-.067-.134-.167-.3-.3-.5-.133-.2-.233-.334-.3-.4-.067-.134-.167-.3-.3-.5-.067-.267-.133-.434-.2-.5-.667 1.133-1.167 1.8-1.5 2-.267.266-.633.4-1.1.4-.6 0-1.133-.2-1.6-.6-.467-.467-.7-.967-.7-1.5 0-.4.367-1.234 1.1-2.5h-1.4c-.667 0-1.233-.2-1.7-.6-.4-.467-.6-1-.6-1.6 0-.667.2-1.167.6-1.5.4-.4.967-.6 1.7-.6h1.4c-.667-1.267-1-2.1-1-2.5 0-.6.2-1.1.6-1.5.467-.467 1-.7 1.6-.7.267 0 .5.066.7.2.2.066.333.133.4.2.133.066.267.233.4.5l.4.4c.067.066.167.266.3.6.2.333.333.533.4.6.667-1.2 1.167-1.9 1.5-2.1.267-.2.633-.3 1.1-.3.6 0 1.133.2 1.6.6.467.4.7.9.7 1.5 0 .333-.367 1.166-1.1 2.5h1.4m-2.6 8.1c.4 0 .733-.134 1-.4.267-.267.4-.6.4-1 0-.267-.067-.5-.2-.7l-1.4-2.5h2.8c1 0 1.5-.467 1.5-1.4 0-.934-.5-1.4-1.5-1.4h-2.8l1.4-2.4c.2-.267.3-.567.3-.9 0-.334-.167-.634-.5-.9-.267-.267-.6-.4-1-.4-.467 0-.867.233-1.2.7l-1.4 2.5-1.4-2.5c-.333-.467-.733-.7-1.2-.7-.4 0-.767.133-1.1.4-.267.266-.4.6-.4 1 0 .266.1.533.3.8l1.4 2.4h-2.8c-1 0-1.5.466-1.5 1.4 0 .933.5 1.4 1.5 1.4h2.8l-1.4 2.5c-.2.266-.3.533-.3.8 0 .333.133.633.4.9.333.266.7.4 1.1.4.467 0 .867-.234 1.2-.7l1.4-2.5 1.4 2.5c.333.466.733.7 1.2.7m-4.3-7.6c.467-.467 1-.7 1.6-.7.667 0 1.233.233 1.7.7.467.4.7.933.7 1.6 0 .666-.233 1.233-.7 1.7-.4.4-.933.6-1.6.6s-1.233-.234-1.7-.7c-.4-.467-.6-1-.6-1.6 0-.667.2-1.2.6-1.6m1.7 3.1c.4 0 .733-.134 1-.4.333-.334.5-.7.5-1.1 0-.4-.167-.734-.5-1-.267-.334-.633-.5-1.1-.5-.4 0-.733.166-1 .5-.267.266-.4.6-.4 1 0 .466.133.833.4 1.1.333.266.7.4 1.1.4m.8-1.5c0 .533-.267.8-.8.8s-.8-.267-.8-.8c0-.467.267-.7.8-.7s.8.233.8.7" style="-inkscape-font-specification:Droid Serif" font-size="100" fill="#9c0000" font-family="Droid Serif"/><path d="M74.7 87.9c0 4.8-2.267 7.2-6.8 7.2H6.8c-4.533 0-6.8-2.4-6.8-7.2V7.2C0 2.4 2.267 0 6.8 0h61.1c4.533 0 6.8 2.4 6.8 7.2v80.7m-1.7 0V7.2c0-3.667-1.7-5.5-5.1-5.5H6.8c-3.4 0-5.1 1.833-5.1 5.5v80.7c0 3.733 1.7 5.6 5.1 5.6h61.1c3.4 0 5.1-1.867 5.1-5.6" style="-inkscape-font-specification:Droid Serif" font-size="100" font-family="Droid Serif"/></svg>