<svg xmlns="http://www.w3.org/2000/svg" width="74.7" height="95.1"><path style="-inkscape-font-specification:Droid Serif" d="M74.7 87.9c0 4.8-2.267 7.2-6.8 7.2H6.8c-4.533 0-6.8-2.4-6.8-7.2V7.2C0 2.4 2.267 0 6.8 0h61.1c4.533 0 6.8 2.4 6.8 7.2v80.7m-1.7 0V7.2c0-3.667-1.7-5.5-5.1-5.5H6.8c-3.4 0-5.1 1.833-5.1 5.5v80.7c0 3.733 1.7 5.6 5.1 5.6h61.1c3.4 0 5.1-1.867 5.1-5.6" font-size="100" font-family="Droid Serif"/><path d="M5.238 93.118c-1.255-.383-2.184-1.097-2.778-2.132l-.592-1.033V5.1l.598-1.043c.346-.603 1.04-1.297 1.642-1.642l1.043-.598h32.2c35.28 0 32.88-.1 34.24 1.428 1.307 1.462 1.24-.734 1.24 44.155 0 44.778.05 42.996-1.23 44.408-1.38 1.526.98 1.424-33.87 1.472-17.5.024-32.12-.05-32.49-.162z" fill="#fff"/><path style="-inkscape-font-specification:Droid Serif" d="M42.3 30.9c-1.667-.133-3.333-.2-5-.2-1.667 0-3.333.067-5 .2.133-4.2.2-8.4.2-12.6 0-4.2-.067-8.4-.2-12.6 1.667.133 3.333.2 5 .2 1.667 0 3.333-.067 5-.2-.133 4.2-.2 8.4-.2 12.6 0 4.2.067 8.4.2 12.6m-2-23.1h-6c.067 1.667.133 4.233.2 7.7h5.6c0-.467.067-3.033.2-7.7m-.2 11.5v-2h-5.6v2h5.6m.2 9.5c-.133-4.467-.2-7.033-.2-7.7h-5.6c0 .4-.067 2.967-.2 7.7 1-.067 2-.1 3-.1l3 .1" font-size="100" fill="#9c0000" font-family="Droid Serif"/><path d="M61.647 89.147c-1.666-.133-3.333-.2-5-.2-1.666 0-3.333.067-5 .2.134-4.2.2-8.4.2-12.6 0-4.2-.066-8.4-.2-12.6 1.667.134 3.334.2 5 .2 1.667 0 3.334-.066 5-.2-.133 4.2-.2 8.4-.2 12.6 0 4.2.067 8.4.2 12.6m-2-23.1h-6c.067 1.667.134 4.234.2 7.7h5.6c0-.466.067-3.033.2-7.7m-.2 11.5v-2h-5.6v2h5.6m.2 9.5c-.133-4.466-.2-7.033-.2-7.7h-5.6c0 .4-.066 2.967-.2 7.7 1-.066 2-.1 3-.1l3 .1m2-27.1c-1.666-.133-3.333-.2-5-.2-1.666 0-3.333.067-5 .2.134-4.2.2-8.4.2-12.6 0-4.2-.066-8.4-.2-12.6 1.667.134 3.334.2 5 .2 1.667 0 3.334-.066 5-.2-.133 4.2-.2 8.4-.2 12.6 0 4.2.067 8.4.2 12.6m-2-23.1h-6c.067 1.667.134 4.234.2 7.7h5.6c0-.466.067-3.033.2-7.7m-.2 11.5v-2h-5.6v2h5.6m.2 9.5c-.133-4.466-.2-7.033-.2-7.7h-5.6c0 .4-.066 2.967-.2 7.7 1-.066 2-.1 3-.1l3 .1m-37.1 31.3c-1.666-.133-3.333-.2-5-.2-1.666 0-3.333.067-5 .2.134-4.2.2-8.4.2-12.6 0-4.2-.066-8.4-.2-12.6 1.667.134 3.334.2 5 .2 1.667 0 3.334-.066 5-.2-.133 4.2-.2 8.4-.2 12.6 0 4.2.067 8.4.2 12.6m-2-23.1h-6c.067 1.667.134 4.234.2 7.7h5.6c0-.466.067-3.033.2-7.7m-.2 11.5v-2h-5.6v2h5.6m.2 9.5c-.133-4.466-.2-7.033-.2-7.7h-5.6c0 .4-.066 2.967-.2 7.7 1-.066 2-.1 3-.1l3 .1m2-27.1c-1.666-.133-3.333-.2-5-.2-1.666 0-3.333.067-5 .2.134-4.2.2-8.4.2-12.6 0-4.2-.066-8.4-.2-12.6 1.667.134 3.334.2 5 .2 1.667 0 3.334-.066 5-.2-.133 4.2-.2 8.4-.2 12.6 0 4.2.067 8.4.2 12.6m-2-23.1h-6c.067 1.667.134 4.234.2 7.7h5.6c0-.466.067-3.033.2-7.7m-.2 11.5v-2h-5.6v2h5.6m.2 9.5c-.133-4.466-.2-7.033-.2-7.7h-5.6c0 .4-.066 2.967-.2 7.7 1-.066 2-.1 3-.1l3 .1m21.5 31.3c-1.666-.133-3.333-.2-5-.2-1.666 0-3.333.067-5 .2.134-4.2.2-8.4.2-12.6 0-4.2-.066-8.4-.2-12.6 1.667.134 3.334.2 5 .2 1.667 0 3.334-.066 5-.2-.133 4.2-.2 8.4-.2 12.6 0 4.2.067 8.4.2 12.6m-2-23.1h-6c.067 1.667.134 4.234.2 7.7h5.6c0-.466.067-3.033.2-7.7m-.2 11.5v-2h-5.6v2h5.6m.2 9.5c-.133-4.466-.2-7.033-.2-7.7h-5.6c0 .4-.066 2.967-.2 7.7 1-.066 2-.1 3-.1l3 .1m2-27.1c-1.666-.133-3.333-.2-5-.2-1.666 0-3.333.067-5 .2.134-4.2.2-8.4.2-12.6 0-4.2-.066-8.4-.2-12.6 1.667.134 3.334.2 5 .2 1.667 0 3.334-.066 5-.2-.133 4.2-.2 8.4-.2 12.6 0 4.2.067 8.4.2 12.6m-2-23.1h-6c.067 1.667.134 4.234.2 7.7h5.6c0-.466.067-3.033.2-7.7m-.2 11.5v-2h-5.6v2h5.6m.2 9.5c-.133-4.466-.2-7.033-.2-7.7h-5.6c0 .4-.066 2.967-.2 7.7 1-.066 2-.1 3-.1l3 .1" style="-inkscape-font-specification:Droid Serif" font-size="100" fill="#006c00" font-family="Droid Serif"/></svg>