<svg xmlns="http://www.w3.org/2000/svg" width="74.7" height="95.1"><path d="M4.196 92.275c-.624-.438-1.377-1.667-1.673-2.73-.738-2.66-.738-81.33 0-83.987 1.03-3.713-.82-3.527 35.232-3.527h32.422l1.277 1.28 1.276 1.28v85.93l-1.273 1.276-1.277 1.277H37.754c-28.256 0-32.57-.1-33.56-.795z" fill="#fff"/><path d="M38.2 22.05c0 .333-.167 1.167-.5 2.5-.267 1.333-.4 2.067-.4 2.2v5.3c.133.067.5.1 1.1.1l13-1.5c.733 0 2 .5 3.8 1.5 1.8 1 3.1 1.9 3.9 2.7l-1.2 1.2-1.3 1.3c-.2.267-.567.667-1.1 1.2-.467.467-.833.867-1.1 1.2-.2.267-.5.633-.9 1.1-.333.467-.6.867-.8 1.2-.133.333-.3.7-.5 1.1-.2.4-.333.8-.4 1.2-.067.333-.1.7-.1 1.1 0 .4.1 1.167.3 2.3h-5.4c-4.733.333-7.2.5-7.4.5-.867 0-1.5-.133-1.9-.4l-.1 15.5c-.933 6.8-1.767 11.2-2.5 13.2-.8-1.467-1.2-2.6-1.2-3.4v-5.8c0-.067.067-.667.2-1.8s.2-1.833.2-2.1v-13.5c0-.467-.367-.7-1.1-.7-1.333 0-4.5.2-9.5.6-.667 1.267-1.133 2.3-1.4 3.1-.2 0-.433-.2-.7-.6-.667-1.6-1.2-3.733-1.6-6.4-.4-2.667-.667-4.167-.8-4.5l-3.2-7.3c.6 0 1.567.067 2.9.2s2.167.2 2.5.2c1.533 0 5.6-.567 12.2-1.7.467-.333.7-.8.7-1.4 0-3.467-.867-7.767-2.6-12.9h3.8c.867 0 1.6.367 2.2 1.1.6.667.9 1.467.9 2.4m12.1 14.8c0-1.267-.167-2.1-.5-2.5-.267-.467-.867-.7-1.8-.7-.267 0-.633.033-1.1.1l-8.6.7c-.2 0-.5-.167-.9-.5v12.4c.2 0 .6.033 1.2.1H40c.067 0 .167-.033.3-.1.2-.067.5-.133.9-.2.4-.133.833-.233 1.3-.3 5.2-.8 7.8-3.8 7.8-9m-16.6 10v-11.7l-12.1 1.7c.333 1.267.567 2.433.7 3.5.2 1.067.333 1.867.4 2.4.067.533.1 1.367.1 2.5.067 1.133.133 2.067.2 2.8l10.7-1.2" style="-inkscape-font-specification:Droid Serif" font-size="100" fill="#ba0000" font-family="Droid Serif"/><path d="M74.7 87.9c0 4.8-2.267 7.2-6.8 7.2H6.8c-4.533 0-6.8-2.4-6.8-7.2V7.2C0 2.4 2.267 0 6.8 0h61.1c4.533 0 6.8 2.4 6.8 7.2v80.7m-1.7 0V7.2c0-3.667-1.7-5.5-5.1-5.5H6.8c-3.4 0-5.1 1.833-5.1 5.5v80.7c0 3.733 1.7 5.6 5.1 5.6h61.1c3.4 0 5.1-1.867 5.1-5.6" style="-inkscape-font-specification:Droid Serif" font-size="100" font-family="Droid Serif"/></svg>