<svg xmlns="http://www.w3.org/2000/svg" width="74.7" height="95.1"><path d="M74.7 87.9c0 4.8-2.267 7.2-6.8 7.2H6.8c-4.533 0-6.8-2.4-6.8-7.2V7.2C0 2.4 2.267 0 6.8 0h61.1c4.533 0 6.8 2.4 6.8 7.2v80.7m-1.7 0V7.2c0-3.667-1.7-5.5-5.1-5.5H6.8c-3.4 0-5.1 1.833-5.1 5.5v80.7c0 3.733 1.7 5.6 5.1 5.6h61.1c3.4 0 5.1-1.867 5.1-5.6" style="-inkscape-font-specification:Droid Serif" font-size="100" font-family="Droid Serif"/><path d="M4.276 92.72c-.79-.397-1.316-.907-1.758-1.703l-.632-1.137V5.28l.632-1.137c.442-.796.968-1.306 1.758-1.704l1.127-.57h63.93l1.127.57c.863.43 1.275.86 1.758 1.83l.632 1.26v84.094l-.632 1.262c-.483.966-.895 1.395-1.758 1.83l-1.127.57H5.403l-1.127-.57z" fill="#fff"/><path d="M61.5 58.8c0 3-1.033 5.5-3.1 7.5s-4.533 3-7.4 3c-2.933 0-5.4-1-7.4-3-2-2.067-3-4.533-3-7.4 0-2.933 1-5.4 3-7.4 2-2.067 4.467-3.1 7.4-3.1 2.933 0 5.4 1.033 7.4 3.1 2.067 2 3.1 4.433 3.1 7.3m-.8 0c0-2.667-.967-4.933-2.9-6.8-1.867-1.933-4.167-2.9-6.9-2.9-2.667 0-4.933.967-6.8 2.9-1.867 1.867-2.8 4.133-2.8 6.8 0 2.8.933 5.133 2.8 7 1.933 1.8 4.233 2.7 6.9 2.7 2.733 0 5.033-.933 6.9-2.8 1.867-1.867 2.8-4.167 2.8-6.9M51 50.3c2.467 0 4.5.833 6.1 2.5 1.667 1.667 2.5 3.667 2.5 6 0 2.467-.833 4.533-2.5 6.2-1.667 1.6-3.7 2.4-6.1 2.4-2.4 0-4.433-.833-6.1-2.5-1.667-1.667-2.5-3.7-2.5-6.1 0-2.4.833-4.4 2.5-6 1.733-1.667 3.767-2.5 6.1-2.5m-5.6 14.2c1.533 1.467 3.367 2.2 5.5 2.2 2.2 0 4.067-.733 5.6-2.2 1.533-1.533 2.3-3.433 2.3-5.7 0-2.133-.767-3.967-2.3-5.5-1.467-1.533-3.3-2.3-5.5-2.3s-4.067.767-5.6 2.3c-1.467 1.533-2.2 3.367-2.2 5.5 0 2.267.733 4.167 2.2 5.7m10.8-7.8c.6 0 1.1.233 1.5.7.467.4.7.9.7 1.5s-.2 1.1-.6 1.5c-.4.4-.933.6-1.6.6h-1.5c.733 1.2 1.1 2 1.1 2.4 0 .6-.233 1.133-.7 1.6-.4.4-.933.6-1.6.6H53c-.133-.067-.3-.167-.5-.3-.133-.133-.267-.233-.4-.3-.067-.133-.167-.267-.3-.4-.133-.2-.233-.333-.3-.4-.067-.133-.167-.3-.3-.5-.067-.267-.133-.433-.2-.5-.6 1.067-1.067 1.733-1.4 2-.333.2-.733.3-1.2.3-.6 0-1.133-.2-1.6-.6-.4-.4-.6-.867-.6-1.4 0-.467.367-1.3 1.1-2.5h-1.5c-.6 0-1.133-.2-1.6-.6-.4-.467-.6-1-.6-1.6 0-.667.2-1.167.6-1.5.4-.4.933-.6 1.6-.6h1.5c-.733-1.2-1.1-2-1.1-2.4 0-.6.2-1.1.6-1.5.467-.467 1.033-.7 1.7-.7.2 0 .4.067.6.2.2.067.367.133.5.2s.267.233.4.5c.2.2.3.333.3.4.067.067.167.267.3.6.2.333.333.533.4.6.667-1.2 1.133-1.9 1.4-2.1.333-.2.733-.3 1.2-.3.6 0 1.1.2 1.5.6.467.4.7.9.7 1.5 0 .333-.367 1.133-1.1 2.4h1.5m-2.7 8.1c.4 0 .733-.133 1-.4.333-.267.5-.6.5-1 0-.267-.067-.5-.2-.7l-1.4-2.5h2.8c.933 0 1.4-.433 1.4-1.3 0-.933-.467-1.4-1.4-1.4h-2.8l1.4-2.4c.133-.333.2-.633.2-.9 0-.333-.133-.633-.4-.9s-.6-.4-1-.4c-.533 0-.933.233-1.2.7L51 56.1l-1.4-2.5c-.267-.467-.633-.7-1.1-.7-.4 0-.767.133-1.1.4-.267.267-.4.6-.4 1 0 .267.067.533.2.8l1.4 2.4h-2.8c-.933 0-1.4.467-1.4 1.4 0 .867.467 1.3 1.4 1.3h2.8l-1.4 2.5c-.2.267-.3.533-.3.8 0 .333.133.633.4.9.333.267.7.4 1.1.4.533 0 .933-.267 1.2-.8l1.4-2.3 1.4 2.3c.267.533.633.8 1.1.8m-4.1-7.5c.467-.467 1-.7 1.6-.7.6 0 1.133.233 1.6.7.467.4.7.9.7 1.5 0 .667-.233 1.233-.7 1.7-.467.4-1.033.6-1.7.6-.6 0-1.133-.2-1.6-.6-.4-.467-.6-1.033-.6-1.7 0-.6.233-1.1.7-1.5m1.6 3c.4 0 .733-.133 1-.4.333-.267.5-.6.5-1 0-.467-.167-.833-.5-1.1-.267-.333-.633-.5-1.1-.5-.4 0-.733.167-1 .5-.267.267-.4.6-.4 1 0 .467.133.833.4 1.1.333.267.7.4 1.1.4m.8-1.5c0 .533-.267.8-.8.8-.467 0-.7-.267-.7-.8 0-.467.233-.7.7-.7.533 0 .8.233.8.7m9.7 22.3c0 3-1.033 5.5-3.1 7.5s-4.533 3-7.4 3c-2.933 0-5.4-1.033-7.4-3.1-2-2-3-4.467-3-7.4 0-2.867 1-5.3 3-7.3 2-2.067 4.467-3.1 7.4-3.1 2.933 0 5.4 1.033 7.4 3.1 2.067 2 3.1 4.433 3.1 7.3m-.8 0c0-2.667-.967-4.933-2.9-6.8-1.867-1.933-4.167-2.9-6.9-2.9-2.667 0-4.933.967-6.8 2.9-1.867 1.867-2.8 4.133-2.8 6.8 0 2.8.933 5.1 2.8 6.9 1.933 1.867 4.233 2.8 6.9 2.8 2.733 0 5.033-.933 6.9-2.8 1.867-1.867 2.8-4.167 2.8-6.9M51 72.6c2.467 0 4.5.833 6.1 2.5 1.667 1.667 2.5 3.667 2.5 6 0 2.467-.833 4.5-2.5 6.1-1.667 1.667-3.7 2.5-6.1 2.5-2.4 0-4.433-.833-6.1-2.5-1.667-1.667-2.5-3.7-2.5-6.1 0-2.4.833-4.4 2.5-6 1.733-1.667 3.767-2.5 6.1-2.5m-5.6 14.1c1.533 1.533 3.367 2.3 5.5 2.3 2.2 0 4.067-.767 5.6-2.3 1.533-1.467 2.3-3.333 2.3-5.6 0-2.133-.767-3.967-2.3-5.5-1.467-1.533-3.3-2.3-5.5-2.3s-4.067.767-5.6 2.3c-1.467 1.533-2.2 3.367-2.2 5.5 0 2.267.733 4.133 2.2 5.6M56.2 79c.6 0 1.1.2 1.5.6.467.467.7 1 .7 1.6 0 .6-.2 1.1-.6 1.5-.4.4-.933.6-1.6.6h-1.5c.733 1.2 1.1 2 1.1 2.4 0 .6-.233 1.1-.7 1.5-.4.467-.933.7-1.6.7-.133 0-.3-.033-.5-.1-.133 0-.3-.067-.5-.2l-.4-.4c-.067-.067-.167-.2-.3-.4-.133-.133-.233-.267-.3-.4-.067-.067-.167-.233-.3-.5-.067-.2-.133-.333-.2-.4-.6 1.067-1.067 1.733-1.4 2-.333.2-.733.3-1.2.3-.6 0-1.133-.2-1.6-.6-.4-.4-.6-.867-.6-1.4 0-.467.367-1.3 1.1-2.5h-1.5c-.6 0-1.133-.233-1.6-.7-.4-.4-.6-.9-.6-1.5 0-.667.2-1.2.6-1.6.4-.333.933-.5 1.6-.5h1.5c-.733-1.2-1.1-2-1.1-2.4 0-.6.2-1.1.6-1.5.467-.467 1.033-.7 1.7-.7.2 0 .4.067.6.2.2.067.367.133.5.2s.267.233.4.5c.2.2.3.333.3.4.067.067.167.267.3.6.2.333.333.533.4.6.667-1.2 1.133-1.9 1.4-2.1.333-.2.733-.3 1.2-.3.6 0 1.1.2 1.5.6.467.4.7.9.7 1.5 0 .333-.367 1.133-1.1 2.4h1.5m-2.7 8.1c.4 0 .733-.133 1-.4.333-.267.5-.6.5-1 0-.267-.067-.5-.2-.7l-1.4-2.5h2.8c.933 0 1.4-.467 1.4-1.4 0-.867-.467-1.3-1.4-1.3h-2.8l1.4-2.4c.133-.333.2-.633.2-.9 0-.333-.133-.633-.4-.9s-.6-.4-1-.4c-.533 0-.933.233-1.2.7L51 78.4l-1.4-2.5c-.267-.467-.633-.7-1.1-.7-.4 0-.767.133-1.1.4-.267.267-.4.6-.4 1 0 .267.067.533.2.8l1.4 2.4h-2.8c-.933 0-1.4.433-1.4 1.3 0 .933.467 1.4 1.4 1.4h2.8L47.2 85c-.2.267-.3.533-.3.8 0 .333.133.633.4.9.333.267.7.4 1.1.4.533 0 .933-.267 1.2-.8L51 84l1.4 2.3c.267.533.633.8 1.1.8m-4.1-7.6c.467-.4 1-.6 1.6-.6.6 0 1.133.2 1.6.6.467.467.7 1 .7 1.6 0 .667-.233 1.2-.7 1.6-.467.467-1.033.7-1.7.7-.6 0-1.133-.233-1.6-.7-.4-.4-.6-.933-.6-1.6 0-.6.233-1.133.7-1.6m1.6 3.1c.4 0 .733-.133 1-.4.333-.267.5-.633.5-1.1 0-.4-.167-.767-.5-1.1-.267-.267-.633-.4-1.1-.4-.4 0-.733.133-1 .4-.267.333-.4.7-.4 1.1 0 .467.133.833.4 1.1.333.267.7.4 1.1.4m.8-1.5c0 .533-.267.8-.8.8-.467 0-.7-.267-.7-.8 0-.467.233-.7.7-.7.533 0 .8.233.8.7m9.7-67.2c0 3-1.033 5.5-3.1 7.5s-4.533 3-7.4 3c-2.933 0-5.4-1-7.4-3-2-2.067-3-4.533-3-7.4 0-2.933 1-5.4 3-7.4 2-2.067 4.467-3.1 7.4-3.1 2.933 0 5.4 1.033 7.4 3.1 2.067 2 3.1 4.433 3.1 7.3m-.8 0c0-2.667-.967-4.933-2.9-6.8-1.867-1.933-4.167-2.9-6.9-2.9-2.667 0-4.933.967-6.8 2.9-1.867 1.867-2.8 4.133-2.8 6.8 0 2.8.933 5.133 2.8 7 1.933 1.8 4.233 2.7 6.9 2.7 2.733 0 5.033-.933 6.9-2.8 1.867-1.867 2.8-4.167 2.8-6.9M51 5.4c2.467 0 4.5.833 6.1 2.5 1.667 1.667 2.5 3.667 2.5 6 0 2.467-.833 4.533-2.5 6.2-1.667 1.6-3.7 2.4-6.1 2.4-2.4 0-4.433-.833-6.1-2.5-1.667-1.667-2.5-3.7-2.5-6.1 0-2.4.833-4.4 2.5-6 1.733-1.667 3.767-2.5 6.1-2.5m-5.6 14.2c1.533 1.467 3.367 2.2 5.5 2.2 2.2 0 4.067-.733 5.6-2.2 1.533-1.533 2.3-3.433 2.3-5.7 0-2.133-.767-3.967-2.3-5.5-1.467-1.533-3.3-2.3-5.5-2.3s-4.067.767-5.6 2.3c-1.467 1.533-2.2 3.367-2.2 5.5 0 2.267.733 4.167 2.2 5.7m10.8-7.8c.6 0 1.1.233 1.5.7.467.4.7.9.7 1.5s-.2 1.1-.6 1.5c-.4.4-.933.6-1.6.6h-1.5c.733 1.2 1.1 2 1.1 2.4 0 .6-.233 1.133-.7 1.6-.4.4-.933.6-1.6.6H53c-.133-.067-.3-.167-.5-.3-.133-.133-.267-.233-.4-.3-.067-.133-.167-.267-.3-.4-.133-.2-.233-.333-.3-.4-.067-.133-.167-.3-.3-.5-.067-.267-.133-.433-.2-.5-.6 1.067-1.067 1.733-1.4 2-.333.2-.733.3-1.2.3-.6 0-1.133-.2-1.6-.6-.4-.4-.6-.867-.6-1.4 0-.467.367-1.3 1.1-2.5h-1.5c-.6 0-1.133-.2-1.6-.6-.4-.467-.6-1-.6-1.6 0-.667.2-1.167.6-1.5.4-.4.933-.6 1.6-.6h1.5c-.733-1.2-1.1-2-1.1-2.4 0-.6.2-1.1.6-1.5.467-.467 1.033-.7 1.7-.7.2 0 .4.067.6.2.2.067.367.133.5.2s.267.233.4.5c.2.2.3.333.3.4.067.067.167.267.3.6.2.333.333.533.4.6.667-1.2 1.133-1.9 1.4-2.1.333-.2.733-.3 1.2-.3.6 0 1.1.2 1.5.6.467.4.7.9.7 1.5 0 .333-.367 1.133-1.1 2.4h1.5m-2.7 8.1c.4 0 .733-.133 1-.4.333-.267.5-.6.5-1 0-.267-.067-.5-.2-.7l-1.4-2.5h2.8c.933 0 1.4-.433 1.4-1.3 0-.933-.467-1.4-1.4-1.4h-2.8l1.4-2.4c.133-.333.2-.633.2-.9 0-.333-.133-.633-.4-.9s-.6-.4-1-.4c-.533 0-.933.233-1.2.7L51 11.2l-1.4-2.5c-.267-.467-.633-.7-1.1-.7-.4 0-.767.133-1.1.4-.267.267-.4.6-.4 1 0 .267.067.533.2.8l1.4 2.4h-2.8c-.933 0-1.4.467-1.4 1.4 0 .867.467 1.3 1.4 1.3h2.8l-1.4 2.5c-.2.267-.3.533-.3.8 0 .333.133.633.4.9.333.267.7.4 1.1.4.533 0 .933-.267 1.2-.8l1.4-2.3 1.4 2.3c.267.533.633.8 1.1.8m-4.1-7.5c.467-.467 1-.7 1.6-.7.6 0 1.133.233 1.6.7.467.4.7.9.7 1.5 0 .667-.233 1.233-.7 1.7-.467.4-1.033.6-1.7.6-.6 0-1.133-.2-1.6-.6-.4-.467-.6-1.033-.6-1.7 0-.6.233-1.1.7-1.5m1.6 3c.4 0 .733-.133 1-.4.333-.267.5-.6.5-1 0-.467-.167-.833-.5-1.1-.267-.333-.633-.5-1.1-.5-.4 0-.733.167-1 .5-.267.267-.4.6-.4 1 0 .467.133.833.4 1.1.333.267.7.4 1.1.4m.8-1.5c0 .533-.267.8-.8.8-.467 0-.7-.267-.7-.8 0-.467.233-.7.7-.7.533 0 .8.233.8.7m9.7 22.3c0 3-1.033 5.5-3.1 7.5s-4.533 3-7.4 3c-2.933 0-5.4-1-7.4-3-2-2.067-3-4.533-3-7.4 0-2.933 1-5.4 3-7.4 2-2.067 4.467-3.1 7.4-3.1 2.933 0 5.4 1.033 7.4 3.1 2.067 2 3.1 4.433 3.1 7.3m-.8 0c0-2.667-.967-4.933-2.9-6.8-1.867-1.933-4.167-2.9-6.9-2.9-2.667 0-4.933.967-6.8 2.9-1.867 1.867-2.8 4.133-2.8 6.8 0 2.8.933 5.133 2.8 7 1.933 1.8 4.233 2.7 6.9 2.7 2.733 0 5.033-.933 6.9-2.8 1.867-1.867 2.8-4.167 2.8-6.9M51 27.7c2.467 0 4.5.833 6.1 2.5 1.667 1.667 2.5 3.667 2.5 6 0 2.467-.833 4.533-2.5 6.2-1.667 1.6-3.7 2.4-6.1 2.4-2.4 0-4.433-.833-6.1-2.5-1.667-1.667-2.5-3.7-2.5-6.1 0-2.4.833-4.4 2.5-6 1.733-1.667 3.767-2.5 6.1-2.5m-5.6 14.2c1.533 1.467 3.367 2.2 5.5 2.2 2.2 0 4.067-.733 5.6-2.2 1.533-1.533 2.3-3.433 2.3-5.7 0-2.133-.767-3.967-2.3-5.5-1.467-1.533-3.3-2.3-5.5-2.3s-4.067.767-5.6 2.3c-1.467 1.533-2.2 3.367-2.2 5.5 0 2.267.733 4.167 2.2 5.7m10.8-7.8c.6 0 1.1.233 1.5.7.467.4.7.9.7 1.5s-.2 1.1-.6 1.5c-.4.4-.933.6-1.6.6h-1.5c.733 1.2 1.1 2 1.1 2.4 0 .6-.233 1.133-.7 1.6-.4.4-.933.6-1.6.6H53c-.133-.067-.3-.167-.5-.3-.133-.133-.267-.233-.4-.3-.067-.133-.167-.267-.3-.4-.133-.2-.233-.333-.3-.4-.067-.133-.167-.3-.3-.5-.067-.267-.133-.433-.2-.5-.6 1.067-1.067 1.733-1.4 2-.333.2-.733.3-1.2.3-.6 0-1.133-.2-1.6-.6-.4-.4-.6-.867-.6-1.4 0-.467.367-1.3 1.1-2.5h-1.5c-.6 0-1.133-.2-1.6-.6-.4-.467-.6-1-.6-1.6 0-.667.2-1.167.6-1.5.4-.4.933-.6 1.6-.6h1.5c-.733-1.2-1.1-2-1.1-2.4 0-.6.2-1.1.6-1.5.467-.467 1.033-.7 1.7-.7.2 0 .4.067.6.2.2.067.367.133.5.2s.267.233.4.5c.2.2.3.333.3.4.067.067.167.267.3.6.2.333.333.533.4.6.667-1.2 1.133-1.9 1.4-2.1.333-.2.733-.3 1.2-.3.6 0 1.1.2 1.5.6.467.4.7.9.7 1.5 0 .333-.367 1.133-1.1 2.4h1.5m-2.7 8.1c.4 0 .733-.133 1-.4.333-.267.5-.6.5-1 0-.267-.067-.5-.2-.7l-1.4-2.5h2.8c.933 0 1.4-.433 1.4-1.3 0-.933-.467-1.4-1.4-1.4h-2.8l1.4-2.4c.133-.333.2-.633.2-.9 0-.333-.133-.633-.4-.9s-.6-.4-1-.4c-.533 0-.933.233-1.2.7L51 33.5 49.6 31c-.267-.467-.633-.7-1.1-.7-.4 0-.767.133-1.1.4-.267.267-.4.6-.4 1 0 .267.067.533.2.8l1.4 2.4h-2.8c-.933 0-1.4.467-1.4 1.4 0 .867.467 1.3 1.4 1.3h2.8l-1.4 2.5c-.2.267-.3.533-.3.8 0 .333.133.633.4.9.333.267.7.4 1.1.4.533 0 .933-.267 1.2-.8l1.4-2.3 1.4 2.3c.267.533.633.8 1.1.8m-4.1-7.5c.467-.467 1-.7 1.6-.7.6 0 1.133.233 1.6.7.467.4.7.9.7 1.5 0 .667-.233 1.233-.7 1.7-.467.4-1.033.6-1.7.6-.6 0-1.133-.2-1.6-.6-.4-.467-.6-1.033-.6-1.7 0-.6.233-1.1.7-1.5m1.6 3c.4 0 .733-.133 1-.4.333-.267.5-.6.5-1 0-.467-.167-.833-.5-1.1-.267-.333-.633-.5-1.1-.5-.4 0-.733.167-1 .5-.267.267-.4.6-.4 1 0 .467.133.833.4 1.1.333.267.7.4 1.1.4m.8-1.5c0 .533-.267.8-.8.8-.467 0-.7-.267-.7-.8 0-.467.233-.7.7-.7.533 0 .8.233.8.7M34.1 58.8c0 3-1.033 5.5-3.1 7.5s-4.533 3-7.4 3c-2.933 0-5.4-1-7.4-3-2-2.067-3-4.533-3-7.4 0-2.933 1-5.4 3-7.4 2-2.067 4.467-3.1 7.4-3.1 2.933 0 5.4 1.033 7.4 3.1 2.067 2 3.1 4.433 3.1 7.3m-.8 0c0-2.667-.967-4.933-2.9-6.8-1.867-1.933-4.167-2.9-6.9-2.9-2.667 0-4.933.967-6.8 2.9-1.867 1.867-2.8 4.133-2.8 6.8 0 2.8.933 5.133 2.8 7 1.933 1.8 4.233 2.7 6.9 2.7 2.733 0 5.033-.933 6.9-2.8 1.867-1.867 2.8-4.167 2.8-6.9m-9.7-8.5c2.467 0 4.5.833 6.1 2.5 1.667 1.667 2.5 3.667 2.5 6 0 2.467-.833 4.533-2.5 6.2-1.667 1.6-3.7 2.4-6.1 2.4-2.4 0-4.433-.833-6.1-2.5-1.667-1.667-2.5-3.7-2.5-6.1 0-2.4.833-4.4 2.5-6 1.733-1.667 3.767-2.5 6.1-2.5M18 64.5c1.533 1.467 3.367 2.2 5.5 2.2 2.2 0 4.067-.733 5.6-2.2 1.533-1.533 2.3-3.433 2.3-5.7 0-2.133-.767-3.967-2.3-5.5-1.467-1.533-3.3-2.3-5.5-2.3s-4.067.767-5.6 2.3c-1.467 1.533-2.2 3.367-2.2 5.5 0 2.267.733 4.167 2.2 5.7m10.8-7.8c.6 0 1.1.233 1.5.7.467.4.7.9.7 1.5s-.2 1.1-.6 1.5c-.4.4-.933.6-1.6.6h-1.5c.733 1.2 1.1 2 1.1 2.4 0 .6-.233 1.133-.7 1.6-.4.4-.933.6-1.6.6h-.5c-.133-.067-.3-.167-.5-.3-.133-.133-.267-.233-.4-.3-.067-.133-.167-.267-.3-.4-.133-.2-.233-.333-.3-.4-.067-.133-.167-.3-.3-.5-.067-.267-.133-.433-.2-.5-.6 1.067-1.067 1.733-1.4 2-.333.2-.733.3-1.2.3-.6 0-1.133-.2-1.6-.6-.4-.4-.6-.867-.6-1.4 0-.467.367-1.3 1.1-2.5h-1.5c-.6 0-1.133-.2-1.6-.6-.4-.467-.6-1-.6-1.6 0-.667.2-1.167.6-1.5.4-.4.933-.6 1.6-.6h1.5c-.733-1.2-1.1-2-1.1-2.4 0-.6.2-1.1.6-1.5.467-.467 1.033-.7 1.7-.7.2 0 .4.067.6.2.2.067.367.133.5.2s.267.233.4.5c.2.2.3.333.3.4.067.067.167.267.3.6.2.333.333.533.4.6.667-1.2 1.133-1.9 1.4-2.1.333-.2.733-.3 1.2-.3.6 0 1.1.2 1.5.6.467.4.7.9.7 1.5 0 .333-.367 1.133-1.1 2.4h1.5m-2.7 8.1c.4 0 .733-.133 1-.4.333-.267.5-.6.5-1 0-.267-.067-.5-.2-.7L26 60.2h2.8c.933 0 1.4-.433 1.4-1.3 0-.933-.467-1.4-1.4-1.4H26l1.4-2.4c.133-.333.2-.633.2-.9 0-.333-.133-.633-.4-.9s-.6-.4-1-.4c-.533 0-.933.233-1.2.7l-1.4 2.5-1.4-2.5c-.267-.467-.633-.7-1.1-.7-.4 0-.767.133-1.1.4-.267.267-.4.6-.4 1 0 .267.067.533.2.8l1.4 2.4h-2.8c-.933 0-1.4.467-1.4 1.4 0 .867.467 1.3 1.4 1.3h2.8l-1.4 2.5c-.2.267-.3.533-.3.8 0 .333.133.633.4.9.333.267.7.4 1.1.4.533 0 .933-.267 1.2-.8l1.4-2.3L25 64c.267.533.633.8 1.1.8M22 57.3c.467-.467 1-.7 1.6-.7.6 0 1.133.233 1.6.7.467.4.7.9.7 1.5 0 .667-.233 1.233-.7 1.7-.467.4-1.033.6-1.7.6-.6 0-1.133-.2-1.6-.6-.4-.467-.6-1.033-.6-1.7 0-.6.233-1.1.7-1.5m1.6 3c.4 0 .733-.133 1-.4.333-.267.5-.6.5-1 0-.467-.167-.833-.5-1.1-.267-.333-.633-.5-1.1-.5-.4 0-.733.167-1 .5-.267.267-.4.6-.4 1 0 .467.133.833.4 1.1.333.267.7.4 1.1.4m.8-1.5c0 .533-.267.8-.8.8-.467 0-.7-.267-.7-.8 0-.467.233-.7.7-.7.533 0 .8.233.8.7m9.7 22.3c0 3-1.033 5.5-3.1 7.5s-4.533 3-7.4 3c-2.933 0-5.4-1.033-7.4-3.1-2-2-3-4.467-3-7.4 0-2.867 1-5.3 3-7.3 2-2.067 4.467-3.1 7.4-3.1 2.933 0 5.4 1.033 7.4 3.1 2.067 2 3.1 4.433 3.1 7.3m-.8 0c0-2.667-.967-4.933-2.9-6.8-1.867-1.933-4.167-2.9-6.9-2.9-2.667 0-4.933.967-6.8 2.9-1.867 1.867-2.8 4.133-2.8 6.8 0 2.8.933 5.1 2.8 6.9 1.933 1.867 4.233 2.8 6.9 2.8 2.733 0 5.033-.933 6.9-2.8 1.867-1.867 2.8-4.167 2.8-6.9m-9.7-8.5c2.467 0 4.5.833 6.1 2.5 1.667 1.667 2.5 3.667 2.5 6 0 2.467-.833 4.5-2.5 6.1-1.667 1.667-3.7 2.5-6.1 2.5-2.4 0-4.433-.833-6.1-2.5-1.667-1.667-2.5-3.7-2.5-6.1 0-2.4.833-4.4 2.5-6 1.733-1.667 3.767-2.5 6.1-2.5M18 86.7c1.533 1.533 3.367 2.3 5.5 2.3 2.2 0 4.067-.767 5.6-2.3 1.533-1.467 2.3-3.333 2.3-5.6 0-2.133-.767-3.967-2.3-5.5-1.467-1.533-3.3-2.3-5.5-2.3s-4.067.767-5.6 2.3c-1.467 1.533-2.2 3.367-2.2 5.5 0 2.267.733 4.133 2.2 5.6M28.8 79c.6 0 1.1.2 1.5.6.467.467.7 1 .7 1.6 0 .6-.2 1.1-.6 1.5-.4.4-.933.6-1.6.6h-1.5c.733 1.2 1.1 2 1.1 2.4 0 .6-.233 1.1-.7 1.5-.4.467-.933.7-1.6.7-.133 0-.3-.033-.5-.1-.133 0-.3-.067-.5-.2l-.4-.4c-.067-.067-.167-.2-.3-.4-.133-.133-.233-.267-.3-.4-.067-.067-.167-.233-.3-.5-.067-.2-.133-.333-.2-.4-.6 1.067-1.067 1.733-1.4 2-.333.2-.733.3-1.2.3-.6 0-1.133-.2-1.6-.6-.4-.4-.6-.867-.6-1.4 0-.467.367-1.3 1.1-2.5h-1.5c-.6 0-1.133-.233-1.6-.7-.4-.4-.6-.9-.6-1.5 0-.667.2-1.2.6-1.6.4-.333.933-.5 1.6-.5h1.5c-.733-1.2-1.1-2-1.1-2.4 0-.6.2-1.1.6-1.5.467-.467 1.033-.7 1.7-.7.2 0 .4.067.6.2.2.067.367.133.5.2s.267.233.4.5c.2.2.3.333.3.4.067.067.167.267.3.6.2.333.333.533.4.6.667-1.2 1.133-1.9 1.4-2.1.333-.2.733-.3 1.2-.3.6 0 1.1.2 1.5.6.467.4.7.9.7 1.5 0 .333-.367 1.133-1.1 2.4h1.5m-2.7 8.1c.4 0 .733-.133 1-.4.333-.267.5-.6.5-1 0-.267-.067-.5-.2-.7L26 82.5h2.8c.933 0 1.4-.467 1.4-1.4 0-.867-.467-1.3-1.4-1.3H26l1.4-2.4c.133-.333.2-.633.2-.9 0-.333-.133-.633-.4-.9s-.6-.4-1-.4c-.533 0-.933.233-1.2.7l-1.4 2.5-1.4-2.5c-.267-.467-.633-.7-1.1-.7-.4 0-.767.133-1.1.4-.267.267-.4.6-.4 1 0 .267.067.533.2.8l1.4 2.4h-2.8c-.933 0-1.4.433-1.4 1.3 0 .933.467 1.4 1.4 1.4h2.8L19.8 85c-.2.267-.3.533-.3.8 0 .333.133.633.4.9.333.267.7.4 1.1.4.533 0 .933-.267 1.2-.8l1.4-2.3 1.4 2.3c.267.533.633.8 1.1.8M22 79.5c.467-.4 1-.6 1.6-.6.6 0 1.133.2 1.6.6.467.467.7 1 .7 1.6 0 .667-.233 1.2-.7 1.6-.467.467-1.033.7-1.7.7-.6 0-1.133-.233-1.6-.7-.4-.4-.6-.933-.6-1.6 0-.6.233-1.133.7-1.6m1.6 3.1c.4 0 .733-.133 1-.4.333-.267.5-.633.5-1.1 0-.4-.167-.767-.5-1.1-.267-.267-.633-.4-1.1-.4-.4 0-.733.133-1 .4-.267.333-.4.7-.4 1.1 0 .467.133.833.4 1.1.333.267.7.4 1.1.4m.8-1.5c0 .533-.267.8-.8.8-.467 0-.7-.267-.7-.8 0-.467.233-.7.7-.7.533 0 .8.233.8.7m9.7-67.2c0 3-1.033 5.5-3.1 7.5s-4.533 3-7.4 3c-2.933 0-5.4-1-7.4-3-2-2.067-3-4.533-3-7.4 0-2.933 1-5.4 3-7.4 2-2.067 4.467-3.1 7.4-3.1 2.933 0 5.4 1.033 7.4 3.1 2.067 2 3.1 4.433 3.1 7.3m-.8 0c0-2.667-.967-4.933-2.9-6.8-1.867-1.933-4.167-2.9-6.9-2.9-2.667 0-4.933.967-6.8 2.9-1.867 1.867-2.8 4.133-2.8 6.8 0 2.8.933 5.133 2.8 7 1.933 1.8 4.233 2.7 6.9 2.7 2.733 0 5.033-.933 6.9-2.8 1.867-1.867 2.8-4.167 2.8-6.9m-9.7-8.5c2.467 0 4.5.833 6.1 2.5 1.667 1.667 2.5 3.667 2.5 6 0 2.467-.833 4.533-2.5 6.2-1.667 1.6-3.7 2.4-6.1 2.4-2.4 0-4.433-.833-6.1-2.5-1.667-1.667-2.5-3.7-2.5-6.1 0-2.4.833-4.4 2.5-6 1.733-1.667 3.767-2.5 6.1-2.5M18 19.6c1.533 1.467 3.367 2.2 5.5 2.2 2.2 0 4.067-.733 5.6-2.2 1.533-1.533 2.3-3.433 2.3-5.7 0-2.133-.767-3.967-2.3-5.5-1.467-1.533-3.3-2.3-5.5-2.3s-4.067.767-5.6 2.3c-1.467 1.533-2.2 3.367-2.2 5.5 0 2.267.733 4.167 2.2 5.7m10.8-7.8c.6 0 1.1.233 1.5.7.467.4.7.9.7 1.5s-.2 1.1-.6 1.5c-.4.4-.933.6-1.6.6h-1.5c.733 1.2 1.1 2 1.1 2.4 0 .6-.233 1.133-.7 1.6-.4.4-.933.6-1.6.6h-.5c-.133-.067-.3-.167-.5-.3-.133-.133-.267-.233-.4-.3-.067-.133-.167-.267-.3-.4-.133-.2-.233-.333-.3-.4-.067-.133-.167-.3-.3-.5-.067-.267-.133-.433-.2-.5-.6 1.067-1.067 1.733-1.4 2-.333.2-.733.3-1.2.3-.6 0-1.133-.2-1.6-.6-.4-.4-.6-.867-.6-1.4 0-.467.367-1.3 1.1-2.5h-1.5c-.6 0-1.133-.2-1.6-.6-.4-.467-.6-1-.6-1.6 0-.667.2-1.167.6-1.5.4-.4.933-.6 1.6-.6h1.5c-.733-1.2-1.1-2-1.1-2.4 0-.6.2-1.1.6-1.5.467-.467 1.033-.7 1.7-.7.2 0 .4.067.6.2.2.067.367.133.5.2s.267.233.4.5c.2.2.3.333.3.4.067.067.167.267.3.6.2.333.333.533.4.6.667-1.2 1.133-1.9 1.4-2.1.333-.2.733-.3 1.2-.3.6 0 1.1.2 1.5.6.467.4.7.9.7 1.5 0 .333-.367 1.133-1.1 2.4h1.5m-2.7 8.1c.4 0 .733-.133 1-.4.333-.267.5-.6.5-1 0-.267-.067-.5-.2-.7L26 15.3h2.8c.933 0 1.4-.433 1.4-1.3 0-.933-.467-1.4-1.4-1.4H26l1.4-2.4c.133-.333.2-.633.2-.9 0-.333-.133-.633-.4-.9s-.6-.4-1-.4c-.533 0-.933.233-1.2.7l-1.4 2.5-1.4-2.5c-.267-.467-.633-.7-1.1-.7-.4 0-.767.133-1.1.4-.267.267-.4.6-.4 1 0 .267.067.533.2.8l1.4 2.4h-2.8c-.933 0-1.4.467-1.4 1.4 0 .867.467 1.3 1.4 1.3h2.8l-1.4 2.5c-.2.267-.3.533-.3.8 0 .333.133.633.4.9.333.267.7.4 1.1.4.533 0 .933-.267 1.2-.8l1.4-2.3 1.4 2.3c.267.533.633.8 1.1.8M22 12.4c.467-.467 1-.7 1.6-.7.6 0 1.133.233 1.6.7.467.4.7.9.7 1.5 0 .667-.233 1.233-.7 1.7-.467.4-1.033.6-1.7.6-.6 0-1.133-.2-1.6-.6-.4-.467-.6-1.033-.6-1.7 0-.6.233-1.1.7-1.5m1.6 3c.4 0 .733-.133 1-.4.333-.267.5-.6.5-1 0-.467-.167-.833-.5-1.1-.267-.333-.633-.5-1.1-.5-.4 0-.733.167-1 .5-.267.267-.4.6-.4 1 0 .467.133.833.4 1.1.333.267.7.4 1.1.4m.8-1.5c0 .533-.267.8-.8.8-.467 0-.7-.267-.7-.8 0-.467.233-.7.7-.7.533 0 .8.233.8.7m9.7 22.3c0 3-1.033 5.5-3.1 7.5s-4.533 3-7.4 3c-2.933 0-5.4-1-7.4-3-2-2.067-3-4.533-3-7.4 0-2.933 1-5.4 3-7.4 2-2.067 4.467-3.1 7.4-3.1 2.933 0 5.4 1.033 7.4 3.1 2.067 2 3.1 4.433 3.1 7.3m-.8 0c0-2.667-.967-4.933-2.9-6.8-1.867-1.933-4.167-2.9-6.9-2.9-2.667 0-4.933.967-6.8 2.9-1.867 1.867-2.8 4.133-2.8 6.8 0 2.8.933 5.133 2.8 7 1.933 1.8 4.233 2.7 6.9 2.7 2.733 0 5.033-.933 6.9-2.8 1.867-1.867 2.8-4.167 2.8-6.9m-9.7-8.5c2.467 0 4.5.833 6.1 2.5 1.667 1.667 2.5 3.667 2.5 6 0 2.467-.833 4.533-2.5 6.2-1.667 1.6-3.7 2.4-6.1 2.4-2.4 0-4.433-.833-6.1-2.5-1.667-1.667-2.5-3.7-2.5-6.1 0-2.4.833-4.4 2.5-6 1.733-1.667 3.767-2.5 6.1-2.5M18 41.9c1.533 1.467 3.367 2.2 5.5 2.2 2.2 0 4.067-.733 5.6-2.2 1.533-1.533 2.3-3.433 2.3-5.7 0-2.133-.767-3.967-2.3-5.5-1.467-1.533-3.3-2.3-5.5-2.3s-4.067.767-5.6 2.3c-1.467 1.533-2.2 3.367-2.2 5.5 0 2.267.733 4.167 2.2 5.7m10.8-7.8c.6 0 1.1.233 1.5.7.467.4.7.9.7 1.5s-.2 1.1-.6 1.5c-.4.4-.933.6-1.6.6h-1.5c.733 1.2 1.1 2 1.1 2.4 0 .6-.233 1.133-.7 1.6-.4.4-.933.6-1.6.6h-.5c-.133-.067-.3-.167-.5-.3-.133-.133-.267-.233-.4-.3-.067-.133-.167-.267-.3-.4-.133-.2-.233-.333-.3-.4-.067-.133-.167-.3-.3-.5-.067-.267-.133-.433-.2-.5-.6 1.067-1.067 1.733-1.4 2-.333.2-.733.3-1.2.3-.6 0-1.133-.2-1.6-.6-.4-.4-.6-.867-.6-1.4 0-.467.367-1.3 1.1-2.5h-1.5c-.6 0-1.133-.2-1.6-.6-.4-.467-.6-1-.6-1.6 0-.667.2-1.167.6-1.5.4-.4.933-.6 1.6-.6h1.5c-.733-1.2-1.1-2-1.1-2.4 0-.6.2-1.1.6-1.5.467-.467 1.033-.7 1.7-.7.2 0 .4.067.6.2.2.067.367.133.5.2s.267.233.4.5c.2.2.3.333.3.4.067.067.167.267.3.6.2.333.333.533.4.6.667-1.2 1.133-1.9 1.4-2.1.333-.2.733-.3 1.2-.3.6 0 1.1.2 1.5.6.467.4.7.9.7 1.5 0 .333-.367 1.133-1.1 2.4h1.5m-2.7 8.1c.4 0 .733-.133 1-.4.333-.267.5-.6.5-1 0-.267-.067-.5-.2-.7L26 37.6h2.8c.933 0 1.4-.433 1.4-1.3 0-.933-.467-1.4-1.4-1.4H26l1.4-2.4c.133-.333.2-.633.2-.9 0-.333-.133-.633-.4-.9s-.6-.4-1-.4c-.533 0-.933.233-1.2.7l-1.4 2.5-1.4-2.5c-.267-.467-.633-.7-1.1-.7-.4 0-.767.133-1.1.4-.267.267-.4.6-.4 1 0 .267.067.533.2.8l1.4 2.4h-2.8c-.933 0-1.4.467-1.4 1.4 0 .867.467 1.3 1.4 1.3h2.8l-1.4 2.5c-.2.267-.3.533-.3.8 0 .333.133.633.4.9.333.267.7.4 1.1.4.533 0 .933-.267 1.2-.8l1.4-2.3 1.4 2.3c.267.533.633.8 1.1.8M22 34.7c.467-.467 1-.7 1.6-.7.6 0 1.133.233 1.6.7.467.4.7.9.7 1.5 0 .667-.233 1.233-.7 1.7-.467.4-1.033.6-1.7.6-.6 0-1.133-.2-1.6-.6-.4-.467-.6-1.033-.6-1.7 0-.6.233-1.1.7-1.5m1.6 3c.4 0 .733-.133 1-.4.333-.267.5-.6.5-1 0-.467-.167-.833-.5-1.1-.267-.333-.633-.5-1.1-.5-.4 0-.733.167-1 .5-.267.267-.4.6-.4 1 0 .467.133.833.4 1.1.333.267.7.4 1.1.4m.8-1.5c0 .533-.267.8-.8.8-.467 0-.7-.267-.7-.8 0-.467.233-.7.7-.7.533 0 .8.233.8.7" style="-inkscape-font-specification:Droid Serif" font-size="100" fill="#10106c" font-family="Droid Serif"/></svg>