<svg xmlns="http://www.w3.org/2000/svg" width="74.7" height="95.1"><path d="M74.7 87.9c0 4.8-2.267 7.2-6.8 7.2H6.8c-4.533 0-6.8-2.4-6.8-7.2V7.2C0 2.4 2.267 0 6.8 0h61.1c4.533 0 6.8 2.4 6.8 7.2v80.7m-1.7 0V7.2c0-3.667-1.7-5.5-5.1-5.5H6.8c-3.4 0-5.1 1.833-5.1 5.5v80.7c0 3.733 1.7 5.6 5.1 5.6h61.1c3.4 0 5.1-1.867 5.1-5.6" style="-inkscape-font-specification:Droid Serif" font-size="100" font-family="Droid Serif"/><path d="M4.526 92.98c-.893-.36-1.495-.96-2.115-2.12l-.54-1.01V5.25l.63-1.123C2.85 3.51 3.53 2.77 4.02 2.485c.88-.515 1.07-.518 33.335-.518 32.266 0 32.457.003 33.336.518.485.285 1.167 1.024 1.514 1.642l.633 1.123v84.6l-.632 1.115c-.346.612-.95 1.35-1.343 1.64l-.712.53-32.496.047c-21.086.032-32.715-.04-33.122-.202z" fill="#fff"/><path d="M61.9 43.75c-1.667-.133-3.333-.2-5-.2-1.667 0-3.333.067-5 .2v-.8l-.8.6-13.8-19.9-13.7 19.9-.8-.6v.8c-1.667-.133-3.333-.2-5-.2-1.667 0-3.333.067-5 .2.133-5.6.2-11.167.2-16.7 0-5.533-.067-11.067-.2-16.6 1.667.133 3.333.2 5 .2 1.667 0 3.333-.067 5-.2-.133 5.733-.2 11.567-.2 17.5l11.9-17.4c.867.733 1.8 1.467 2.8 2.2 1.067-.733 2.033-1.467 2.9-2.2l11.9 17.4c0-6.133-.067-11.967-.2-17.5 1.667.133 3.333.2 5 .2 1.667 0 3.333-.067 5-.2-.133 5.533-.2 11.067-.2 16.6 0 5.533.067 11.1.2 16.7m0 40.9c-1.667-.133-3.333-.2-5-.2-1.667 0-3.333.067-5 .2.133-5.8.2-11.633.2-17.5l-11.9 17.3-2.9-2.2-2.8 2.2-11.9-17.3c0 6.067.067 11.9.2 17.5-1.667-.133-3.333-.2-5-.2-1.667 0-3.333.067-5 .2.133-5.533.2-11.067.2-16.6 0-5.6-.067-11.167-.2-16.7 1.667.133 3.333.2 5 .2 1.667 0 3.333-.067 5-.2v.8l.8-.7 13.7 20c4.6-6.333 9.2-13 13.8-20l.8.7v-.8c1.667.133 3.333.2 5 .2 1.667 0 3.333-.067 5-.2-.133 5.533-.2 11.1-.2 16.7 0 5.533.067 11.067.2 16.6m-2-72.1h-6c.067 4 .1 7.9.1 11.7h5.7c0-3.8.067-7.7.2-11.7m-.2 15.5v-2H54v2h5.7m-18.8-12.8l-1.2-1.8-.6.5 1.8 1.3m19 26.4c-.133-4.133-.2-8.033-.2-11.7H54c0 3-.033 6.9-.1 11.7 1-.067 2-.1 3-.1l3 .1m-13.6-18.5l-4.2-6.1-3.6 4.9 3.2 4.4 4.6-3.2m2.2 3.1l-1.1-1.6-4.6 3.3 1.1 1.6 4.6-3.3m3.6 5l-2.5-3.5-4.6 3.3 6.6 9.6.3-.2.2-9.2m-12.3-14.4c-1.667-1.067-3.267-2.2-4.8-3.4l-6.6 9.7 4.6 3.2 6.8-9.5m-7.9 11.1l-4.6-3.3-1.1 1.6 4.6 3.3 1.1-1.6m-11.1-15.4h-6c.133 4 .2 7.9.2 11.7h5.6c0-3.8.067-7.7.2-11.7m39.1 40.9c-1 .067-2 .1-3 .1l-3-.1c.067 4.267.1 8.167.1 11.7h5.7c0-3.733.067-7.633.2-11.7m-30.2-22.4l-4.6-3.3-2.5 3.5c0 1.267.033 4.333.1 9.2l.4.2 6.6-9.6m-9.1-3v-2H15v2h5.6m39.1 40.9v-1.9H54v1.9h5.7m-7.6-5.2c0-1.267-.067-4.3-.2-9.1l-.3-.3-6.6 9.7 4.6 3.3 2.5-3.6m-31.3-22.1c-.133-4.267-.2-8.167-.2-11.7H15c0 3.667-.067 7.567-.2 11.7 1-.067 2-.1 3-.1l3 .1m39.1 40.9c-.133-4.067-.2-7.967-.2-11.7H54c0 3.733-.033 7.633-.1 11.7 1-.067 2-.1 3-.1l3 .1m-11.4-13.7l-4.6-3.3-1.1 1.6 4.6 3.3 1.1-1.6m-2.2 3.1l-4.6-3.3-6.8 9.5c1.667 1.133 3.267 2.3 4.8 3.5l6.6-9.7m-16.6-7.9l-6.6-9.7-.4.3-.1 9.1 2.5 3.6 4.6-3.3m2.2 3.1l-1.1-1.6-4.6 3.3 1.1 1.6 4.6-3.3m4.3 6l-3.2-4.5-4.6 3.3 4.2 6.1 3.6-4.9m-15.4-19.7c-1 .067-2 .1-3 .1l-3-.1c.133 4.067.2 7.967.2 11.7h5.6c0-3 .067-6.9.2-11.7m14.8 27.6c-.533-.4-1.133-.8-1.8-1.2l1.2 1.8.6-.6m-15-12.1v-1.9H15v1.9h5.6m.2 13.6c-.133-4.067-.2-7.967-.2-11.7H15c0 3.733-.067 7.633-.2 11.7 1-.067 2-.1 3-.1l3 .1" style="-inkscape-font-specification:Droid Serif" font-size="100" fill="#006c00" font-family="Droid Serif"/></svg>