<svg xmlns="http://www.w3.org/2000/svg" width="74.7" height="95.1"><path d="M4.876 93.033c-1.158-.35-1.962-1.04-2.49-2.132-.516-1.06-.518-1.243-.518-43.36V5.248l.568-1.126c.416-.826.87-1.28 1.7-1.7l1.133-.57 32.37.066c32.25.065 32.375.068 33.07.586 1.01.754 1.613 1.65 1.875 2.784.35 1.51.31 83.312-.042 84.58-.4 1.446-1.155 2.39-2.344 2.93-.99.45-2.344.468-32.855.453-17.502-.01-32.115-.106-32.474-.215z" fill="#fff"/><path d="M47.753 40.453c2.866 0 4.9-.467 6.1-1.4 1.2-.934 2.066-2.967 2.6-6.1 0-.134.233-.434.7-.9l.8 8.4c0 1.2-1.034 2.066-3.1 2.6-2 .533-3.834.8-5.5.8-6.6 0-10.067-2.734-10.4-8.2l2.3-13.1v-2c-.134-.067-.534-.1-1.2-.1-1.734 0-3.567.666-5.5 2-.734 4.266-2.334 8.2-4.8 11.8-2.467 3.6-5.467 6.033-9 7.3-.8.266-1.534.6-2.2 1h-1.3c3.6-2.067 6.7-4.9 9.3-8.5 2.6-3.667 4.4-7.3 5.4-10.9-.067-.067-.167-.1-.3-.1-5.867 1.866-8.834 2.8-8.9 2.8-.534 0-1.134-.267-1.8-.8-.6-.534-.967-1.067-1.1-1.6 5.533-.8 9.566-1.634 12.1-2.5.4-.267.766-1.3 1.1-3.1.4-1.867.6-3.367.6-4.5 0-.534-.1-1.634-.3-3.3 0-.134-.067-.3-.2-.5-.134-.267-.2-.467-.2-.6v-1.6c2.266.666 4.033 1.6 5.3 2.8-1.8 4.066-2.7 6.666-2.7 7.8v1.7c.066.066.2.1.4.1s1.433-.5 3.7-1.5c2.266-1.067 3.5-1.6 3.7-1.6 1.266 0 2.466.766 3.6 2.3-.067.066-.1.2-.1.4-1.467 1-2.767 3.066-3.9 6.2-1.134 3.066-1.7 6.066-1.7 9 0 2.6.433 4.233 1.3 4.9.933.666 2.666 1 5.2 1" style="-inkscape-font-specification:Droid Serif" font-size="100" fill="#20208c" font-family="Droid Serif"/><path d="M50.5 49.5c.467 0 1.1.267 1.9.8.867.467 1.367.8 1.5 1v.8c-.333.333-.8.5-1.4.5-.333 0-1.167-.033-2.5-.1-1.333-.133-2.167-.2-2.5-.2-2.333 0-3.9.3-4.7.9l-3.4 3.5c.133-.267.5-1.367 1.1-3.3-.2-.2-.833-.3-1.9-.3-.6 0-2.167.1-4.7.3 0 .933-.267 2.3-.8 4.1l-.3-.9c-.267-.667-.567-1.267-.9-1.8-.267-.533-.533-.8-.8-.8-.6 0-1.9.2-3.9.6-1.933.4-3.2.6-3.8.6-1.133 0-2.233-.567-3.3-1.7l11-1.2-2.2-4.3h2.5c.067 0 .6.233 1.6.7 0 .8.233 2 .7 3.6.533-.067 2.933-.433 7.2-1.1.667-2.2 1.067-4.2 1.2-6 2.467 1.4 3.7 2.267 3.7 2.6l-1.6 2.5c.2.2.567.3 1.1.3.333 0 1.2-.167 2.6-.5 1.4-.4 2.267-.6 2.6-.6m-24.7 9.4c3.933-.2 7.2-.533 9.8-1 2.6-.467 4.467-.867 5.6-1.2 1.133-.333 2-.5 2.6-.5 1 0 2.333.833 4 2.5-.867 1.6-1.567 2.967-2.1 4.1-.533 1.067-.9 1.767-1.1 2.1-.133.333-.367.767-.7 1.3l-1.5 2.4c-.733-.667-1.433-1-2.1-1-1 0-2.167.267-3.5.8v2.2c.133.067.5.1 1.1.1.067 0 2.133-.2 6.2-.6 4.067-.467 6.167-.7 6.3-.7.667 0 2.067.7 4.2 2.1-.467.933-.833 2.433-1.1 4.5-.267 2.067-.7 4.033-1.3 5.9-.533 1.933-1.533 3.533-3 4.8-.8-1-2.4-2.8-4.8-5.4 2 .333 3.133.5 3.4.5 1.133 0 1.833-.6 2.1-1.8.267-1.133.4-3.5.4-7.1-.533-.733-1.433-1.1-2.7-1.1-4.4 0-8.1.433-11.1 1.3v2.7c.4.4.767.6 1.1.6.933 0 2-.3 3.2-.9-.333-.267-.5-.8-.5-1.6.8.067 1.767.533 2.9 1.4 1.133.8 1.7 1.6 1.7 2.4 0 1.067-.4 1.6-1.2 1.6-.333 0-.9-.433-1.7-1.3-.733-.8-1.167-1.233-1.3-1.3-6.8 2-10.267 3-10.4 3-.4 0-.833-.2-1.3-.6-.4-.4-.667-.833-.8-1.3 1.467-.2 3.6-.6 6.4-1.2v-2.4c-.067-.6-.5-.9-1.3-.9-3.4 0-6.033.267-7.9.8v4.4c.067 1.133.1 1.833.1 2.1.067.267.1.5.1.7.067.267.1.567.1.9 0 .133-.1.533-.3 1.2-.133.667-.2 1.1-.2 1.3 0 .267.067.467.2.6h-1.1c-.4 0-.633-.233-.7-.7-.4-5.533-.967-9.633-1.7-12.3.6.067 1.533.233 2.8.5l10-1.5.1-.2v-2.2c-.2-.2-.6-.3-1.2-.3-1.667 0-2.733.267-3.2.8-.667-.6-1.467-2.3-2.4-5.1-.933-2.867-1.667-4.667-2.2-5.4M40 66.2c.867 0 1.6-.633 2.2-1.9.667-1.267 1-2.533 1-3.8 0-.467-.133-1.067-.4-1.8h-5.9v2.5c.4.2.733.3 1 .3.2 0 .4-.033.6-.1.267-.067.467-.1.6-.1.8 0 1.367.4 1.7 1.2-.8.6-2.1 1.1-3.9 1.5v2.2H40m-5.3-6.8c-.267 0-.9.1-1.9.3-1 .2-1.633.3-1.9.3-.2 0-.633-.167-1.3-.5l1.2 7.8c1.667-.2 3-.467 4-.8v-2.3c-.467-.067-.933-.1-1.4-.1-.4 0-.767.033-1.1.1-.2-.2-.467-.5-.8-.9.067-.067 1.167-.433 3.3-1.1-.067-1.733-.1-2.667-.1-2.8" style="-inkscape-font-specification:Droid Serif" font-size="100" fill="#ba0000" font-family="Droid Serif"/><path d="M74.7 87.9c0 4.8-2.267 7.2-6.8 7.2H6.8c-4.533 0-6.8-2.4-6.8-7.2V7.2C0 2.4 2.267 0 6.8 0h61.1c4.533 0 6.8 2.4 6.8 7.2v80.7m-1.7 0V7.2c0-3.667-1.7-5.5-5.1-5.5H6.8c-3.4 0-5.1 1.833-5.1 5.5v80.7c0 3.733 1.7 5.6 5.1 5.6h61.1c3.4 0 5.1-1.867 5.1-5.6" style="-inkscape-font-specification:Droid Serif" font-size="100" font-family="Droid Serif"/></svg>