<svg xmlns="http://www.w3.org/2000/svg" width="75" xmlns:xlink="http://www.w3.org/1999/xlink" height="95"><g fill="none" stroke="#000" stroke-width=".7"><rect fill="#FFF" stroke-width="1.5" x="1" y="1" width="73" height="93" rx="5"/><g id="b"><path id="a" stroke="#116" d="M9.26 17.8a1.7 1.7 0 0 0 0 3.4h2.3l-1.15 2a1.7 1.7 0 0 0 2.94 1.7l1.15-2 1.15 2a1.7 1.7 0 0 0 2.94-1.7l-1.15-2h2.3a1.7 1.7 0 0 0 0-3.4h-2.3l1.15-2a1.7 1.7 0 0 0-2.94-1.7l-1.15 2-1.15-2a1.7 1.7 0 0 0-2.94 1.7l1.15 2zm5.19-8.1a9.8 9.8 0 1 0 .1 0zm0 1.8a8 8 0 1 0 .1 0zm0 6a2 2 0 1 0 .1 0zm0 1.65a.35.35 0 1 0 .1 0z"/><path stroke="#900" d="M9.26 45.8a1.7 1.7 0 0 0 0 3.4h2.3l-1.15 2a1.7 1.7 0 0 0 2.94 1.7l1.15-2 1.15 2a1.7 1.7 0 0 0 2.94-1.7l-1.15-2h2.3a1.7 1.7 0 0 0 0-3.4h-2.3l1.15-2a1.7 1.7 0 0 0-2.94-1.7l-1.15 2-1.15-2a1.7 1.7 0 0 0-2.94 1.7l1.15 2zm5.19-8.1a9.8 9.8 0 1 0 .1 0zm0 1.8a8 8 0 1 0 .1 0zm0 6a2 2 0 1 0 .1 0zm0 1.65a.35.35 0 1 0 .1 0z"/><use xlink:href="#a" y="56"/></g><use xlink:href="#b" x="23"/><use xlink:href="#b" x="46"/></g></svg>