<svg xmlns="http://www.w3.org/2000/svg" width="74.7" height="95.1"><path d="M74.7 87.9c0 4.8-2.267 7.2-6.8 7.2H6.8c-4.533 0-6.8-2.4-6.8-7.2V7.2C0 2.4 2.267 0 6.8 0h61.1c4.533 0 6.8 2.4 6.8 7.2v80.7m-1.7 0V7.2c0-3.667-1.7-5.5-5.1-5.5H6.8c-3.4 0-5.1 1.833-5.1 5.5v80.7c0 3.733 1.7 5.6 5.1 5.6h61.1c3.4 0 5.1-1.867 5.1-5.6" style="-inkscape-font-specification:Droid Serif" font-size="100" font-family="Droid Serif"/><path d="M5.633 93.245c-1.408-.28-2.528-1.06-3.108-2.167l-.53-1.01-.065-42.012c-.047-29.913.014-42.31.212-43.043.35-1.3 1.603-2.568 2.895-2.927 1.407-.39 63.22-.39 64.626 0 1.292.36 2.545 1.626 2.896 2.927.195.734.256 13.13.21 43.043l-.065 42.012-.527 1.01c-.336.644-.93 1.24-1.642 1.642l-1.115.63-31.44.038c-17.293.02-31.85-.044-32.35-.143z" fill="#fff"/><path d="M42.35 30.9c-1.667-.133-3.333-.2-5-.2-1.667 0-3.333.067-5 .2.133-4.2.2-8.4.2-12.6 0-4.2-.067-8.4-.2-12.6 1.667.133 3.333.2 5 .2 1.667 0 3.333-.067 5-.2-.133 4.2-.2 8.4-.2 12.6 0 4.2.067 8.4.2 12.6m-2-23.1h-6c.067 1.667.133 4.233.2 7.7h5.6c0-.467.067-3.033.2-7.7m-.2 11.5v-2h-5.6v2h5.6m.2 9.5c-.133-4.467-.2-7.033-.2-7.7h-5.6c0 .4-.067 2.967-.2 7.7 1-.067 2-.1 3-.1l3 .1m2 60.6c-1.667-.133-3.333-.2-5-.2-1.667 0-3.333.067-5 .2.133-4.2.2-8.4.2-12.6 0-4.2-.067-8.4-.2-12.6 1.667.133 3.333.2 5 .2 1.667 0 3.333-.067 5-.2-.133 4.2-.2 8.4-.2 12.6 0 4.2.067 8.4.2 12.6m-2-23.1h-6c.067 1.667.133 4.233.2 7.7h5.6c0-.467.067-3.033.2-7.7m-.2 11.5v-2h-5.6v2h5.6m.2 9.5c-.133-4.467-.2-7.033-.2-7.7h-5.6c0 .4-.067 2.967-.2 7.7 1-.067 2-.1 3-.1l3 .1m2-27.1c-1.667-.133-3.333-.2-5-.2-1.667 0-3.333.067-5 .2.133-4.2.2-8.4.2-12.6 0-4.2-.067-8.4-.2-12.6 1.667.133 3.333.2 5 .2 1.667 0 3.333-.067 5-.2-.133 4.2-.2 8.4-.2 12.6 0 4.2.067 8.4.2 12.6m-2-23.1h-6c.067 1.667.133 4.233.2 7.7h5.6c0-.467.067-3.033.2-7.7m-.2 11.5v-2h-5.6v2h5.6m.2 9.5c-.133-4.467-.2-7.033-.2-7.7h-5.6c0 .4-.067 2.967-.2 7.7 1-.067 2-.1 3-.1l3 .1" style="-inkscape-font-specification:Droid Serif" font-size="100" fill="#9c0000" font-family="Droid Serif"/><path style="-inkscape-font-specification:Droid Serif" d="M61.9 30.9c-1.667-.133-3.333-.2-5-.2-1.667 0-3.333.067-5 .2.133-4.2.2-8.4.2-12.6 0-4.2-.067-8.4-.2-12.6 1.667.133 3.333.2 5 .2 1.667 0 3.333-.067 5-.2-.133 4.2-.2 8.4-.2 12.6 0 4.2.067 8.4.2 12.6m-2-23.1h-6c.067 1.667.133 4.233.2 7.7h5.6c0-.467.067-3.033.2-7.7m-.2 11.5v-2h-5.6v2h5.6m.2 9.5c-.133-4.467-.2-7.033-.2-7.7h-5.6c0 .4-.067 2.967-.2 7.7 1-.067 2-.1 3-.1l3 .1m-37.1 2.1c-1.667-.133-3.333-.2-5-.2-1.667 0-3.333.067-5 .2.133-4.2.2-8.4.2-12.6 0-4.2-.067-8.4-.2-12.6 1.667.133 3.333.2 5 .2 1.667 0 3.333-.067 5-.2-.133 4.2-.2 8.4-.2 12.6 0 4.2.067 8.4.2 12.6m-2-23.1h-6c.067 1.667.133 4.233.2 7.7h5.6c0-.467.067-3.033.2-7.7m-.2 11.5v-2H15v2h5.6m.2 9.5c-.133-4.467-.2-7.033-.2-7.7H15c0 .4-.067 2.967-.2 7.7 1-.067 2-.1 3-.1l3 .1m41.1 60.6c-1.667-.133-3.333-.2-5-.2-1.667 0-3.333.067-5 .2.133-4.2.2-8.4.2-12.6 0-4.2-.067-8.4-.2-12.6 1.667.133 3.333.2 5 .2 1.667 0 3.333-.067 5-.2-.133 4.2-.2 8.4-.2 12.6 0 4.2.067 8.4.2 12.6m-2-23.1h-6c.067 1.667.133 4.233.2 7.7h5.6c0-.467.067-3.033.2-7.7m-.2 11.5v-2h-5.6v2h5.6m.2 9.5c-.133-4.467-.2-7.033-.2-7.7h-5.6c0 .4-.067 2.967-.2 7.7 1-.067 2-.1 3-.1l3 .1m2-27.1c-1.667-.133-3.333-.2-5-.2-1.667 0-3.333.067-5 .2.133-4.2.2-8.4.2-12.6 0-4.2-.067-8.4-.2-12.6 1.667.133 3.333.2 5 .2 1.667 0 3.333-.067 5-.2-.133 4.2-.2 8.4-.2 12.6 0 4.2.067 8.4.2 12.6m-2-23.1h-6c.067 1.667.133 4.233.2 7.7h5.6c0-.467.067-3.033.2-7.7m-.2 11.5v-2h-5.6v2h5.6m.2 9.5c-.133-4.467-.2-7.033-.2-7.7h-5.6c0 .4-.067 2.967-.2 7.7 1-.067 2-.1 3-.1l3 .1M22.8 89.4c-1.667-.133-3.333-.2-5-.2-1.667 0-3.333.067-5 .2.133-4.2.2-8.4.2-12.6 0-4.2-.067-8.4-.2-12.6 1.667.133 3.333.2 5 .2 1.667 0 3.333-.067 5-.2-.133 4.2-.2 8.4-.2 12.6 0 4.2.067 8.4.2 12.6m-2-23.1h-6c.067 1.667.133 4.233.2 7.7h5.6c0-.467.067-3.033.2-7.7m-.2 11.5v-2H15v2h5.6m.2 9.5c-.133-4.467-.2-7.033-.2-7.7H15c0 .4-.067 2.967-.2 7.7 1-.067 2-.1 3-.1l3 .1m2-27.1c-1.667-.133-3.333-.2-5-.2-1.667 0-3.333.067-5 .2.133-4.2.2-8.4.2-12.6 0-4.2-.067-8.4-.2-12.6 1.667.133 3.333.2 5 .2 1.667 0 3.333-.067 5-.2-.133 4.2-.2 8.4-.2 12.6 0 4.2.067 8.4.2 12.6m-2-23.1h-6c.067 1.667.133 4.233.2 7.7h5.6c0-.467.067-3.033.2-7.7m-.2 11.5v-2H15v2h5.6m.2 9.5c-.133-4.467-.2-7.033-.2-7.7H15c0 .4-.067 2.967-.2 7.7 1-.067 2-.1 3-.1l3 .1" font-size="100" fill="#006c00" font-family="Droid Serif"/></svg>