<svg xmlns="http://www.w3.org/2000/svg" width="75" height="95"><g fill="none" stroke="#000" stroke-width="1.5"><rect fill="#FFF" x="1" y="1" width="73" height="93" rx="5"/><path d="M34.594 64.188c-2.563-1.97-3.844-4.313-3.844-7.032 0-1.843.453-3.586 1.36-5.226.906-1.64 2.937-4.227 6.093-7.758 2.5-2.78 4.344-5.188 5.53-7.22 1.19-2.03 1.783-4.046 1.783-6.046 0-3.093-1.14-5.664-3.422-7.71-2.282-2.048-5.063-3.07-8.344-3.07-1.844 0-3.844.42-6 1.265-.875.85-1.656 2.02-2.344 3.52l-1.78 3.568-.564.375L21 28.61l-.28-.657 3.608-10.875c3.656-2.375 7.64-3.562 11.953-3.562 3.32 0 6.36.6 9.12 1.804 2.77 1.204 4.94 2.993 6.52 5.368 1.58 2.375 2.37 5.046 2.37 8.015 0 1.97-.32 3.813-.96 5.53-.64 1.72-1.58 3.4-2.812 5.04-1.234 1.64-3.6 4.024-7.1 7.15-2.22 1.967-3.916 3.577-5.09 4.827-1.17 1.25-2.053 2.46-2.647 3.633-.596 1.172-.89 2.242-.89 3.21 0 1.626.62 3.126 1.87 4.5l-.09.657-1.22.938zm.89 6.093c1.563 0 2.89.55 3.985 1.65 1.09 1.095 1.64 2.42 1.64 3.985 0 1.53-.55 2.844-1.64 3.938-1.1 1.094-2.43 1.64-3.99 1.64-1.53 0-2.85-.546-3.96-1.64-1.11-1.093-1.67-2.405-1.67-3.937 0-1.595.562-2.93 1.687-4.01 1.125-1.08 2.437-1.618 3.937-1.618z" font-size="96" letter-spacing="0" word-spacing="0" fill="#000" font-family="Palatino Linotype" stroke="none"/></g></svg>